<svg width="52" height="52" viewBox="0 0 52 52" fill="none" xmlns="http://www.w3.org/2000/svg">
<g clip-path="url(#clip0_714_1134)">
<path d="M45.3015 22.8396C45.1348 26.0944 44.2683 29.116 41.8022 30.1158C41.8022 30.1158 39.4138 34.0372 33.5373 33.1929C33.2596 33.1485 32.9819 33.1041 32.693 33.0374L25.0391 34.8926C24.3948 35.2814 23.7283 35.548 23.084 35.7257C18.9182 36.8255 15.019 33.9261 15.019 33.9261C12.0086 35.6035 8.34268 35.248 10.4533 31.671C13.1305 27.1387 14.4303 18.3628 14.4303 18.3628L15.019 17.1297C12.1419 7.13182 15.9188 3.26598 20.1291 2.87718C24.5281 0.144428 29.4271 -0.977554 33.715 1.8885C35.1036 2.81053 35.9479 3.85475 36.2367 4.26577C42.8353 6.56528 44.2017 12.5862 44.2017 12.5862C44.2017 12.5862 45.5458 17.9851 45.3015 22.8396Z" fill="#36D1DC"/>
<path d="M45.3016 22.8396C45.1349 26.0945 44.2684 29.116 41.8023 30.1158C41.8023 30.1158 39.4139 34.0372 33.5374 33.1929C32.6931 30.5824 34.0151 26.8499 34.0151 26.8499L38.6919 21.1622C38.6919 21.1511 41.7912 26.7054 45.3016 22.8396Z" fill="#32BBC5"/>
<path d="M33.715 1.91069C30.8379 2.77718 24.3726 5.65434 22.7618 14.1303C20.7178 24.8836 19.9291 25.0169 19.8958 25.0058C19.9402 24.1393 20.6178 9.65348 20.6623 8.84255L22.5618 1.57743C22.7396 1.57743 28.405 -1.6441 33.715 1.91069Z" fill="#31C9D3"/>
<path d="M25.9946 22.8951L24.8948 31.5599C24.8948 31.5599 24.2394 33.815 23.073 35.7257C18.9072 36.8255 15.008 33.9261 15.008 33.9261C11.9976 35.6035 8.3317 35.248 10.4424 31.671C13.1196 27.1386 14.4193 18.3627 14.4193 18.3627L15.008 17.1297C12.1309 7.1318 15.9079 3.26596 20.1181 2.87715C20.418 2.6883 20.7179 2.51056 21.0068 2.34393C18.574 19.1515 19.296 14.097 17.763 24.9835C18.2074 24.8947 19.8403 24.4725 25.9946 22.8951Z" fill="#36D1DC"/>
<path d="M38.4585 39.0583L17.8296 39.1028C17.8296 39.1028 7.25406 42.602 6.17651 51.7779H45.8236C45.1349 43.8351 38.4585 39.0583 38.4585 39.0583Z" fill="#5B86E5"/>
<path d="M34.0151 29.3938C34.0151 29.3938 34.4483 34.626 35.7813 37.8808C30.2714 46.1902 23.0841 41.7689 20.6624 37.4587C21.1956 36.4811 23.0285 32.7042 23.2396 26.6277L22.7619 14.1303C26.45 14.2637 33.9928 13.886 36.9922 8.84259C46.2458 18.3739 38.7474 28.4162 34.0151 29.3938Z" fill="#E9E9FD"/>
<path d="M32.3043 48.9118L28.1719 49.3117C27.9608 50.156 27.7942 50.978 27.6609 51.7668H33.4485C32.6376 50.0227 32.3043 48.9118 32.3043 48.9118Z" fill="#59BDEF"/>
<path d="M33.2597 45.4125C33.2597 45.4125 32.9486 47.3899 32.3043 48.9118C32.3043 48.9118 31.3601 50.0782 28.1719 49.3117C28.1719 49.3117 26.7388 48.2786 26.1056 45.9569C25.4724 43.6351 28.7162 41.6133 28.7162 41.6133H29.8382L32.1932 42.5798L33.2597 45.4125Z" fill="#E9E9FD"/>
<path d="M29.8381 41.6133C29.8381 41.6133 32.4265 43.9128 34.115 48.5452C35.6147 52.6665 43.2131 38.5029 34.7482 34.3149C34.7482 34.3149 34.3816 39.2472 29.8381 41.6133Z" fill="#5B86E5"/>
<path d="M29.838 41.6133C29.838 41.6133 27.7162 43.1352 25.9944 48.223C24.017 54.044 18.3071 49.345 17.7739 38.8028C17.7739 38.8028 18.6071 36.059 22.073 33.9261C22.073 33.9261 23.8504 38.1696 29.838 41.6133Z" fill="#5B86E5"/>
<path d="M31.9266 0.955391C18.9627 1.93296 21.2178 15.6523 21.2178 15.6523C21.2178 15.6523 18.2295 26.3055 17.9074 15.6523C17.5852 4.99897 20.1291 2.89942 20.1291 2.89942C25.3058 -0.344331 29.2383 -0.144373 31.9266 0.955391Z" fill="#5B86E5"/>
<path d="M27.6609 27.7496C27.6609 27.7496 31.2713 30.2491 38.1254 27.6052L39.7028 29.3049C39.7028 29.3049 33.7485 33.2818 26.0168 29.216L27.6609 27.7496Z" fill="#5B86E5"/>
<path d="M26.0168 24.3059C26.0168 24.3059 30.9936 30.749 23.8951 29.1271C16.8077 27.5163 26.0168 24.3059 26.0168 24.3059Z" fill="#5B86E5"/>
<path d="M26.4055 22.1952C26.4055 27.0942 22.4397 30.5712 18.4073 29.4937C15.5301 28.7161 13.375 25.75 13.375 22.1952C13.375 18.6516 15.519 15.6744 18.4073 14.8968C22.4731 13.8193 26.4055 17.3407 26.4055 22.1952Z" fill="#E9E9FD"/>
<path d="M23.4395 22.1952C23.4395 25.7389 21.2955 28.7161 18.4073 29.4937C15.5301 28.7161 13.375 25.75 13.375 22.1952C13.375 18.6515 15.519 15.6744 18.4073 14.8968C21.2955 15.6744 23.4395 18.6515 23.4395 22.1952Z" fill="#5B86E5"/>
<path d="M39.3729 30.5218C41.1501 29.732 42.1606 28.1237 41.6299 26.9296C41.0992 25.7354 39.2283 25.4076 37.4511 26.1974C35.6739 26.9872 34.6634 28.5956 35.1941 29.7897C35.7247 30.9838 37.5957 31.3116 39.3729 30.5218Z" fill="#5B86E5"/>
<path d="M38.6583 38.925C38.2473 37.1476 37.2142 35.3258 34.9369 34.1705C34.8925 33.9483 34.848 33.7373 34.8147 33.5262C38.1251 33.6262 40.7246 32.1043 41.9465 30.2935C44.546 29.1827 45.7457 25.8612 45.5235 20.4068C45.4124 17.8184 45.0014 15.3412 44.7126 13.8859C44.4238 12.4418 44.1683 11.1532 42.8908 9.17584C41.8132 7.52063 39.8136 5.29889 36.381 4.08803C35.1813 2.46616 33.1928 1.01091 30.9267 0.366608C27.6496 -0.544309 23.9948 0.222194 20.0623 2.66612C18.0294 2.86607 16.3187 3.84364 15.23 5.43219C13.4859 7.97609 13.3304 12.0197 14.7857 17.1186C13.6637 18.5738 12.9527 20.94 13.2304 23.2728C12.3751 26.8721 11.342 29.7381 10.2644 31.5711C9.27573 33.2374 9.58677 34.1149 10.0089 34.5593C10.8643 35.4369 12.9972 35.2814 14.9967 34.2038C15.4411 34.5149 17.0852 35.5702 19.2403 36.0145C18.7182 36.6033 17.5073 38.2585 17.5628 38.9806C16.8852 39.225 14.4746 40.1803 12.0196 42.0244C8.487 44.6794 6.38745 48.0453 5.95421 51.7667C5.9431 51.9 6.04308 52.0111 6.17639 52.0111C6.28747 52.0111 6.38745 51.9334 6.39856 51.8112C7.3428 43.7129 15.9187 40.0692 17.5962 39.436C17.8739 43.3241 18.807 45.9235 19.5624 47.4343C20.34 49.0007 21.7731 50.9891 23.4949 50.9891C24.2836 50.9891 25.45 50.5559 26.2165 48.3119C26.3054 48.0453 26.3943 47.8009 26.4832 47.5454C27.0275 48.5896 27.6607 49.2006 27.9162 49.4117C27.7273 50.1782 27.5607 50.9669 27.4385 51.7445C27.4163 51.8667 27.5052 51.9778 27.6163 52C27.7384 52.0222 27.8495 51.9334 27.8718 51.8223C27.9939 51.078 28.1495 50.3226 28.3272 49.5894C29.5381 49.856 31.1488 49.9893 32.1819 49.3006C32.3375 49.7449 32.6707 50.6559 33.2262 51.8778C33.2817 51.9889 33.415 52.0333 33.5261 51.9889C33.6372 51.9334 33.6816 51.8112 33.6372 51.689C32.9596 50.2226 32.6263 49.2117 32.5374 48.934C32.8151 48.2675 33.0262 47.5232 33.1817 46.89C33.4372 47.4232 33.6816 48.012 33.9038 48.6341C34.0926 49.1562 34.437 49.5672 34.9925 49.5228C36.3255 49.4117 38.0807 46.4901 38.6806 43.3796C38.8472 42.5132 39.0138 41.1135 38.7916 39.6138C40.2913 40.858 45.0347 45.257 45.6013 51.8112C45.6124 51.9223 45.7124 52.0111 45.8235 52.0111C45.9568 52.0111 46.0568 51.9 46.0456 51.7667C45.3902 44.2128 39.3582 39.4583 38.6583 38.925ZM35.6034 3.84364C34.4592 3.51038 33.2373 3.29931 31.9375 3.22155C31.8154 3.21044 31.7043 3.31042 31.7043 3.43262C31.6932 3.55482 31.7931 3.6659 31.9153 3.6659C38.7472 4.07693 43.124 8.19827 44.2571 13.8859C44.9792 17.4963 46.59 27.9163 41.7132 29.9047C41.6688 29.927 41.6355 29.9492 41.6021 29.9936C41.5799 30.0269 39.5359 33.2596 34.7258 33.0707C34.6036 32.3598 34.5037 31.7044 34.437 31.1933C35.0036 31.1378 35.5812 31.0489 36.1367 30.9267C38.8916 32.0598 42.8685 29.1605 41.8354 26.8387C41.4577 25.9945 40.4913 25.539 39.3471 25.5501C42.2465 21.3621 43.1352 14.8524 37.1475 8.67594C37.0476 8.57596 36.8698 8.58707 36.7921 8.72038C33.9149 13.5638 26.7609 14.0415 22.7617 13.897C22.6284 13.897 22.5285 13.997 22.5285 14.1303L22.5618 15.119C22.1619 14.9191 21.7508 14.7635 21.3176 14.6636C21.1732 12.664 21.1954 8.04274 24.0059 4.75456C25.8055 2.6439 28.4494 1.44416 31.882 1.17755C33.7038 1.93294 34.948 3.09936 35.6034 3.84364ZM35.559 30.5935C32.7929 31.1045 29.8824 30.7712 26.9719 29.4382C27.5385 29.2271 27.8829 28.7939 27.9273 28.1496C28.5827 28.4828 30.0046 29.0383 32.1708 29.0383C32.9707 29.0383 33.8705 28.9605 34.8703 28.7716C34.7592 29.4715 34.9813 30.138 35.559 30.5935ZM35.659 27.9607C36.4033 26.7832 38.0029 25.9945 39.4026 25.9945C40.358 25.9945 41.1356 26.3611 41.4355 27.0276C41.9132 28.1051 40.9578 29.5826 39.2915 30.3269C36.5477 31.5488 34.3926 29.9603 35.659 27.9607ZM34.9925 28.294C30.8489 29.1271 28.4272 27.9385 27.894 27.6386C27.7162 26.4166 26.7831 24.9947 26.3499 24.3948C27.2719 20.8511 25.85 17.0964 23.0283 15.3856L22.9839 14.3636C27.0497 14.4858 33.9927 13.9304 37.0142 9.20916C42.7352 15.2745 41.691 21.6287 38.7583 25.6057C37.192 25.8056 35.5257 26.8609 34.9925 28.294ZM23.406 28.7828C24.6724 27.8941 25.6611 26.5499 26.1943 24.9391C28.5938 28.4495 27.7162 29.9603 23.406 28.7828ZM26.261 29.5937C28.6827 30.7934 31.271 31.4155 33.9927 31.2378C34.126 32.2487 34.3037 33.3262 34.5148 34.3371C34.4703 34.737 33.9482 39.1583 29.838 41.369C24.4725 38.2585 22.5618 34.4593 22.3063 33.915C22.7506 32.4264 23.0728 30.849 23.2616 29.2049C24.1503 29.4382 25.3501 29.6826 26.261 29.5937ZM20.2623 3.06603C24.1503 0.644326 27.7273 -0.0999591 30.9267 0.833175C27.8273 1.2442 25.3945 2.46616 23.6838 4.46573C20.8288 7.80946 20.7511 12.4418 20.8844 14.5636C19.929 14.4081 18.9959 14.4747 18.1072 14.7635C17.9628 5.46552 20.1067 3.22155 20.2623 3.06603ZM15.5855 5.68769C16.7186 4.02138 18.3071 3.39929 19.5957 3.18823C18.8959 4.22134 17.5184 7.24292 17.6628 14.9302C16.7075 15.319 15.841 15.9411 15.13 16.752C13.797 11.8975 13.9525 8.07607 15.5855 5.68769ZM19.8957 14.9302C23.3616 14.9302 26.1832 18.185 26.1832 22.1953C26.1832 26.2055 23.3616 29.4604 19.8957 29.4604C16.4298 29.4604 13.6081 26.2055 13.6081 22.1953C13.6081 18.185 16.4298 14.9302 19.8957 14.9302ZM15.43 33.9372C16.1854 33.4818 16.8408 32.9152 17.3407 32.3042C17.4184 32.2042 17.4073 32.0709 17.3073 31.9932C17.2074 31.9154 17.0741 31.9265 16.9963 32.0265C15.0634 34.3816 11.3531 35.2925 10.3199 34.2371C9.74229 33.6373 10.1755 32.5819 10.6421 31.7932C11.6641 30.0603 12.5972 27.5497 13.4193 24.3282C14.5746 28.9272 19.0847 31.2267 22.8173 29.1493C22.6284 30.7712 22.3063 32.3264 21.873 33.7928C20.9288 34.3816 20.1845 35.0148 19.5957 35.6146C17.6517 35.2592 16.0632 34.3371 15.43 33.9372ZM25.7833 48.1564C24.4836 51.9778 21.7508 50.8336 19.9512 47.2233C19.1736 45.668 18.2183 42.9575 17.9961 38.8251C18.1072 38.514 18.9959 36.159 21.973 34.2371C22.4285 35.1703 24.3947 38.6584 29.4492 41.6356C28.8382 42.2243 27.183 44.035 25.7833 48.1564ZM32.1153 48.8007C31.982 48.934 31.0266 49.7672 28.2717 49.1229C28.105 48.9896 27.2941 48.2897 26.7053 46.9789C28.0051 43.7351 29.4048 42.3132 29.838 41.9244C30.2601 42.3465 31.6265 43.8018 32.8818 46.2568C32.7152 46.9566 32.4708 47.9564 32.1153 48.8007ZM38.2473 43.2797C37.6474 46.3901 35.9589 48.9784 34.9591 49.0673C34.8591 49.0784 34.5481 49.1006 34.3148 48.4674C32.8929 44.5794 30.8822 42.3354 30.2046 41.6689C32.7707 40.2248 34.4815 37.5031 34.9036 34.6593C38.9805 36.8699 38.6028 41.4023 38.2473 43.2797Z" fill="#252631"/>
<path d="M21.7509 27.583C24.2504 24.6503 24.2837 20.0513 21.9509 17.0631C21.8731 16.9631 21.7398 16.952 21.6398 17.0297C21.5399 17.1075 21.5287 17.2408 21.6065 17.3408C23.806 20.1624 23.7727 24.5281 21.4177 27.3053C21.2066 27.5164 21.5732 27.8052 21.7509 27.583Z" fill="#252631"/>
</g>
<defs>
<clipPath id="clip0_714_1134">
<rect width="52" height="52" fill="white"/>
</clipPath>
</defs>
</svg>
