<svg width="52" height="52" viewBox="0 0 52 52" fill="none" xmlns="http://www.w3.org/2000/svg">
<path d="M46.8937 43.6147C46.8959 48.0645 41.9336 51.674 35.8086 51.6762C29.6846 51.6795 24.719 48.0746 24.7168 43.6258C24.7168 43.0344 24.8035 42.4575 24.9714 41.9017C26.0552 38.28 30.4917 35.5666 35.8019 35.5643C41.1144 35.561 45.5542 38.2734 46.6391 41.8961C46.8059 42.4497 46.8937 43.0244 46.8937 43.6147Z" fill="#5B86E5"/>
<path d="M46.6392 41.8961C45.5554 45.5167 41.1189 48.2302 35.8087 48.2335C30.4973 48.2357 26.0575 45.5245 24.9714 41.9017C26.0553 38.28 30.4918 35.5666 35.802 35.5643C41.1144 35.561 45.5543 38.2734 46.6392 41.8961Z" fill="#59BDEF"/>
<path d="M35.8022 41.8477C40.0724 41.8477 43.5341 39.6462 43.5341 36.9305C43.5341 34.2149 40.0724 32.0134 35.8022 32.0134C31.532 32.0134 28.0703 34.2149 28.0703 36.9305C28.0703 39.6462 31.532 41.8477 35.8022 41.8477Z" fill="#5B86E5"/>
<path d="M40.7068 37.3098C39.8186 38.4624 37.9567 39.256 35.8032 39.257C33.5121 39.2581 31.5503 38.362 30.7395 37.0892C30.7395 37.0892 33.2674 31.1129 31.8166 22.278L39.6188 22.2743C38.9511 30.9552 40.7068 37.3098 40.7068 37.3098Z" fill="#59BDEF"/>
<path d="M35.794 24.6701C40.3503 24.6701 44.044 22.5456 44.044 19.9248C44.044 17.304 40.3503 15.1795 35.794 15.1795C31.2376 15.1795 27.5439 17.304 27.5439 19.9248C27.5439 22.5456 31.2376 24.6701 35.794 24.6701Z" fill="#5B86E5"/>
<path d="M43.6512 10.3737C43.6512 10.3737 44.7841 9.24083 46.3835 5.4423C47.9829 1.64377 41.2523 5.10904 38.8531 9.50729C36.454 13.9055 43.6512 10.3737 43.6512 10.3737Z" fill="#5B86E5"/>
<path d="M26.4061 10.3737C26.4061 10.3737 25.2733 9.24087 23.6739 5.44234C22.0745 1.64381 28.8052 5.10919 31.2042 9.50744C33.6032 13.9057 26.4061 10.3737 26.4061 10.3737Z" fill="#5B86E5"/>
<path d="M35.3487 16.8256C39.8247 16.8256 43.4532 13.7925 43.4532 10.051C43.4532 6.30951 39.8247 3.27643 35.3487 3.27643C30.8727 3.27643 27.2441 6.30951 27.2441 10.051C27.2441 13.7925 30.8727 16.8256 35.3487 16.8256Z" fill="#5B86E5"/>
<path d="M35.3486 5.52569C36.8095 5.52569 37.9938 4.3385 37.9938 2.87402C37.9938 1.40954 36.8095 0.222351 35.3486 0.222351C33.8877 0.222351 32.7034 1.40954 32.7034 2.87402C32.7034 4.3385 33.8877 5.52569 35.3486 5.52569Z" fill="#5B86E5"/>
<path d="M40.1159 20.5736C40.1159 20.5736 43.0759 16.1266 48.289 11.4515C53.0224 7.20588 46.3672 6.94087 41.6913 11.2208C41.6913 11.2208 38.7057 13.4342 37.7593 10.5458C36.4445 6.53079 34.8832 3.87912 33.0534 10.3434C32.7327 11.4771 31.4655 12.0558 30.4088 11.5354C30.2967 11.4797 30.18 11.4179 30.0571 11.3481C25.3758 6.93642 18.5422 7.16441 23.3225 11.4515C28.5356 16.1266 31.4956 20.5736 31.4956 20.5736C31.4956 20.5736 35.7291 22.7177 40.1159 20.5736Z" fill="#59BDEF"/>
<path d="M22.6526 44.3228C22.6237 48.4792 17.996 51.8163 12.3167 51.7774C6.63744 51.7374 2.05644 48.3369 2.08534 44.1805C2.08979 43.488 2.22318 42.8177 2.46663 42.1829C3.68608 39.0059 7.68793 36.6937 12.4212 36.726C17.1167 36.7593 21.0619 39.0904 22.2713 42.2452C22.5248 42.9055 22.6582 43.6036 22.6526 44.3228Z" fill="#5B86E5"/>
<path d="M22.2712 42.2452C21.0529 45.4222 17.05 47.7355 12.3167 47.7022C7.62115 47.6699 3.676 45.3388 2.46655 42.1829C3.686 39.0059 7.68785 36.6937 12.4211 36.726C17.1166 36.7593 21.0618 39.0904 22.2712 42.2452Z" fill="#59BDEF"/>
<path d="M19.6384 38.0557C19.6562 35.5189 16.437 33.4398 12.4481 33.4119C8.45928 33.384 5.21129 35.4178 5.19353 37.9546C5.17577 40.4913 8.39498 42.5704 12.3838 42.5983C16.3727 42.6263 19.6207 40.5924 19.6384 38.0557Z" fill="#5B86E5"/>
<path d="M17.0667 38.392C16.2291 39.4625 14.4845 40.1908 12.4728 40.1769C10.3327 40.162 8.50638 39.3115 7.75781 38.117C7.75781 38.117 10.1606 32.5521 8.86644 24.2894L16.1544 24.3399C15.4708 32.444 17.0667 38.392 17.0667 38.392Z" fill="#59BDEF"/>
<path d="M20.7683 23.3763C20.7849 21.012 17.1069 19.0695 12.5533 19.0376C7.99965 19.0058 4.29481 20.8966 4.27826 23.2609C4.26171 25.6252 7.93971 27.5677 12.4933 27.5996C17.0469 27.6315 20.7518 25.7406 20.7683 23.3763Z" fill="#5B86E5"/>
<path d="M12.5652 25.0758C16.7958 25.0758 20.2254 21.6462 20.2254 17.4156C20.2254 13.185 16.7958 9.75543 12.5652 9.75543C8.33462 9.75543 4.90503 13.185 4.90503 17.4156C4.90503 21.6462 8.33462 25.0758 12.5652 25.0758Z" fill="#59BDEF"/>
<path d="M27.7558 45.323C27.6653 45.2396 27.5248 45.2456 27.4416 45.3358C27.3585 45.4261 27.3642 45.5668 27.4544 45.6499C31.7334 49.5938 40.8901 49.2761 44.5912 45.2066C44.6738 45.1158 44.6673 44.9752 44.5763 44.8926C44.4856 44.8099 44.3448 44.8167 44.2623 44.9075C40.7271 48.7945 31.8572 49.1032 27.7558 45.323Z" fill="#252631"/>
<path d="M50.1132 8.84831C50.0561 8.58152 49.8648 8.22391 49.2775 8.03626C48.3356 7.73524 46.7261 7.99691 45.0173 8.76749C45.5338 7.86752 46.0606 6.78202 46.5886 5.52877C46.9559 4.65726 46.9359 4.0641 46.5295 3.76607C45.6976 3.15601 43.5766 4.24974 41.8458 5.67795C40.901 4.68561 39.6349 3.90714 38.1558 3.46193C38.5287 1.67133 37.1574 0 35.3488 0C33.5407 0 32.1683 1.67122 32.5421 3.46293C30.9139 3.95138 29.5406 4.84368 28.5711 5.98454C26.7455 4.38369 24.4157 3.13734 23.5384 3.75918C23.1223 4.05432 23.0991 4.6497 23.4695 5.52877C23.8697 6.48021 24.2735 7.34128 24.6736 8.09907C23.7447 7.87997 22.9301 7.8524 22.3527 8.03071C21.7544 8.21557 21.5585 8.57496 21.4996 8.84375C21.3451 9.54874 21.9085 10.4817 23.1742 11.6169C25.4401 13.6489 27.2856 15.6483 28.643 17.2517C26.6383 19.0968 26.8204 21.7343 29.8511 23.4758C30.4553 23.823 31.1343 24.1105 31.8668 24.334C32.2045 27.6031 32.0047 30.4063 31.6674 32.5382C29.3698 33.44 27.4134 35.3364 27.9309 37.6767C23.3623 40.916 23.3583 46.2498 27.8366 49.5004C32.2043 52.6706 39.3299 52.7293 43.7799 49.4931C48.339 46.1773 48.1488 40.8403 43.6749 37.6713C43.7288 37.4269 43.7571 37.1785 43.757 36.9269C43.7558 35.152 42.3844 33.5399 40.0818 32.5944C39.8104 30.4064 39.6065 27.5652 39.7258 24.3302C40.458 24.106 41.1369 23.8179 41.7406 23.4702C44.7705 21.7251 44.9413 19.095 42.9603 17.2615C44.3181 15.6569 46.1663 13.6537 48.4376 11.6169C49.7004 10.4844 50.2641 9.55296 50.1132 8.84831ZM46.2666 4.12468C46.4759 4.2782 46.444 4.72707 46.179 5.35625C45.3843 7.24256 44.7132 8.44356 44.2823 9.12877C44.0708 9.24082 43.8591 9.35976 43.6481 9.48682C43.5254 8.21335 42.9909 7.01757 42.1422 6.01011C44.0345 4.44939 45.7868 3.77307 46.2666 4.12468ZM35.3488 0.44465C36.6849 0.44465 37.7717 1.53449 37.7717 2.87399C37.7717 4.2135 36.6849 5.30334 35.3488 5.30334C34.0128 5.30334 32.926 4.2135 32.926 2.87399C32.926 1.53449 34.0128 0.44465 35.3488 0.44465ZM32.6667 3.88957C33.077 4.97452 34.1243 5.7481 35.3487 5.7481C36.5736 5.7481 37.621 4.97418 38.0311 3.88879C41.0174 4.78888 43.0785 7.11484 43.2223 9.75506C42.6468 10.1316 42.0822 10.5627 41.5506 11.0482C41.4317 11.1335 40.0855 12.0709 39.0423 11.7382C38.5544 11.5826 38.1939 11.158 37.9706 10.4766C36.9951 7.49735 36.1929 6.22198 35.2923 6.22198C35.2858 6.22198 35.2793 6.22198 35.2728 6.22209C34.3919 6.23999 33.6186 7.53036 32.8394 10.2829C32.5556 11.2863 31.4358 11.7931 30.5075 11.3361C30.4025 11.2841 30.2983 11.2288 30.1899 11.1677C29.3592 10.3881 28.4441 9.74094 27.5286 9.23437C27.8933 6.79536 29.8844 4.72529 32.6667 3.88957ZM23.8792 5.35636C23.6125 4.72329 23.582 4.27331 23.7955 4.12201C24.3272 3.74506 26.3392 4.61135 28.2933 6.33281C27.6931 7.13663 27.2845 8.0466 27.1136 9.01527C26.4825 8.69501 25.8577 8.44245 25.2658 8.26059C24.8074 7.43032 24.3412 6.45465 23.8792 5.35636ZM43.5184 49.1336C39.2594 52.2311 32.3464 52.2245 28.0978 49.1406C23.8901 46.0865 23.888 41.1833 28.0639 38.1286C28.4034 39.0602 29.1382 39.9116 30.2176 40.5974C33.3185 42.5675 38.3055 42.5566 41.3909 40.5927C42.4692 39.9063 43.2033 39.0547 43.5421 38.123C47.7058 41.1607 47.7361 46.0658 43.5184 49.1336ZM41.1522 40.2177C38.2005 42.0964 33.3993 42.092 30.456 40.2221C27.0869 38.0815 27.7998 34.6721 31.5809 33.0539C31.142 35.5332 30.5463 36.9761 30.535 37.003C30.5066 37.0702 30.5131 37.1473 30.5522 37.209C32.39 40.0953 38.6981 40.2807 40.8827 37.4454C40.9254 37.39 40.9395 37.3179 40.921 37.2505C40.9131 37.2218 40.4948 35.6776 40.1481 33.1061C43.9032 34.7745 44.4145 38.141 41.1522 40.2177ZM40.4633 37.258C39.4372 38.4965 37.4549 39.0348 35.7989 39.0348C33.7251 39.0348 31.8129 38.2468 30.9892 37.0631C32.0329 34.3446 32.8298 29.6099 32.3255 24.4628C34.5251 25.0376 37.0742 25.0366 39.2761 24.4572C39.106 29.4526 39.714 34.3215 40.4633 37.258ZM43.8214 19.9206C43.8224 21.1054 43.0046 22.2291 41.5187 23.0849C38.3399 24.9157 33.2021 24.8886 30.0726 23.0903C27.5872 21.6622 26.9615 19.4187 28.9292 17.5928C30.4624 19.4332 31.2951 20.6735 31.3105 20.6969C31.3318 20.7288 31.361 20.7547 31.3952 20.772C31.424 20.7866 33.3534 21.7414 35.9478 21.7414C37.2537 21.7414 38.7286 21.4993 40.2135 20.7734C40.249 20.756 40.2792 20.7296 40.301 20.6969C40.3165 20.6737 41.1457 19.438 42.6738 17.6028C43.4255 18.3042 43.8214 19.1017 43.8214 19.9206ZM48.1409 11.286C44.6688 14.3996 41.5714 18.0486 39.9655 20.3995C36.003 22.3046 32.1279 20.6233 31.646 20.3991C29.8279 17.7383 26.6488 14.1357 23.471 11.2861C21.9235 9.89823 21.8805 9.18235 21.9339 8.93901C22.1989 7.7289 26.5525 8.35063 29.9049 11.51C29.951 11.5534 30.2537 11.7066 30.3107 11.735C31.4907 12.316 32.9086 11.6728 33.2676 10.4041C33.5207 9.51006 34.3654 6.66674 35.2914 6.66674C35.931 6.66674 36.6902 7.99502 37.5483 10.6151C37.8188 11.4406 38.2764 11.9611 38.9086 12.1623C40.2142 12.5777 41.7587 11.4477 41.8239 11.3995C43.7615 9.94637 45.1278 8.77394 47.6599 8.41411C48.7774 8.25537 49.5717 8.44323 49.6786 8.94146C49.7306 9.18491 49.685 9.90079 48.1409 11.286Z" fill="#252631"/>
<path d="M19.7708 38.775C19.8273 38.5402 19.8576 38.2998 19.8593 38.0548C19.8706 36.4165 18.6293 34.9098 16.5323 34.0043C16.3228 32.2151 16.1649 29.9566 16.2184 27.3932C17.026 27.1904 17.7737 26.919 18.4324 26.5827C21.4988 25.0176 21.6876 22.5922 19.6392 20.8997C20.1588 19.8467 20.4389 18.6822 20.4477 17.4734C20.4796 13.1271 16.9695 9.5652 12.6232 9.5333C6.85228 9.48594 2.93191 15.5241 5.44585 20.7963C4.54132 21.5205 4.06088 22.3686 4.05532 23.2582C4.04665 24.4888 4.93884 25.6402 6.56759 26.5002C7.2767 26.8747 8.09107 27.1749 8.97459 27.3943C9.1201 29.9242 8.93168 32.1103 8.64844 33.8311C6.38729 34.6779 4.98142 36.2475 4.97041 37.9516C4.96874 38.1947 4.99453 38.4351 5.04656 38.6712C3.00706 40.1242 1.87765 42.0748 1.86342 44.179C1.83374 48.4505 6.52257 51.9588 12.3156 51.9997C12.3488 51.9999 12.3816 52 12.4147 52C18.1623 51.9999 22.8458 48.5718 22.8753 44.3244C22.8893 42.2206 21.7878 40.2553 19.7708 38.775ZM5.12771 17.361C5.15761 13.2775 8.47103 9.97772 12.5638 9.97772C16.6963 9.97772 20.0331 13.3555 20.003 17.4702C19.9729 21.5827 16.6091 24.8865 12.5109 24.8533C8.40966 24.8232 5.09769 21.4621 5.12771 17.361ZM5.65428 21.2C6.9859 23.6221 9.55286 25.2762 12.5077 25.2979C15.4627 25.3221 18.0523 23.7171 19.4254 21.3011C20.163 21.9336 20.5497 22.6457 20.5452 23.3727C20.5258 26.1145 15.8455 27.4008 12.4941 27.3761C6.41474 27.333 2.38766 23.9135 5.65428 21.2ZM9.42547 27.4974C11.506 27.938 13.7974 27.92 15.7722 27.4976C15.6945 31.7003 16.1951 35.7892 16.8239 38.3386C15.981 39.3359 14.2896 39.9667 12.474 39.954C10.5436 39.941 8.76916 39.1968 8.0077 38.0917C8.92135 35.7575 9.65446 31.7903 9.42547 27.4974ZM8.55918 34.3431C8.13187 36.6586 7.56416 38.0049 7.55394 38.0286C7.52503 38.0957 7.53093 38.1726 7.56972 38.2347C9.27362 40.9561 15.18 41.1666 17.2421 38.5292C17.2852 38.4742 17.2999 38.4022 17.2816 38.3347C17.2749 38.3095 16.9006 36.8883 16.5958 34.5199C18.378 35.3584 19.4243 36.6595 19.4147 38.0517C19.398 40.462 16.2387 42.4016 12.3842 42.3741C10.4969 42.361 8.72881 41.8832 7.40598 41.0289C4.29232 39.0182 4.94662 35.8267 8.55918 34.3431ZM12.3185 51.555C6.77069 51.5159 2.27984 48.2084 2.30785 44.182C2.32074 42.2671 3.33855 40.4805 5.18062 39.123C5.5001 39.9796 6.17686 40.7646 7.16453 41.4023C8.68424 42.3838 10.6197 42.819 12.4623 42.819C15.9078 42.8189 18.8095 41.2931 19.6278 39.2231C21.4502 40.6055 22.4433 42.4061 22.4302 44.3212C22.4025 48.348 17.8658 51.5907 12.3185 51.555Z" fill="#252631"/>
<path d="M19.6103 45.3342C15.7966 48.4675 8.24697 48.2517 4.80082 44.9623C4.71189 44.8776 4.57138 44.8807 4.48657 44.9697C4.40175 45.0585 4.40509 45.1992 4.49379 45.284C8.09468 48.7209 15.9001 48.9582 19.8925 45.6778C19.9874 45.5998 20.0011 45.4598 19.923 45.3648C19.845 45.2699 19.7051 45.2563 19.6103 45.3342Z" fill="#252631"/>
</svg>
