<svg width="52" height="52" viewBox="0 0 52 52" fill="none" xmlns="http://www.w3.org/2000/svg">
<g clip-path="url(#clip0_714_1361)">
<path d="M41.3266 51.1962C34.4617 51.4241 37.7887 51.3136 23.9023 51.7751C22.0167 51.8373 20.319 50.6451 19.7379 48.8507L5.96132 6.28328C5.65799 5.34773 5.89355 4.32107 6.57243 3.61108L9.35907 0.697771C9.67574 0.366662 10.1235 0.19333 10.5802 0.225552C13.2162 0.411329 32.3681 1.76076 34.5433 1.91443C37.7611 2.14109 38.4622 5.27773 38.4622 5.27773C38.4622 5.27773 44.7121 38.9763 46.001 45.1252C47.2276 50.9685 41.3266 51.1962 41.3266 51.1962Z" fill="#4C72C8"/>
<path d="M35.8044 51.3796L23.9023 51.7751C22.0167 51.8373 20.319 50.6451 19.7379 48.8507L5.96132 6.28328C5.65799 5.34773 5.89355 4.32107 6.57243 3.61108L9.35907 0.697771C9.67574 0.366662 10.1235 0.19333 10.5802 0.225552L33.3011 1.82665C29.5945 12.0388 26.7867 29.2098 35.8044 51.3796Z" fill="#5B86E5"/>
<path d="M39.9567 47.4429C38.6211 47.4429 28.6652 47.4429 27.4668 47.4429C27.4668 47.4429 24.4246 47.644 23.2757 45.1863C22.1279 42.7296 10.7858 5.98438 10.7858 5.98438C10.7858 5.98438 9.52358 2.43774 12.988 2.43774L16.588 2.59996C16.588 2.59996 16.9369 4.21106 18.0646 4.82883C19.1935 5.44661 29.2123 5.63438 29.2123 5.63438C29.2123 5.63438 31.0656 5.63438 30.9578 3.96884C32.871 4.06106 32.1702 4.02706 34.0134 4.11662C34.0134 4.11662 35.5645 4.33217 36.29 5.03661C37.0156 5.74216 37.5589 8.86436 37.5589 8.86436L44.0122 43.8041C44.0122 43.8041 45.1133 47.4429 39.9567 47.4429Z" fill="#36D1DC"/>
<path d="M34.3067 47.4429C30.6556 47.4429 27.4668 47.4429 27.4668 47.4429C27.4668 47.4429 24.4246 47.644 23.2757 45.1863C22.1279 42.7296 10.7858 5.98438 10.7858 5.98438C10.7858 5.98438 9.52358 2.43774 12.988 2.43774L16.588 2.59996C16.588 2.59996 16.9369 4.21106 18.0646 4.82883C19.1935 5.44661 29.2123 5.63438 29.2123 5.63438C29.2123 5.63438 31.0656 5.63438 30.9578 3.96884L32.5489 4.04551C29.4745 13.7688 27.6556 28.6664 34.3067 47.4429Z" fill="#31C9D3"/>
<path d="M30.701 17.1683H35.6302L34.483 12.2692H29.5063L30.701 17.1683Z" fill="#E9E9FD"/>
<path d="M18.0992 17.1683H23.0283L21.7597 12.2692H16.7832L18.0992 17.1683Z" fill="#E9E9FD"/>
<path d="M21.3404 29.235H26.1526L24.9438 24.5666H20.0864L21.3404 29.235Z" fill="#E9E9FD"/>
<path d="M33.6433 29.235H38.4555L37.3624 24.5666H32.5049L33.6433 29.235Z" fill="#E9E9FD"/>
<path d="M34.5575 32.8893L26.9413 32.436C25.2647 32.3362 23.9869 33.9143 24.4333 35.5334L26.5399 43.176C26.8329 44.239 27.7997 44.9753 28.9024 44.9753H36.2251C37.8214 44.9753 38.9915 43.4734 38.6012 41.9255L36.7882 34.7363C36.5267 33.7001 35.6242 32.9527 34.5575 32.8893Z" fill="#D3D3E3"/>
<path d="M32.2419 42.1624L27.1115 38.9851C26.2826 38.4718 26.0268 37.3838 26.5401 36.5549C27.0535 35.726 28.1416 35.4703 28.9703 35.9836L32.3907 38.1018L36.9677 27.9685C37.3689 27.0801 38.4145 26.6852 39.3031 27.0864C40.1917 27.4878 40.5866 28.5333 40.1853 29.4219L34.7802 41.3883C34.3394 42.3636 33.1439 42.7211 32.2419 42.1624Z" fill="#E9E9FD"/>
<path d="M46.219 45.0797C44.9443 39.0032 38.7433 5.57386 38.6792 5.22897C38.6718 5.19597 37.9032 1.928 34.5588 1.69234L10.5956 0.00435004C10.0715 -0.0323163 9.56242 0.164126 9.19898 0.543901L6.41223 3.45732C5.67512 4.22787 5.42124 5.33686 5.74957 6.35141L19.5268 48.9192C20.1196 50.7505 21.8481 51.9997 23.763 51.9996C23.8777 51.9996 22.6362 52.0395 41.3355 51.4187C41.446 51.4145 44.058 51.2929 45.4941 49.453C46.353 48.3525 46.5969 46.8811 46.219 45.0797ZM45.1456 49.1773C43.8388 50.8544 41.3433 50.9736 41.3196 50.9745L23.8945 51.5529C22.1177 51.6107 20.4968 50.4725 19.9497 48.7823L6.17245 6.21452C5.89457 5.35564 6.10945 4.41687 6.73345 3.76454L9.5202 0.851121C9.78764 0.571567 10.1664 0.41968 10.5644 0.44768L34.5275 2.13567C37.5372 2.34766 38.2181 5.20464 38.244 5.31797C38.3065 5.65497 44.5085 39.0895 45.7841 45.171C46.1336 46.8371 45.9187 48.1849 45.1456 49.1773Z" fill="#252631"/>
<path d="M37.7781 8.82662C37.7212 8.49974 37.1999 5.61187 36.4448 4.87777C35.6763 4.13044 34.1103 3.90622 34.0441 3.897C34.0274 3.89467 34.2218 3.90478 30.969 3.74745C30.8394 3.74 30.7278 3.84956 30.7366 3.98367C30.7621 4.38033 30.664 4.70044 30.4449 4.9351C30.0073 5.40388 29.2197 5.41254 29.2165 5.41254C25.211 5.33732 18.9644 5.06799 18.1719 4.63399C17.1481 4.07333 16.8082 2.56734 16.8049 2.55223C16.7835 2.45379 16.6985 2.38201 16.5977 2.37746L12.9885 2.21613C11.9392 2.21613 11.1866 2.52868 10.7518 3.14501C9.95518 4.27433 10.5508 5.98609 10.5736 6.04943C11.0368 7.55041 21.9331 42.8374 23.0747 45.281C24.1211 47.5204 26.6731 47.6684 27.3267 47.6684C27.5185 47.6684 25.5237 47.6655 39.9564 47.6655C41.8255 47.6655 43.1208 47.1971 43.8066 46.2731C44.6056 45.1965 44.272 43.9047 44.2288 43.7523L37.7781 8.82662ZM43.4498 46.0081C42.8525 46.8129 41.6771 47.221 39.9565 47.221H27.4664C25.7723 47.221 24.1879 46.6136 23.4775 45.0929C22.3486 42.6769 11.1116 6.28565 10.9953 5.90943C10.9897 5.89387 10.4496 4.34444 11.1149 3.40134C11.4617 2.9099 12.0919 2.66068 12.9785 2.66046L16.4136 2.81423C16.5403 3.26256 16.9655 4.48011 17.9584 5.02388C19.1015 5.64987 28.177 5.83765 29.2122 5.85698C29.2521 5.85698 30.1963 5.84998 30.7676 5.24077C31.0253 4.96588 31.1644 4.61755 31.1829 4.20278L33.9921 4.33855C34.1179 4.35744 35.4987 4.57766 36.1351 5.19643C36.6873 5.73332 37.1923 8.05396 37.3406 8.90507C43.9929 44.9214 43.794 43.849 43.7997 43.8679C43.8033 43.8798 44.1502 45.0642 43.4498 46.0081Z" fill="#5B86E5"/>
<path d="M30.4853 17.221C30.5095 17.3205 30.5987 17.3905 30.7011 17.3905H35.6303C35.7734 17.3905 35.8793 17.257 35.8467 17.1176L34.6994 12.2186C34.6759 12.1181 34.5862 12.047 34.4831 12.047H29.5065C29.3627 12.047 29.2565 12.1819 29.2906 12.3219L30.4853 17.221ZM34.3069 12.4914L35.35 16.9461H30.8756L29.7894 12.4914H34.3069Z" fill="#252631"/>
<path d="M23.2434 17.1126L21.9749 12.2136C21.9494 12.1154 21.8611 12.047 21.7598 12.047H16.7831C16.637 12.047 16.5307 12.1858 16.5685 12.3269L17.8845 17.226C17.9106 17.3231 17.9986 17.3905 18.0991 17.3905H23.0283C23.1735 17.3905 23.2799 17.2533 23.2434 17.1126ZM18.2696 16.9461L17.0729 12.4914H21.5878L22.7412 16.9461H18.2696Z" fill="#252631"/>
<path d="M26.3679 29.1793L25.1591 24.5109C25.1337 24.4128 25.0453 24.3444 24.944 24.3444H20.0866C19.9405 24.3444 19.8342 24.4831 19.8719 24.6242L21.1259 29.2926C21.152 29.3898 21.24 29.4572 21.3406 29.4572H26.1528C26.2979 29.4572 26.4043 29.3199 26.3679 29.1793ZM21.5109 29.0128L20.3763 24.7888H24.7719L25.8656 29.0128H21.5109Z" fill="#252631"/>
<path d="M25.4179 20.3297C25.4485 20.4493 25.5701 20.5204 25.6882 20.49C25.8071 20.4597 25.8789 20.3387 25.8486 20.2197L24.5036 14.9526H26.189L26.652 16.7958C26.6769 16.8946 26.7657 16.964 26.8676 16.964H29.3049C29.4275 16.964 29.5271 16.8644 29.5271 16.7417C29.5271 16.6191 29.4275 16.5195 29.3049 16.5195H27.0409L26.6473 14.9526H28.5073C28.6515 14.9526 28.7575 14.8173 28.7231 14.6772L28.231 12.6845C28.2015 12.5654 28.0812 12.4927 27.962 12.5221C27.8429 12.5516 27.7701 12.672 27.7995 12.7911L28.2237 14.5083H24.3904L23.9242 12.6829C23.8939 12.564 23.7728 12.4921 23.6539 12.5226C23.535 12.5529 23.4632 12.6739 23.4936 12.7929L24.9731 18.5865H18.5398C18.4172 18.5865 18.3176 18.6861 18.3176 18.8087C18.3176 18.9314 18.4172 19.0309 18.5398 19.0309H25.0861L25.4179 20.3297Z" fill="#252631"/>
<path d="M33.4288 18.7132L34.1868 21.8879H32.0807L31.2811 18.609C31.2569 18.5094 31.1677 18.4394 31.0652 18.4394H27.3497C27.2049 18.4394 27.099 18.5757 27.1341 18.7158L29.0724 26.4324H27.1149C26.97 26.4324 26.8637 26.5692 26.8996 26.7096L27.5594 29.29C27.585 29.3905 27.6754 29.4572 27.7745 29.4572C27.9195 29.4572 28.0259 29.3206 27.9899 29.1799L27.4011 26.8767H29.3572C29.502 26.8767 29.6079 26.7405 29.5728 26.6004L28.1718 21.0226H29.8322L30.6563 24.3595C30.6813 24.4607 30.7721 24.5285 30.8719 24.5285C31.0162 24.5285 31.1223 24.3929 31.0878 24.2529L30.222 20.7472C30.1975 20.648 30.1085 20.5782 30.0062 20.5782H28.0601L27.6346 18.8838H30.8907L31.6902 22.1626C31.7144 22.2622 31.8037 22.3322 31.9061 22.3322H34.4682C34.6114 22.3322 34.7178 22.1982 34.6843 22.0584L33.9263 18.8838H35.8036L36.8963 23.55C36.9242 23.6695 37.0442 23.7435 37.1633 23.7156C37.2827 23.6876 37.3569 23.5681 37.3289 23.4486L36.1962 18.6109C36.1726 18.5104 36.083 18.4393 35.9799 18.4393H33.6449C33.5016 18.4393 33.3953 18.5733 33.4288 18.7132Z" fill="#252631"/>
<path d="M24.3764 22.8366L23.8333 20.7446C23.8078 20.6466 23.7194 20.5783 23.6182 20.5783H21.9464C21.8238 20.5783 21.7242 20.6779 21.7242 20.8005C21.7242 20.9232 21.8238 21.0227 21.9464 21.0227H23.4462L23.874 22.6703H19.6368C19.5141 22.6703 19.4146 22.7698 19.4146 22.8925C19.4146 23.0152 19.5141 23.1147 19.6368 23.1147H24.1613C24.3065 23.1147 24.4128 22.9773 24.3764 22.8366Z" fill="#252631"/>
<path d="M38.1058 26.7669L37.5785 24.5158C37.5549 24.4152 37.4653 24.3442 37.3622 24.3442H32.5055C32.3618 24.3442 32.2555 24.479 32.2897 24.6191L32.5577 25.7188H31.2758C31.1316 25.7188 31.0256 25.8541 31.06 25.9942L31.8736 29.2882C31.8986 29.3894 31.9893 29.4572 32.0891 29.4572C32.2334 29.4572 32.3395 29.3216 32.305 29.1816L31.5596 26.1631H32.6659L33.4274 29.2879C33.4518 29.3874 33.5409 29.4574 33.6433 29.4574H36.0511L34.6 32.6701C34.5232 32.6646 27.1376 32.2254 26.9545 32.2145C25.1236 32.1054 23.7314 33.824 24.2192 35.592L26.3258 43.2352C26.6437 44.3905 27.7031 45.1973 28.9022 45.1973H36.2244C37.9648 45.1973 39.2423 43.5607 38.8166 41.8708L37.3796 36.1724L40.3875 29.5132C41.0679 28.007 39.7089 26.374 38.1058 26.7669ZM33.818 29.0131L32.7884 24.7887H37.1861L37.6854 26.9203C37.2915 27.1175 36.9601 27.4453 36.7651 27.8771L36.252 29.0132H33.818V29.0131ZM38.3856 41.9795C38.74 43.3863 37.6777 44.753 36.2244 44.753H28.9022C27.9025 44.753 27.0193 44.0804 26.7543 43.1173L24.6476 35.4739C24.2412 34.0008 25.4014 32.5666 26.928 32.6582L34.4044 33.1032L32.2922 37.7795L29.0872 35.7946C28.1537 35.2163 26.9295 35.5037 26.3512 36.4378C25.7728 37.3716 26.0604 38.5954 26.9944 39.1739L32.1248 42.3512C33.1444 42.9827 34.4886 42.5729 34.9825 41.4796L37.0856 36.8237L38.3856 41.9795ZM39.9825 29.3304L34.5774 41.2968C34.1938 42.146 33.1498 42.4635 32.3588 41.9734L27.2284 38.7961C26.0703 38.0789 26.345 36.2978 27.6877 35.9821C28.0929 35.8869 28.5062 35.9575 28.8531 36.1725L32.2734 38.2907C32.3871 38.361 32.5377 38.3159 32.593 38.1932C33.2658 36.7037 36.6118 29.2958 37.1701 28.06C37.5202 27.2847 38.4359 26.9389 39.2115 27.289C39.9868 27.6392 40.3327 28.555 39.9825 29.3304Z" fill="#252631"/>
</g>
<defs>
<clipPath id="clip0_714_1361">
<rect width="52" height="52" fill="white"/>
</clipPath>
</defs>
</svg>
