<svg width="52" height="52" viewBox="0 0 52 52" fill="none" xmlns="http://www.w3.org/2000/svg">
<path d="M48.6778 10.0253C48.023 10.7192 24.3252 35.8313 15.543 45.1368L2.2017 35.4478C1.68614 35.0089 1.37392 34.3757 1.34169 33.6989L0.225014 10.4831C0.160458 9.12656 1.20214 7.99166 2.54059 7.92088C34.9232 6.2113 33.0036 6.27675 33.4509 6.36419L48.6778 10.0253Z" fill="#36D1DC"/>
<path d="M24.1864 21.3432L20.653 39.7222L15.5429 45.1367L2.20169 35.4477C1.68613 35.0088 1.3739 34.3756 1.34168 33.6988L0.224999 10.4831C0.203888 10.0398 0.301667 9.61755 0.490558 9.24866L14.0596 14.2322L24.1864 21.3432Z" fill="#32BBC4"/>
<path d="M50.6746 12.5223L49.7465 37.5822C49.7043 38.7236 48.8783 39.684 47.756 39.8967L17.5209 45.6254C16.0734 45.8997 14.7134 44.8424 14.6221 43.372L12.8588 14.9651C12.7757 13.6255 13.7867 12.4689 15.1254 12.372L48.0518 9.99016C49.5056 9.88505 50.7285 11.0657 50.6746 12.5223Z" fill="#E9E9FD"/>
<path d="M47.7373 15.327L46.9791 35.7973C46.9369 36.9387 46.1109 37.8991 44.9887 38.1118L20.1363 42.8206C18.6887 43.0948 17.3287 42.0376 17.2375 40.5673L15.796 17.3449C15.7129 16.0053 16.7239 14.8486 18.0626 14.7518L45.1147 12.7948C46.5683 12.6897 47.7913 13.8704 47.7373 15.327Z" fill="#36D1DC"/>
<path d="M50.9934 36.56C49.7979 37.1511 48.6045 36.0678 45.76 32.4456C45.32 31.8856 44.84 31.2633 44.3145 30.5777C40.4045 25.4808 44.0886 24.4181 46.1656 27.0321C47.6707 28.9311 50.2423 32.3091 51.2134 33.599C51.5268 34.0133 51.7301 34.5034 51.7701 35.0201C51.8134 35.5768 51.6845 36.219 50.9934 36.56Z" fill="#5B86E5"/>
<path d="M49.0645 30.7721C48.2389 31.4466 47.1189 32.1366 45.76 32.4456C45.32 31.8856 44.84 31.2632 44.3144 30.5777C42.9677 28.8221 42.5211 27.5476 42.5988 26.7354L45.2322 26.1565C45.5589 26.3776 45.8778 26.6698 46.1655 27.0321C47.0278 28.1198 48.1045 29.5155 49.0645 30.7721Z" fill="#7777FA"/>
<path d="M47.9422 20.0076C46.8488 22.0577 45.8266 22.9843 45.0388 23.1921C44.4599 23.3466 44.0066 23.1121 43.7444 22.6499C43.7432 22.6488 43.7432 22.6488 43.7432 22.6488C43.7432 22.6182 43.3727 22.1333 43.5255 21.0786C43.5855 20.6676 43.7232 20.2276 43.9488 19.7876C45.0137 17.7142 46.7709 14.4427 47.84 12.4763C48.0877 12.0198 48.45 11.6319 48.9044 11.3809C49.3933 11.112 50.0311 10.9642 50.6266 11.452C51.8558 12.4589 50.8762 14.5068 47.9422 20.0076Z" fill="#5B86E5"/>
<path d="M49.0077 17.991C48.6888 18.6044 48.3332 19.2744 47.9421 20.0076C46.8488 22.0576 45.8265 22.9843 45.0387 23.1921C44.3693 22.9599 43.7295 22.6488 43.7432 22.6488C43.7432 22.6376 43.7463 22.6696 43.5254 21.0786C43.5854 20.6676 43.7232 20.2276 43.9487 19.7876C44.6187 18.4832 45.5021 16.8186 46.281 15.3665C47.3277 15.9109 48.3577 16.7377 49.0077 17.991Z" fill="#7777FA"/>
<path d="M48.9244 24.6421C48.9244 26.6688 47.9822 27.9021 46.7422 28.6455C44.3499 30.081 40.8466 29.701 40.8466 29.701C34.5643 24.8053 40.8466 18.4409 40.8466 18.4409C41.9221 18.3741 43.7299 18.4265 45.3622 19.0875C47.2611 19.8565 48.9244 21.4511 48.9244 24.6421Z" fill="#5B86E5"/>
<path d="M48.9243 24.642C48.9243 26.6687 47.9821 27.9021 46.7421 28.6454L44.7632 27.8243C39.8064 25.3765 43.4898 20.3586 43.4898 20.3586C43.4898 20.3586 44.1732 19.5153 45.3621 19.0875C47.261 19.8564 48.9243 21.451 48.9243 24.642Z" fill="#5B86E5"/>
<path d="M39.891 22.967C39.4359 22.7181 38.9138 22.6208 38.3962 22.6564C36.9827 22.754 32.8427 23.0454 30.1378 23.2959C26.8332 23.6019 25.6704 27.2737 32.096 26.784C38.5216 26.2945 40.5718 25.9885 40.7553 24.4586C40.8471 23.6937 40.3805 23.2346 39.891 22.967Z" fill="#5B86E5"/>
<path d="M19.7529 28.967V31.9861C19.7529 31.9861 23.8054 32.6796 28.6196 30.4766L28.3736 27.8245C28.3736 27.8244 22.4728 29.3343 19.7529 28.967Z" fill="#7D7CFA"/>
<path d="M15.1412 12.5937L41.1269 10.7136C41.2494 10.7047 41.3414 10.5982 41.3326 10.4758C41.3238 10.3533 41.2182 10.2624 41.0948 10.2701L15.1092 12.1502C13.6554 12.2552 12.5463 13.5243 12.6368 14.979L14.14 39.1964C14.1477 39.3212 14.2564 39.4128 14.3755 39.4044C14.4981 39.3969 14.5911 39.2913 14.5836 39.1689L13.0803 14.9515C13.0049 13.7389 13.9294 12.6811 15.1412 12.5937Z" fill="#252631"/>
<path d="M51.9916 35.0029C51.9497 34.4612 51.742 33.9294 51.3907 33.465C51.1244 33.1122 50.6958 32.5459 50.1806 31.8681L50.8149 14.7421C51.5734 12.879 51.5595 11.9283 50.7675 11.2801C50.7007 11.2254 50.6322 11.1772 50.5622 11.1345C50.1782 10.4483 49.4997 9.95529 48.7311 9.80918C48.7191 9.80585 46.7183 9.32562 33.4934 6.14592C32.9874 6.04725 34.8439 5.99281 2.52876 7.69883C1.06497 7.77627 -0.0680407 9.03017 0.00318225 10.4936L1.11986 33.7092C1.15486 34.4439 1.49675 35.1392 2.05787 35.6168C2.06698 35.6248 15.397 45.3053 15.4067 45.3121C15.9115 45.7029 16.4751 45.8908 17.0643 45.8908C17.4538 45.8908 15.494 46.2358 47.797 40.1149C49.0295 39.8807 49.9225 38.8426 49.9688 37.5903L49.9945 36.8912C50.3574 36.9823 50.7113 36.947 51.0918 36.7592C51.7448 36.4369 52.0561 35.8296 51.9916 35.0029ZM49.7564 31.3109C49.0619 30.3996 48.2624 29.3563 47.5028 28.378C48.5927 27.4767 49.1467 26.2212 49.1467 24.642C49.1467 23.0031 48.7139 21.6471 47.8627 20.607C48.256 19.9236 49.6795 17.2285 50.3296 15.8412L49.7564 31.3109ZM44.3515 18.5284C42.91 18.1617 41.5378 18.1756 40.833 18.2192C40.7784 18.2225 40.7269 18.2459 40.6884 18.2848C40.6159 18.3584 38.9368 20.0794 38.1855 22.4482C36.4771 22.5665 32.6778 22.8374 30.1171 23.0747C28.4409 23.2298 27.152 24.2418 27.2439 25.3306C27.2803 25.7616 27.667 27.0525 30.9574 27.0525C31.3083 27.0525 31.6927 27.0377 32.1129 27.0057C34.7962 26.8013 36.7356 26.6291 38.1043 26.3784C38.5144 27.6719 39.3893 28.8482 40.7101 29.8765C40.7426 29.9018 40.7816 29.9176 40.8226 29.9221C41.4553 29.9906 42.527 29.9952 43.5362 29.8728C44.1241 30.7584 46.1396 33.3001 46.8191 34.117L46.7567 35.7897C46.7181 36.8336 45.9741 37.6989 44.9475 37.894L20.0951 42.6019C18.7759 42.851 17.5418 41.8873 17.4591 40.5531L16.018 17.3317C15.9426 16.119 16.8671 15.0612 18.079 14.9738L45.1303 13.0171C45.8028 12.9682 46.4591 13.2287 46.9157 13.7171C46.2145 15.0162 45.205 16.897 44.3515 18.5284ZM38.2207 25.9045C38.2077 25.9067 38.2089 25.9052 38.1964 25.9092C36.8971 26.1594 34.9464 26.3439 32.0791 26.5625C28.9368 26.8016 27.7488 26.0282 27.6869 25.2931C27.6256 24.567 28.6255 23.659 30.1582 23.5171C32.5254 23.2979 36.9444 22.9734 38.4114 22.878C38.8944 22.8447 39.372 22.9363 39.7842 23.1619C40.3464 23.4694 40.5988 23.8967 40.5346 24.4321C40.4469 25.1633 39.8535 25.5868 38.2207 25.9045ZM43.6162 29.4152C42.3195 29.5873 41.202 29.5092 40.9324 29.4858C39.7287 28.5363 38.9258 27.4626 38.5423 26.2909C40.1848 25.9341 40.8641 25.4179 40.976 24.4849C41.0627 23.7618 40.7244 23.1693 39.9976 22.7718C39.5978 22.553 39.1392 22.4371 38.6596 22.4286C39.3228 20.4772 40.6548 18.9725 40.9474 18.6577C43.2314 18.5357 45.9263 19.0456 47.4259 20.7759C48.2729 21.7482 48.7024 23.049 48.7024 24.6421C48.7024 27.6241 46.5607 29.0265 43.6162 29.4152ZM47.7465 19.9026C47.6815 20.024 47.6162 20.1418 47.551 20.2573C46.8485 19.5373 45.9222 18.9974 44.7894 18.6498C46.0289 16.2835 47.578 13.4243 48.0352 12.5823C48.2724 12.1455 48.61 11.7974 49.0115 11.5755C49.5735 11.2663 50.0694 11.2826 50.4859 11.6239C51.5098 12.4619 50.8225 14.1413 47.7465 19.9026ZM49.5246 37.5739C49.486 38.6177 48.7415 39.4831 47.7142 39.6783L17.4795 45.4073C16.8606 45.5246 16.2004 45.3788 15.6683 44.9531C15.6563 44.9446 13.1418 43.1183 2.33954 35.2731C1.87542 34.875 1.59275 34.2979 1.56387 33.6881L0.447187 10.4722C0.387742 9.25229 1.3322 8.20716 2.55243 8.14261C34.9311 6.43337 32.9986 6.5027 33.399 6.58015C33.4235 6.58604 48.665 10.251 48.6237 10.2405C48.6283 10.2416 48.6328 10.2429 48.6375 10.2437C49.1027 10.3297 49.5289 10.5687 49.8516 10.9112C49.161 10.8749 48.1993 11.3486 47.6448 12.3703C47.5336 12.5752 47.3571 12.9005 47.1368 13.308C46.5961 12.7903 45.8564 12.5198 45.0986 12.5735L18.0473 14.5302C16.5934 14.6352 15.4842 15.9042 15.5747 17.359L17.0158 40.5804C17.103 41.9863 18.2687 43.0851 19.6807 43.0851C20.0484 43.0851 18.4714 43.3617 45.0304 38.3305C46.2621 38.0964 47.1547 37.0583 47.201 35.8059L47.2452 34.62C48.197 35.7227 48.9243 36.4041 49.5557 36.723L49.5246 37.5739ZM50.8951 36.3607C50.5786 36.5169 50.2575 36.5357 49.882 36.3835C49.8749 36.3799 49.8674 36.3772 49.8598 36.3746C48.8295 35.9403 47.3835 34.2154 44.4908 30.4422C44.3248 30.2263 44.1698 30.0126 44.0258 29.8034C45.2861 29.5983 46.3355 29.2105 47.1496 28.6478C48.6766 30.6142 50.3671 32.8466 51.0362 33.7329C51.3361 34.1294 51.5133 34.5804 51.5485 35.0372C51.5984 35.6768 51.3786 36.1221 50.8951 36.3607Z" fill="#252631"/>
<path d="M44.862 27.625C43.5628 26.9834 42.7679 26.1024 42.4998 25.0067C41.9701 22.8432 43.652 20.5129 43.669 20.4897C43.7415 20.3907 43.72 20.2516 43.6211 20.1791C43.5218 20.1066 43.3831 20.128 43.3106 20.2268C43.2359 20.3285 41.4896 22.7439 42.0674 25.1103C42.3678 26.3405 43.2418 27.3208 44.6651 28.0235C44.776 28.0782 44.9088 28.0319 44.9628 27.9228C45.0172 27.8126 44.972 27.6792 44.862 27.625Z" fill="#252631"/>
<path d="M20.6162 34.1637C20.8107 34.1581 25.4144 34.0121 28.5473 32.8151C28.662 32.7712 28.7194 32.6428 28.6756 32.5282C28.6317 32.4136 28.5035 32.3562 28.3887 32.3999C25.327 33.5696 20.6502 33.7181 20.6035 33.7195C20.4808 33.7231 20.3841 33.8254 20.3878 33.9481C20.3915 34.0756 20.5011 34.1695 20.6162 34.1637Z" fill="#252631"/>
<path d="M20.7666 36.7658C20.9611 36.7601 25.5648 36.6142 28.6977 35.4172C28.8124 35.3733 28.8698 35.245 28.8259 35.1303C28.7821 35.0158 28.6539 34.9586 28.5391 35.0021C25.4774 36.1718 20.8006 36.3201 20.7539 36.3216C20.6312 36.3251 20.5345 36.4274 20.5382 36.5501C20.5417 36.6777 20.6515 36.7716 20.7666 36.7658Z" fill="#252631"/>
<path d="M28.7092 37.6415C25.6475 38.8112 20.9708 38.9595 20.924 38.961C20.8014 38.9645 20.7047 39.0669 20.7084 39.1895C20.712 39.3172 20.8218 39.411 20.9369 39.4052C21.1314 39.3995 25.7351 39.2536 28.868 38.0566C28.9827 38.0127 29.0401 37.8844 28.9962 37.7697C28.9524 37.6552 28.8242 37.5977 28.7092 37.6415Z" fill="#252631"/>
<path d="M19.7828 28.7467C19.6454 28.7296 19.5308 28.8352 19.5308 28.9669V31.9859C19.5308 32.0943 19.6088 32.1867 19.7155 32.205C19.7793 32.2159 20.3959 32.3165 21.3999 32.3165C23.0419 32.3165 25.7204 32.0476 28.7121 30.6785C28.798 30.6391 28.8496 30.5499 28.8409 30.4559L28.5947 27.8038C28.5822 27.6679 28.4512 27.5753 28.3184 27.609C28.2597 27.6239 22.428 29.1048 19.7828 28.7467ZM28.3837 30.3392C24.3248 32.1535 20.8058 31.8888 19.9752 31.7916V29.2152C22.4829 29.4431 27.0426 28.3799 28.1762 28.1023L28.3837 30.3392Z" fill="#5B86E5"/>
</svg>
