<svg width="52" height="52" viewBox="0 0 52 52" fill="none" xmlns="http://www.w3.org/2000/svg">
<path d="M46.3908 27.8995L43.8772 47.8506C43.58 50.2127 41.4882 51.9322 39.1115 51.765L9.74674 49.7002C7.14352 49.5174 5.24572 47.1597 5.62148 44.5779L8.36713 25.7282C8.52868 24.6133 9.11821 23.5626 10.0462 22.8388L26.5608 9.94586C28.4103 8.50237 31.0596 8.72669 32.6387 10.4618L45.2568 24.3182C46.1805 25.3308 46.5473 26.6606 46.3908 27.8995Z" fill="#5B86E5"/>
<path d="M46.3913 27.8995L43.877 47.8509C43.5803 50.213 41.4882 51.9318 39.1116 51.7651C38.728 51.7377 9.75873 49.7006 9.74629 49.6997C7.13841 49.5158 5.24705 47.1551 5.62092 44.5777L8.36746 25.7285C8.44524 25.1863 8.62301 24.6697 8.88411 24.1997C9.81818 25.1194 19.8146 34.9636 22.2435 37.3558C23.8679 38.9557 26.43 39.0824 28.2032 37.6569C28.2158 37.6459 27.7286 38.0441 40.7949 27.3718C41.687 26.6446 42.1468 26.1973 43.0537 25.8896H43.0548C43.6681 25.6774 44.3259 25.6008 44.9847 25.6708C46.1793 25.7972 46.1413 25.7895 46.1524 25.7952C46.3958 26.4607 46.4813 27.1807 46.3913 27.8995Z" fill="#36D1DC"/>
<path d="M40.795 27.3718C37.9718 29.6778 30.8204 35.5188 28.23 37.6347C26.4556 39.0835 23.8757 38.9635 22.2436 37.3558C13.8996 29.139 14.0073 29.2551 14.0073 29.2439C12.7518 15.7712 15.2583 6.04052 15.2583 6.04052C26.2423 -2.32244 37.0418 0.241892 41.8838 2.12292C43.5682 2.77733 44.5315 3.34842 44.5315 3.34842C40.9594 13.9424 40.6861 23.1831 40.795 27.3718Z" fill="#E9E9FD"/>
<path d="M37.4447 51.6473C37.4335 51.6473 37.8013 51.6724 9.74663 49.7001C9.1651 49.6588 8.67912 49.5211 8.19092 49.3043C21.1977 34.9528 20.3781 35.8495 20.5477 35.6858C22.5464 33.7544 25.8461 34.0886 27.4029 36.4451C28.5531 38.1872 26.6793 35.3503 37.4447 51.6473Z" fill="#36D1DC"/>
<path d="M46.3912 27.8995L43.8768 47.8508C43.5802 50.2129 41.4881 51.9318 39.1115 51.7651L38.8015 51.7429C43.1327 25.4086 43.0434 25.8896 43.0547 25.8896C43.668 25.6774 44.3257 25.6007 44.9846 25.6707C46.1792 25.7972 46.1412 25.7895 46.1523 25.7952C46.3956 26.4607 46.4812 27.1806 46.3912 27.8995Z" fill="#36D1DC"/>
<path d="M40.7947 27.3718L38.957 28.8728L38.6659 26.6663C37.7771 17.4445 40.9903 4.66726 40.9903 4.66726L41.8836 2.12292C43.5679 2.77734 44.5312 3.34843 44.5312 3.34843C40.9592 13.9424 40.6858 23.1831 40.7947 27.3718Z" fill="#D3D3E3"/>
<path d="M45.4211 24.169L41.2999 19.6427C41.7246 15.1269 42.6897 9.50453 44.7417 3.41958C44.7752 3.32025 44.7347 3.21103 44.6445 3.15748C44.6079 3.13592 40.9255 0.98091 35.4762 0.247276C28.516 -0.689238 21.5079 1.0028 15.1235 5.86369C15.0838 5.8938 15.0555 5.93658 15.0429 5.98502C15.0242 6.0579 13.6386 11.5545 13.4562 19.895L9.90961 22.6634C8.93487 23.4231 8.31501 24.5292 8.14746 25.6965L5.40092 44.5456C5.01571 47.1946 6.9373 49.7257 9.73061 49.9213C41.0774 52.1262 39.1702 51.9985 39.4294 51.9985C41.7824 51.9984 43.8002 50.2459 44.0975 47.8786L46.6118 27.927C46.7784 26.5949 46.371 25.2094 45.4211 24.169ZM45.0927 24.4684C45.3845 24.7881 45.6216 25.1455 45.8017 25.5337L45.0081 25.4497C43.8043 25.3219 42.5355 25.6636 41.5322 26.4841L41.0073 26.9119C40.9773 25.2102 41.0154 22.9385 41.2459 20.2434L45.0927 24.4684ZM15.4551 6.1699C23.0146 0.443378 30.4696 0.0252859 35.3986 0.685256C40.1376 1.32001 43.5139 3.04415 44.2618 3.45235C40.8113 13.7731 40.462 22.7533 40.5702 27.2682L28.253 37.3288L27.5883 36.3224C26.0048 33.9255 22.6795 33.5058 20.5532 35.3794L14.2216 29.1445C13.0572 16.5195 15.2307 7.09519 15.4551 6.1699ZM10.1828 23.0137L13.4456 20.4669C13.4081 22.9764 13.4813 25.7302 13.7324 28.6618L9.16308 24.1626C9.43196 23.719 9.77383 23.3327 10.1828 23.0137ZM5.84068 44.6096L8.58722 25.76C8.64633 25.348 8.76699 24.9496 8.94454 24.5711C12.2527 27.8284 16.9255 32.4306 20.2334 35.688C20.1541 35.772 18.426 37.68 8.13657 49.0333C6.59198 48.254 5.56191 46.5264 5.84068 44.6096ZM9.76161 49.478C9.34541 49.4488 8.94465 49.3607 8.56656 49.2205L20.5161 36.0357C22.4434 33.9389 25.7248 34.3081 27.2174 36.5674L37.0115 51.3948L9.76161 49.478ZM46.1708 27.8717L43.6564 47.8231C43.3744 50.0676 41.3854 51.7003 39.1271 51.5434L37.5701 51.4339L28.4992 37.7014C42.3334 26.4018 40.1201 28.2081 41.8131 26.8282C42.7034 26.1005 43.8479 25.7728 44.9611 25.8916L45.9864 26.0001C46.1843 26.6006 46.2492 27.2444 46.1708 27.8717Z" fill="#252631"/>
<path d="M42.2032 31.0614C42.0822 31.0417 41.9677 31.1235 41.9478 31.2446L39.5943 45.5552C39.5722 45.69 39.6761 45.8134 39.8138 45.8134C39.9207 45.8134 40.015 45.7362 40.0329 45.6272L42.3865 31.3166C42.4063 31.1956 42.3243 31.0814 42.2032 31.0614Z" fill="#252631"/>
<path d="M38.6657 26.8884C38.7977 26.8884 38.8996 26.7747 38.8872 26.6449C38.0122 17.5679 41.1738 4.84879 41.2058 4.72135C41.2358 4.60246 41.1635 4.48169 41.0445 4.45169C40.926 4.42147 40.805 4.4938 40.7748 4.61291C40.7426 4.74113 37.5624 17.5333 38.4446 26.6875C38.4558 26.8025 38.5525 26.8884 38.6657 26.8884Z" fill="#252631"/>
<path d="M16.1625 23.9852C16.0444 24.0184 15.9754 24.141 16.0086 24.2593C16.0418 24.3774 16.1645 24.4464 16.2827 24.4131C16.3658 24.3896 24.7437 22.0987 35.7029 24.4166C35.8235 24.4419 35.9409 24.3651 35.9664 24.2451C35.9918 24.125 35.9149 24.007 35.7949 23.9817C24.7304 21.642 16.2469 23.9616 16.1625 23.9852Z" fill="#252631"/>
<path d="M16.2222 28.4439C16.3095 28.4439 25.3914 26.5436 35.7087 28.4402C35.8292 28.4625 35.9452 28.3824 35.9673 28.2619C35.9896 28.1412 35.9097 28.0253 35.789 28.0032C25.5039 26.1123 16.2693 27.9851 16.1772 28.0042C16.0571 28.0292 15.98 28.1468 16.0049 28.267C16.0267 28.3719 16.1191 28.4439 16.2222 28.4439Z" fill="#252631"/>
<path d="M20.7225 8.5003C20.7573 8.5003 20.7927 8.49219 20.8257 8.47486C20.8898 8.44097 27.318 5.12934 34.9996 7.10458C35.1191 7.13458 35.2397 7.06336 35.2703 6.9447C35.3007 6.82582 35.2292 6.70471 35.1104 6.67405C27.2651 4.65747 20.6845 8.04687 20.6189 8.08143C20.414 8.1892 20.4912 8.5003 20.7225 8.5003Z" fill="#252631"/>
<path d="M16.5143 15.8778C16.6401 15.8365 29.1888 11.7815 37.1278 15.4794C37.2389 15.5307 37.3712 15.4829 37.4232 15.3718C37.4749 15.2604 37.4267 15.1283 37.3155 15.0764C33.0768 13.1023 27.6053 13.3118 23.7618 13.8356C19.6093 14.4012 16.4073 15.4452 16.3754 15.4557C16.2589 15.4941 16.1954 15.6197 16.2339 15.7362C16.2719 15.8521 16.397 15.9165 16.5143 15.8778Z" fill="#252631"/>
<path d="M16.2225 20.7776C16.3439 20.7776 22.6023 18.4825 28.7359 19.6528C28.8573 19.6756 28.9727 19.5966 28.9958 19.4761C29.0188 19.3556 28.9397 19.2391 28.8192 19.2161C22.6643 18.0421 16.2117 20.3232 16.1473 20.3463C16.0319 20.3879 15.9719 20.5151 16.0134 20.6306C16.046 20.7213 16.1315 20.7776 16.2225 20.7776Z" fill="#252631"/>
</svg>
