<svg width="22" height="18" viewBox="0 0 22 18" fill="none" xmlns="http://www.w3.org/2000/svg">
<path d="M17.3098 0H4.54019C3.09846 0 2 1.09846 2 2.54019V15.3098C2 16.7515 3.09846 17.85 4.54019 17.85H17.3098C18.7515 17.85 19.85 16.7515 19.85 15.3098V2.54019C19.85 1.09846 18.7515 0 17.3098 0ZM10.925 14.28C13.8771 14.28 16.28 11.9458 16.28 9.13096C16.28 8.65038 16.2113 8.10115 16.074 7.68923H17.5844V14.9665C17.5844 15.3098 17.3098 15.6531 16.8979 15.6531H4.95212C4.60885 15.6531 4.26558 15.3785 4.26558 14.9665V7.62058H5.84462C5.70731 8.10115 5.63866 8.58173 5.63866 9.06231C5.57 11.9458 7.97288 14.28 10.925 14.28ZM10.925 12.2204C9.00269 12.2204 7.49231 10.71 7.49231 8.85635C7.49231 7.00269 9.00269 5.49231 10.925 5.49231C12.8473 5.49231 14.3577 7.00269 14.3577 8.85635C14.3577 10.7787 12.8473 12.2204 10.925 12.2204ZM17.5158 4.87442C17.5158 5.28635 17.1725 5.62962 16.7606 5.62962H14.8383C14.4263 5.62962 14.0831 5.28635 14.0831 4.87442V3.02077C14.0831 2.60885 14.4263 2.26558 14.8383 2.26558H16.7606C17.1725 2.26558 17.5158 2.60885 17.5158 3.02077V4.87442Z" fill="url(#paint0_linear_804_1089)"/>
<defs>
<linearGradient id="paint0_linear_804_1089" x1="17.6273" y1="15.368" x2="-2.01841" y2="8.19116" gradientUnits="userSpaceOnUse">
<stop stop-color="#36D1DC"/>
<stop offset="0.963542" stop-color="#5B86E5"/>
</linearGradient>
</defs>
</svg>
