<svg width="186" height="28" viewBox="0 0 186 28" fill="none" xmlns="http://www.w3.org/2000/svg">
<path d="M1.45585 11.1924L8.48527 3.57716C10.4264 1.47428 13.5735 1.47428 15.5147 3.57716L18.9705 7.32104L15.5692 11.0058L13.8347 9.12667C12.8214 8.02898 11.1786 8.02898 10.1653 9.12667L6.57846 13.0125C5.56521 14.1101 5.56521 15.8898 6.57846 16.9875L10.1653 20.8734C11.1786 21.971 12.8214 21.971 13.8347 20.8734L17.4215 16.9875C17.4689 16.9363 17.5141 16.8834 17.557 16.8293L22.6821 11.3478C24.4842 13.46 24.4382 16.7557 22.5441 18.8076L15.5147 26.4228C13.5735 28.5257 10.4264 28.5257 8.48527 26.4228L1.45585 18.8076C-0.485282 16.7047 -0.485282 13.2952 1.45585 11.1924Z" fill="#C4C4C4"/>
<path d="M1.45585 11.1924L8.48527 3.57716C10.4264 1.47428 13.5735 1.47428 15.5147 3.57716L18.9705 7.32104L15.5692 11.0058L13.8347 9.12667C12.8214 8.02898 11.1786 8.02898 10.1653 9.12667L6.57846 13.0125C5.56521 14.1101 5.56521 15.8898 6.57846 16.9875L10.1653 20.8734C11.1786 21.971 12.8214 21.971 13.8347 20.8734L17.4215 16.9875C17.4689 16.9363 17.5141 16.8834 17.557 16.8293L22.6821 11.3478C24.4842 13.46 24.4382 16.7557 22.5441 18.8076L15.5147 26.4228C13.5735 28.5257 10.4264 28.5257 8.48527 26.4228L1.45585 18.8076C-0.485282 16.7047 -0.485282 13.2952 1.45585 11.1924Z" fill="url(#paint0_linear_702_102)"/>
<path d="M23.4559 11.1924L30.4853 3.57716C32.4265 1.47428 35.5736 1.47428 37.5147 3.57716L44.5442 11.1924C46.4853 13.2952 46.4853 16.7047 44.5442 18.8076L37.5147 26.4228C35.5736 28.5257 32.4265 28.5257 30.4853 26.4228L27.2618 22.9307L30.6631 19.2459L32.1653 20.8734C33.1786 21.971 34.8214 21.971 35.8346 20.8734L39.4215 16.9875C40.4348 15.8898 40.4348 14.1101 39.4215 13.0125L35.8346 9.12667C34.8214 8.02898 33.1786 8.02898 32.1653 9.12667L28.5785 13.0125C28.5187 13.0772 28.4625 13.1443 28.4098 13.2135L23.332 18.6687C21.5156 16.5571 21.5569 13.2495 23.4559 11.1924Z" fill="#C4C4C4"/>
<path d="M23.4559 11.1924L30.4853 3.57716C32.4265 1.47428 35.5736 1.47428 37.5147 3.57716L44.5442 11.1924C46.4853 13.2952 46.4853 16.7047 44.5442 18.8076L37.5147 26.4228C35.5736 28.5257 32.4265 28.5257 30.4853 26.4228L27.2618 22.9307L30.6631 19.2459L32.1653 20.8734C33.1786 21.971 34.8214 21.971 35.8346 20.8734L39.4215 16.9875C40.4348 15.8898 40.4348 14.1101 39.4215 13.0125L35.8346 9.12667C34.8214 8.02898 33.1786 8.02898 32.1653 9.12667L28.5785 13.0125C28.5187 13.0772 28.4625 13.1443 28.4098 13.2135L23.332 18.6687C21.5156 16.5571 21.5569 13.2495 23.4559 11.1924Z" fill="url(#paint1_linear_702_102)"/>
<path d="M19.9824 10.6646C20.1231 11.4474 19.399 12.1242 18.5746 11.9806L13.4947 11.0955C13.0269 11.0139 12.838 10.4755 13.1613 10.145L18.013 5.18367C18.353 4.83594 18.9665 5.00891 19.0504 5.47621L19.9824 10.6646Z" fill="#C4C4C4"/>
<path d="M19.9824 10.6646C20.1231 11.4474 19.399 12.1242 18.5746 11.9806L13.4947 11.0955C13.0269 11.0139 12.838 10.4755 13.1613 10.145L18.013 5.18367C18.353 4.83594 18.9665 5.00891 19.0504 5.47621L19.9824 10.6646Z" fill="url(#paint2_linear_702_102)"/>
<path d="M26.0176 20.3353C25.8769 19.5525 26.601 18.8757 27.4254 19.0194L32.5052 19.9045C32.9731 19.986 33.162 20.5245 32.8386 20.855L27.987 25.8163C27.647 26.1641 27.0336 25.9911 26.9496 25.5238L26.0176 20.3353Z" fill="#C4C4C4"/>
<path d="M26.0176 20.3353C25.8769 19.5525 26.601 18.8757 27.4254 19.0194L32.5052 19.9045C32.9731 19.986 33.162 20.5245 32.8386 20.855L27.987 25.8163C27.647 26.1641 27.0336 25.9911 26.9496 25.5238L26.0176 20.3353Z" fill="url(#paint3_linear_702_102)"/>
<path d="M65.6971 15.8987C64.9244 15.8987 64.1517 15.8717 63.379 15.8177C62.6199 15.7772 61.8269 15.6692 61 15.4937V1.88354C61.6507 1.76203 62.3624 1.67426 63.135 1.62025C63.9077 1.55274 64.6262 1.51899 65.2904 1.51899C66.1851 1.51899 67.0052 1.5865 67.7508 1.72152C68.5099 1.84304 69.1606 2.05907 69.7028 2.36962C70.245 2.68017 70.6653 3.09198 70.9635 3.60506C71.2753 4.10464 71.4312 4.72574 71.4312 5.46836C71.4312 6.58903 70.8889 7.47342 69.8045 8.12152C70.6992 8.45907 71.3092 8.91814 71.6345 9.49873C71.9598 10.0793 72.1225 10.7342 72.1225 11.4633C72.1225 12.935 71.5803 14.0422 70.4958 14.7848C69.4249 15.5274 67.8253 15.8987 65.6971 15.8987ZM64.0907 9.6V13.2253C64.3212 13.2523 64.5719 13.2726 64.8431 13.2861C65.1142 13.2996 65.4124 13.3063 65.7377 13.3063C66.6866 13.3063 67.4525 13.1713 68.0354 12.9013C68.6183 12.6312 68.9098 12.1316 68.9098 11.4025C68.9098 10.7544 68.6658 10.2954 68.1778 10.0253C67.6898 9.74177 66.9917 9.6 66.0834 9.6H64.0907ZM64.0907 7.18987H65.6361C66.6121 7.18987 67.3102 7.06836 67.7304 6.82532C68.1507 6.56878 68.3608 6.16371 68.3608 5.61013C68.3608 5.04304 68.1439 4.64473 67.7101 4.41519C67.2763 4.18565 66.6392 4.07089 65.7987 4.07089C65.5276 4.07089 65.2362 4.07764 64.9244 4.09114C64.6126 4.09114 64.3347 4.10464 64.0907 4.13165V7.18987ZM73.9501 10.4709C73.9501 9.52574 74.0924 8.70211 74.3771 8C74.6753 7.28439 75.0616 6.6903 75.5361 6.21772C76.0105 5.74515 76.5528 5.38734 77.1628 5.1443C77.7863 4.90127 78.4235 4.77975 79.0741 4.77975C80.5924 4.77975 81.7921 5.24557 82.6732 6.17722C83.5543 7.09536 83.9949 8.45232 83.9949 10.2481C83.9949 10.4236 83.9881 10.6194 83.9745 10.8354C83.961 11.038 83.9474 11.2203 83.9339 11.3823H77.0611C77.1289 12.0034 77.4203 12.4962 77.9355 12.8608C78.4506 13.2253 79.1419 13.4076 80.0095 13.4076C80.5653 13.4076 81.1075 13.3603 81.6362 13.2658C82.1784 13.1578 82.619 13.0295 82.9579 12.881L83.3645 15.3316C83.2019 15.4127 82.985 15.4937 82.7139 15.5747C82.4427 15.6557 82.1377 15.7232 81.7988 15.7772C81.4735 15.8447 81.1211 15.8987 80.7415 15.9392C80.3619 15.9797 79.9824 16 79.6028 16C78.6404 16 77.7999 15.8582 77.0814 15.5747C76.3765 15.2911 75.7869 14.9063 75.3124 14.4203C74.8515 13.9207 74.5058 13.3333 74.2754 12.6582C74.0585 11.9831 73.9501 11.254 73.9501 10.4709ZM81.0668 9.31646C81.0533 9.05992 81.0058 8.81013 80.9245 8.56709C80.8567 8.32405 80.7415 8.10802 80.5788 7.91899C80.4297 7.72996 80.2332 7.57468 79.9892 7.45317C79.7587 7.33165 79.4673 7.27089 79.1148 7.27089C78.7759 7.27089 78.4845 7.33165 78.2405 7.45317C77.9964 7.56118 77.7931 7.70971 77.6304 7.89874C77.4678 8.08776 77.339 8.31055 77.2441 8.56709C77.1628 8.81013 77.1018 9.05992 77.0611 9.31646H81.0668ZM86.2312 2.41013L89.261 1.92405V5.06329H92.9007V7.57468H89.261V11.3215C89.261 11.9561 89.3694 12.4624 89.5863 12.8405C89.8167 13.2186 90.2709 13.4076 90.9487 13.4076C91.274 13.4076 91.6061 13.3806 91.945 13.3266C92.2974 13.2591 92.616 13.1713 92.9007 13.0633L93.3277 15.4127C92.9617 15.5612 92.555 15.6895 92.1077 15.7975C91.6603 15.9055 91.1113 15.9595 90.4606 15.9595C89.6337 15.9595 88.9492 15.8515 88.4069 15.6354C87.8647 15.4059 87.4309 15.0954 87.1056 14.7038C86.7803 14.2987 86.5498 13.8127 86.4142 13.2456C86.2922 12.6785 86.2312 12.0506 86.2312 11.362V2.41013ZM99.0578 13.6101C99.356 13.6101 99.6407 13.6034 99.9118 13.5899C100.183 13.5764 100.4 13.5561 100.563 13.5291V11.2405C100.441 11.2135 100.258 11.1865 100.014 11.1595C99.7695 11.1325 99.5458 11.119 99.3425 11.119C99.0578 11.119 98.7867 11.1392 98.5292 11.1797C98.2851 11.2068 98.0683 11.2675 97.8785 11.362C97.6887 11.4565 97.5396 11.5848 97.4311 11.7468C97.3227 11.9089 97.2685 12.1114 97.2685 12.3544C97.2685 12.827 97.4244 13.1578 97.7361 13.3468C98.0615 13.5224 98.502 13.6101 99.0578 13.6101ZM98.8138 4.77975C99.7085 4.77975 100.454 4.88101 101.051 5.08355C101.647 5.28608 102.121 5.57637 102.474 5.95443C102.84 6.33249 103.097 6.79156 103.247 7.33165C103.396 7.87173 103.47 8.47257 103.47 9.13418V15.4127C103.036 15.5072 102.433 15.6152 101.661 15.7367C100.888 15.8717 99.9525 15.9392 98.8545 15.9392C98.1631 15.9392 97.5328 15.8785 96.9635 15.757C96.4077 15.6354 95.9264 15.4397 95.5198 15.1696C95.1131 14.8861 94.8013 14.5215 94.5844 14.0759C94.3675 13.6304 94.2591 13.0835 94.2591 12.4354C94.2591 11.8143 94.3811 11.2878 94.6251 10.8557C94.8826 10.4236 95.2215 10.0793 95.6418 9.82279C96.062 9.56625 96.5432 9.38397 97.0855 9.27595C97.6277 9.15443 98.1903 9.09367 98.7732 9.09367C99.1663 9.09367 99.5119 9.11392 99.8102 9.15443C100.122 9.18144 100.373 9.22194 100.563 9.27595V8.99241C100.563 8.47933 100.407 8.06751 100.095 7.75696C99.7831 7.44641 99.2408 7.29114 98.4682 7.29114C97.953 7.29114 97.4447 7.33165 96.9431 7.41266C96.4416 7.48017 96.0078 7.58144 95.6418 7.71646L95.2554 5.28608C95.4317 5.23207 95.6485 5.17806 95.9061 5.12405C96.1772 5.05654 96.4687 5.00253 96.7805 4.96203C97.0922 4.90802 97.4176 4.86751 97.7565 4.84051C98.1089 4.8 98.4614 4.77975 98.8138 4.77975ZM116.864 1.68101V4.37468H112.615V15.7165H109.443V4.37468H105.193V1.68101H116.864ZM123.736 7.73671C123.465 7.6692 123.146 7.60169 122.78 7.53418C122.414 7.45317 122.021 7.41266 121.601 7.41266C121.411 7.41266 121.181 7.43291 120.91 7.47342C120.652 7.50042 120.456 7.53418 120.32 7.57468V15.7165H117.29V5.63038C117.833 5.44135 118.47 5.26582 119.202 5.1038C119.947 4.92827 120.774 4.84051 121.682 4.84051C121.845 4.84051 122.042 4.85401 122.272 4.88101C122.503 4.89452 122.733 4.92152 122.963 4.96203C123.194 4.98903 123.424 5.02954 123.655 5.08355C123.885 5.12405 124.082 5.17806 124.244 5.24557L123.736 7.73671ZM129.757 13.6101C130.055 13.6101 130.34 13.6034 130.611 13.5899C130.882 13.5764 131.099 13.5561 131.262 13.5291V11.2405C131.14 11.2135 130.957 11.1865 130.713 11.1595C130.469 11.1325 130.245 11.119 130.042 11.119C129.757 11.119 129.486 11.1392 129.228 11.1797C128.984 11.2068 128.768 11.2675 128.578 11.362C128.388 11.4565 128.239 11.5848 128.13 11.7468C128.022 11.9089 127.968 12.1114 127.968 12.3544C127.968 12.827 128.124 13.1578 128.435 13.3468C128.761 13.5224 129.201 13.6101 129.757 13.6101ZM129.513 4.77975C130.408 4.77975 131.153 4.88101 131.75 5.08355C132.346 5.28608 132.821 5.57637 133.173 5.95443C133.539 6.33249 133.797 6.79156 133.946 7.33165C134.095 7.87173 134.17 8.47257 134.17 9.13418V15.4127C133.736 15.5072 133.133 15.6152 132.36 15.7367C131.587 15.8717 130.652 15.9392 129.554 15.9392C128.862 15.9392 128.232 15.8785 127.663 15.757C127.107 15.6354 126.626 15.4397 126.219 15.1696C125.812 14.8861 125.501 14.5215 125.284 14.0759C125.067 13.6304 124.958 13.0835 124.958 12.4354C124.958 11.8143 125.08 11.2878 125.324 10.8557C125.582 10.4236 125.921 10.0793 126.341 9.82279C126.761 9.56625 127.243 9.38397 127.785 9.27595C128.327 9.15443 128.89 9.09367 129.472 9.09367C129.866 9.09367 130.211 9.11392 130.509 9.15443C130.821 9.18144 131.072 9.22194 131.262 9.27595V8.99241C131.262 8.47933 131.106 8.06751 130.794 7.75696C130.482 7.44641 129.94 7.29114 129.167 7.29114C128.652 7.29114 128.144 7.33165 127.642 7.41266C127.141 7.48017 126.707 7.58144 126.341 7.71646L125.955 5.28608C126.131 5.23207 126.348 5.17806 126.605 5.12405C126.877 5.05654 127.168 5.00253 127.48 4.96203C127.792 4.90802 128.117 4.86751 128.456 4.84051C128.808 4.8 129.161 4.77975 129.513 4.77975ZM136.909 5.42785C137.424 5.27933 138.088 5.1443 138.902 5.02279C139.715 4.88776 140.569 4.82025 141.464 4.82025C142.372 4.82025 143.124 4.94177 143.721 5.18481C144.331 5.41435 144.812 5.74515 145.164 6.17722C145.517 6.60928 145.768 7.12236 145.917 7.71646C146.066 8.31055 146.14 8.97215 146.14 9.70127V15.7165H143.111V10.0658C143.111 9.09367 142.982 8.40506 142.724 8C142.467 7.59494 141.986 7.39241 141.281 7.39241C141.064 7.39241 140.833 7.40591 140.589 7.43291C140.345 7.44641 140.128 7.46667 139.939 7.49367V15.7165H136.909V5.42785ZM151.954 13.5494C152.509 13.5494 152.902 13.4954 153.133 13.3873C153.363 13.2793 153.479 13.07 153.479 12.7595C153.479 12.5165 153.329 12.3072 153.031 12.1316C152.733 11.9426 152.279 11.7333 151.669 11.5038C151.194 11.3283 150.761 11.146 150.368 10.957C149.988 10.7679 149.663 10.5451 149.392 10.2886C149.12 10.0186 148.91 9.70127 148.761 9.33671C148.612 8.97215 148.538 8.53333 148.538 8.02025C148.538 7.0211 148.91 6.23122 149.656 5.65063C150.401 5.07004 151.425 4.77975 152.726 4.77975C153.377 4.77975 154 4.84051 154.597 4.96203C155.193 5.07004 155.668 5.19156 156.02 5.32658L155.492 7.67595C155.139 7.55443 154.753 7.44641 154.333 7.3519C153.926 7.25738 153.465 7.21013 152.95 7.21013C152.001 7.21013 151.527 7.47342 151.527 8C151.527 8.12152 151.547 8.22954 151.588 8.32405C151.628 8.41857 151.71 8.51308 151.832 8.6076C151.954 8.68861 152.116 8.78312 152.32 8.89114C152.536 8.98565 152.808 9.09367 153.133 9.21519C153.797 9.45823 154.346 9.70127 154.78 9.9443C155.214 10.1738 155.553 10.4304 155.797 10.7139C156.054 10.984 156.23 11.2878 156.325 11.6253C156.434 11.9629 156.488 12.3544 156.488 12.8C156.488 13.8532 156.088 14.6498 155.288 15.1899C154.502 15.73 153.384 16 151.933 16C150.984 16 150.191 15.919 149.554 15.757C148.931 15.5949 148.497 15.4599 148.253 15.3519L148.761 12.9013C149.276 13.1038 149.805 13.2658 150.347 13.3873C150.889 13.4954 151.425 13.5494 151.954 13.5494ZM163.388 0C163.957 0 164.479 0.0607595 164.954 0.182279C165.428 0.290295 165.794 0.398312 166.052 0.506328L165.462 2.91646C165.191 2.79494 164.893 2.70717 164.567 2.65317C164.255 2.58565 163.964 2.5519 163.693 2.5519C163.327 2.5519 163.015 2.60591 162.758 2.71392C162.514 2.80844 162.317 2.94346 162.168 3.11899C162.032 3.29452 161.931 3.5038 161.863 3.74684C161.809 3.98987 161.781 4.25317 161.781 4.53671V5.06329H165.523V7.57468H161.781V15.7165H158.752V4.4962C158.752 3.11899 159.138 2.02532 159.911 1.21519C160.697 0.405064 161.856 0 163.388 0ZM166.663 10.4709C166.663 9.52574 166.805 8.70211 167.09 8C167.388 7.28439 167.774 6.6903 168.249 6.21772C168.723 5.74515 169.265 5.38734 169.875 5.1443C170.499 4.90127 171.136 4.77975 171.787 4.77975C173.305 4.77975 174.505 5.24557 175.386 6.17722C176.267 7.09536 176.708 8.45232 176.708 10.2481C176.708 10.4236 176.701 10.6194 176.687 10.8354C176.674 11.038 176.66 11.2203 176.647 11.3823H169.774C169.842 12.0034 170.133 12.4962 170.648 12.8608C171.163 13.2253 171.855 13.4076 172.722 13.4076C173.278 13.4076 173.82 13.3603 174.349 13.2658C174.891 13.1578 175.332 13.0295 175.671 12.881L176.077 15.3316C175.915 15.4127 175.698 15.4937 175.427 15.5747C175.155 15.6557 174.85 15.7232 174.511 15.7772C174.186 15.8447 173.834 15.8987 173.454 15.9392C173.075 15.9797 172.695 16 172.315 16C171.353 16 170.513 15.8582 169.794 15.5747C169.089 15.2911 168.5 14.9063 168.025 14.4203C167.564 13.9207 167.218 13.3333 166.988 12.6582C166.771 11.9831 166.663 11.254 166.663 10.4709ZM173.779 9.31646C173.766 9.05992 173.718 8.81013 173.637 8.56709C173.569 8.32405 173.454 8.10802 173.291 7.91899C173.142 7.72996 172.946 7.57468 172.702 7.45317C172.471 7.33165 172.18 7.27089 171.827 7.27089C171.489 7.27089 171.197 7.33165 170.953 7.45317C170.709 7.56118 170.506 7.70971 170.343 7.89874C170.18 8.08776 170.052 8.31055 169.957 8.56709C169.875 8.81013 169.814 9.05992 169.774 9.31646H173.779ZM185.492 7.73671C185.221 7.6692 184.902 7.60169 184.536 7.53418C184.17 7.45317 183.777 7.41266 183.357 7.41266C183.167 7.41266 182.936 7.43291 182.665 7.47342C182.408 7.50042 182.211 7.53418 182.076 7.57468V15.7165H179.046V5.63038C179.588 5.44135 180.225 5.26582 180.957 5.1038C181.703 4.92827 182.53 4.84051 183.438 4.84051C183.601 4.84051 183.797 4.85401 184.028 4.88101C184.258 4.89452 184.489 4.92152 184.719 4.96203C184.949 4.98903 185.18 5.02954 185.41 5.08355C185.641 5.12405 185.837 5.17806 186 5.24557L185.492 7.73671Z" fill="white"/>
<path d="M62.807 25.8802L62.168 26.4874V27.9041H60V20H62.168V24.1438L64.3817 22.1305H66.9492L64.3817 24.6019L67.166 27.9041H64.5415L62.807 25.8802ZM72.0587 22.0346C73.0856 22.0346 73.8691 22.2547 74.4093 22.6951C74.9494 23.1282 75.2195 23.7958 75.2195 24.6977V27.9041H73.1997V27.1585C72.8878 27.7194 72.2792 28 71.374 28C70.8948 28 70.4801 27.9218 70.1303 27.7656C69.7803 27.6094 69.5141 27.3998 69.3315 27.1372C69.1565 26.8672 69.0691 26.5619 69.0691 26.221C69.0691 25.6741 69.2934 25.2517 69.7423 24.9534C70.1911 24.648 70.8834 24.4953 71.819 24.4953H73.0514C73.0133 23.8845 72.5759 23.5792 71.7392 23.5792C71.4425 23.5792 71.1419 23.6254 70.8377 23.7177C70.5334 23.8029 70.2747 23.9236 70.0618 24.0799L69.3315 22.7057C69.6738 22.4927 70.0884 22.3293 70.5753 22.2157C71.0697 22.0949 71.5641 22.0346 72.0587 22.0346ZM71.9788 26.7217C72.2298 26.7217 72.4504 26.6648 72.6406 26.5513C72.8307 26.4376 72.9677 26.2707 73.0514 26.0506V25.5499H72.1157C71.4843 25.5499 71.1686 25.7452 71.1686 26.1358C71.1686 26.3133 71.2409 26.4554 71.3854 26.5619C71.5299 26.6684 71.7278 26.7217 71.9788 26.7217ZM80.5475 28C80.0301 28 79.5205 27.9467 79.0184 27.8402C78.5164 27.7266 78.1131 27.5809 77.8089 27.4035L78.4593 26.0186C78.7407 26.1819 79.0755 26.3133 79.4635 26.4128C79.8514 26.505 80.2355 26.5513 80.6159 26.5513C80.9658 26.5513 81.2131 26.5193 81.3577 26.4554C81.5098 26.3843 81.5859 26.285 81.5859 26.1571C81.5859 26.0293 81.4946 25.9405 81.312 25.8908C81.137 25.8339 80.8556 25.7807 80.4676 25.731C79.9731 25.6741 79.5509 25.5996 79.201 25.5073C78.8587 25.415 78.562 25.2445 78.311 24.996C78.0599 24.7474 77.9344 24.3995 77.9344 23.9521C77.9344 23.5827 78.0523 23.256 78.2882 22.972C78.5239 22.6808 78.8662 22.4536 79.3151 22.2903C79.7716 22.1198 80.3154 22.0346 80.9469 22.0346C81.3956 22.0346 81.8407 22.0772 82.2819 22.1625C82.7231 22.2477 83.0921 22.3684 83.3888 22.5246L82.7384 23.8988C82.1906 23.6147 81.5973 23.4727 80.9583 23.4727C80.616 23.4727 80.3649 23.5117 80.2052 23.5899C80.0454 23.6608 79.9655 23.7567 79.9655 23.8775C79.9655 24.0124 80.0529 24.1082 80.228 24.1651C80.4029 24.2148 80.6919 24.268 81.0952 24.3249C81.6048 24.3958 82.027 24.4776 82.3618 24.5699C82.6965 24.6622 82.9855 24.8326 83.229 25.0812C83.4801 25.3226 83.6056 25.6635 83.6056 26.1039C83.6056 26.466 83.4876 26.7927 83.2518 27.0839C83.016 27.3679 82.666 27.5916 82.202 27.755C81.7456 27.9183 81.194 28 80.5475 28ZM88.4993 28C87.9821 28 87.4723 27.9467 86.9703 27.8402C86.4682 27.7266 86.0651 27.5809 85.7607 27.4035L86.4111 26.0186C86.6926 26.1819 87.0273 26.3133 87.4153 26.4128C87.8033 26.505 88.1875 26.5513 88.5678 26.5513C88.9177 26.5513 89.1649 26.5193 89.3095 26.4554C89.4616 26.3843 89.5377 26.285 89.5377 26.1571C89.5377 26.0293 89.4464 25.9405 89.2638 25.8908C89.0889 25.8339 88.8074 25.7807 88.4194 25.731C87.925 25.6741 87.5028 25.5996 87.1528 25.5073C86.8105 25.415 86.5138 25.2445 86.2628 24.996C86.0118 24.7474 85.8862 24.3995 85.8862 23.9521C85.8862 23.5827 86.0041 23.256 86.24 22.972C86.4758 22.6808 86.8182 22.4536 87.267 22.2903C87.7234 22.1198 88.2673 22.0346 88.8987 22.0346C89.3475 22.0346 89.7925 22.0772 90.2337 22.1625C90.675 22.2477 91.0439 22.3684 91.3406 22.5246L90.6902 23.8988C90.1425 23.6147 89.5491 23.4727 88.9101 23.4727C88.5678 23.4727 88.3167 23.5117 88.157 23.5899C87.9972 23.6608 87.9174 23.7567 87.9174 23.8775C87.9174 24.0124 88.0049 24.1082 88.1798 24.1651C88.3547 24.2148 88.6439 24.268 89.047 24.3249C89.5567 24.3958 89.9789 24.4776 90.3136 24.5699C90.6483 24.6622 90.9375 24.8326 91.1808 25.0812C91.4319 25.3226 91.5574 25.6635 91.5574 26.1039C91.5574 26.466 91.4395 26.7927 91.2037 27.0839C90.9678 27.3679 90.618 27.5916 90.1539 27.755C89.6974 27.9183 89.146 28 88.4993 28ZM96.8392 22.0346C97.8662 22.0346 98.6497 22.2547 99.1898 22.6951C99.7299 23.1282 100 23.7958 100 24.6977V27.9041H97.9803V27.1585C97.6683 27.7194 97.0598 28 96.1546 28C95.6753 28 95.2607 27.9218 94.9108 27.7656C94.5608 27.6094 94.2946 27.3998 94.112 27.1372C93.937 26.8672 93.8496 26.5619 93.8496 26.221C93.8496 25.6741 94.0739 25.2517 94.5228 24.9534C94.9716 24.648 95.6639 24.4953 96.5996 24.4953H97.832C97.7938 23.8845 97.3565 23.5792 96.5197 23.5792C96.223 23.5792 95.9225 23.6254 95.6183 23.7177C95.3139 23.8029 95.0553 23.9236 94.8423 24.0799L94.112 22.7057C94.4544 22.4927 94.8689 22.3293 95.3558 22.2157C95.8502 22.0949 96.3447 22.0346 96.8392 22.0346ZM96.7593 26.7217C97.0104 26.7217 97.2309 26.6648 97.4212 26.5513C97.6113 26.4376 97.7482 26.2707 97.832 26.0506V25.5499H96.8963C96.2648 25.5499 95.9492 25.7452 95.9492 26.1358C95.9492 26.3133 96.0214 26.4554 96.166 26.5619C96.3104 26.6684 96.5083 26.7217 96.7593 26.7217Z" fill="#59BDEF"/>
<defs>
<linearGradient id="paint0_linear_702_102" x1="36.448" y1="12.3169" x2="-6.34463" y2="1.08786" gradientUnits="userSpaceOnUse">
<stop stop-color="#20DCEA"/>
<stop offset="1" stop-color="#2060EC"/>
</linearGradient>
<linearGradient id="paint1_linear_702_102" x1="37.1098" y1="12.3169" x2="-5.68291" y2="1.08783" gradientUnits="userSpaceOnUse">
<stop stop-color="#20DCEA"/>
<stop offset="1" stop-color="#2060EC"/>
</linearGradient>
<linearGradient id="paint2_linear_702_102" x1="38.2229" y1="12.6169" x2="-8.00163" y2="-0.233297" gradientUnits="userSpaceOnUse">
<stop stop-color="#20DCEA"/>
<stop offset="1" stop-color="#2060EC"/>
</linearGradient>
<linearGradient id="paint3_linear_702_102" x1="37.4187" y1="12.482" x2="-8.80556" y2="-0.367905" gradientUnits="userSpaceOnUse">
<stop stop-color="#20DCEA"/>
<stop offset="1" stop-color="#2060EC"/>
</linearGradient>
</defs>
</svg>
