<svg width="52" height="52" viewBox="0 0 52 52" fill="none" xmlns="http://www.w3.org/2000/svg">
<path d="M45.5618 30.3904C48.5716 16.8683 36.7239 4.58385 22.8103 6.94205C15.2573 2.25529 5.19995 7.55201 5.19995 16.5376C5.19995 18.6275 5.77663 20.5837 6.77919 22.2701C3.98263 35.8239 15.927 47.931 29.8287 45.4122C39.6557 50.608 50.5143 40.2454 45.5618 30.3904ZM32.3362 38.5456C28.6858 40.0468 22.6787 40.0551 19.0444 38.1524C13.8616 35.3892 12.9407 29.1684 17.4116 29.1684C20.7812 29.1684 19.7147 33.097 23.1171 34.6986C24.6792 35.4204 28.0368 35.4952 29.9883 34.1791C31.9155 32.889 31.7392 30.86 30.6914 29.8907C27.9156 27.3281 19.9726 28.3463 16.3415 23.8602C14.7638 21.9144 14.4664 18.4808 16.4054 15.9911C19.7854 11.6418 29.7044 11.3771 33.9689 14.6614C37.9064 17.7086 36.8435 21.7532 33.6658 21.7532C29.8443 21.7532 31.8526 16.7529 25.6833 16.7529C21.2108 16.7529 19.4511 19.9332 22.6012 21.4812C26.8715 23.6023 37.753 22.8941 37.753 31.1824C37.7436 34.6305 35.6293 37.2019 32.3362 38.5456Z" fill="url(#paint0_linear_708_1474)"/>
<defs>
<linearGradient id="paint0_linear_708_1474" x1="41.6196" y1="41.0157" x2="-4.16517" y2="24.2901" gradientUnits="userSpaceOnUse">
<stop stop-color="#36D1DC"/>
<stop offset="0.963542" stop-color="#5B86E5"/>
</linearGradient>
</defs>
</svg>
