<svg width="65" height="64" viewBox="0 0 65 64" fill="none" xmlns="http://www.w3.org/2000/svg">
<path d="M20.774 55.5583C21.5339 55.6493 22.3595 55.3974 22.9196 54.9332C23.5607 54.3899 24.137 53.2686 24.137 52.0513C24.137 50.7068 23.2726 50.5468 22.9516 50.5468C22.4875 50.5468 22.1354 50.7869 21.7992 51.0109L20.774 55.5583ZM22.0714 49.4264C22.4875 49.1383 23.1757 48.6572 24.217 48.6572C25.8175 48.6572 26.8908 49.8577 26.8908 51.8913C26.8908 53.0445 26.4907 54.405 25.6575 55.4143C24.0729 57.351 22.0713 57.335 20.3738 57.335L19.4623 61.1621L19.3511 61.2421C18.9822 61.2421 18.63 61.2253 18.2619 61.2253C17.7177 61.2253 17.2376 61.2582 16.6453 61.2741L16.5644 61.1621C16.5644 61.1621 17.1289 59.4646 17.8306 56.5473C18.5677 53.486 19.2568 49.8998 19.3175 49.1694L19.4295 49.0574L22.1674 48.6101L22.2642 48.7213L22.0714 49.4264ZM16.278 57.1589L16.15 57.287C15.6369 57.3838 15.0354 57.463 14.7086 57.463C13.4997 57.463 11.7256 57.2802 12.477 54.2307C12.9833 52.1684 13.3481 50.6268 13.3481 50.6268L12.2269 50.6588L12.1308 50.5308L12.5958 48.9133L12.7078 48.8341H13.7642L14.2284 46.7677L14.3404 46.6565C15.5417 46.3844 15.861 46.3035 16.9662 45.9834L17.0623 46.0794L16.358 48.8662L17.9906 48.8341L18.0553 48.9453C17.8303 49.6176 17.7663 49.7945 17.5583 50.5468L17.4302 50.6588L15.9577 50.6268C15.9577 50.6268 15.6586 51.8694 15.2399 53.5989C14.7875 55.4699 15.0251 55.3738 15.4783 55.5524C15.8658 55.7057 16.3738 55.5103 16.6619 55.4143L16.758 55.4943L16.2778 57.1589H16.278ZM7.32904 50.3387C6.57592 50.3387 5.7242 50.722 5.23223 53.0538C4.68553 55.6485 5.77562 55.8144 6.30466 55.8144C6.78484 55.8144 7.80753 55.5524 8.31548 53.0681C8.67185 51.3311 8.38961 50.3387 7.32904 50.3387ZM11.0677 53.0681C10.3794 56.9946 7.93639 57.495 5.86829 57.495C3.82707 57.495 1.94511 56.089 2.47759 53.0488C2.89368 50.6723 4.30476 48.4736 7.73508 48.6412C10.1275 48.7583 11.5352 50.3985 11.0677 53.0681Z" fill="#00674C"/>
<path d="M58.3596 52.4322L60.8405 57.1556L60.7445 57.2837L58.9678 57.3317L58.8398 57.2349C58.4244 56.1102 56.6141 52.5763 56.6141 52.5763C56.1499 54.6099 56.0539 55.0901 55.653 57.2029L55.5418 57.2997L53.9243 57.3317L53.8602 57.2349C53.8602 57.2349 54.7145 53.6849 55.4533 50.3986C55.7995 48.8621 56.3369 46.4292 56.5501 44.9549L56.6613 44.8589L58.4068 44.5708L58.5036 44.6828C58.181 45.7889 56.6613 52.3522 56.6613 52.3522C57.8095 51.3464 59.7201 49.3423 59.9762 49.0702L60.1523 48.9741H61.9938L62.0417 49.1182C61.5868 49.477 60.7443 50.2386 60.4403 50.5107L58.3595 52.4322L58.3596 52.4322ZM52.2412 57.207L52.1139 57.3031L50.4805 57.3511L50.4165 57.2399C50.6515 56.1616 51.6371 52.5501 51.6498 51.4272C51.6599 50.4668 51.0575 50.1467 50.3044 50.1467C49.3121 50.1467 48.655 50.6429 48.1749 50.9959C47.5826 53.6849 47.3905 54.5332 46.8783 57.207L46.7655 57.303L45.1337 57.351L45.0528 57.2398C45.0528 57.2398 45.5389 55.2795 45.9778 53.2417C46.3215 51.6462 46.6037 50.332 46.7334 49.2343L46.8463 49.1223C47.5986 49.0262 47.7747 48.9942 48.5438 48.8342L48.6238 48.9454L48.3997 49.7617C49.0239 49.3464 49.8242 48.7853 51.1528 48.7853C51.6809 48.7853 53.4104 48.9302 53.4104 50.8669C53.4104 52.0253 52.3979 56.0765 52.2412 57.207ZM43.1287 50.1787C42.8878 50.1787 42.6485 50.1628 42.4076 50.1628C41.8794 50.1628 40.839 50.1948 39.8938 50.8359C38.2132 51.9874 38.1812 54.0531 38.1812 54.1339C38.1812 54.9022 38.5974 56.1347 40.0539 56.1347C40.4869 56.1347 41.2013 56.0336 41.9754 55.3495L43.1287 50.1787ZM44.3131 52.2123C43.753 54.6781 43.6409 55.2863 43.3208 57.1919L43.2079 57.3031L41.7033 57.3351L41.6233 57.223L41.7353 56.5836C41.4633 56.8069 40.759 57.3991 39.3977 57.3991C37.7642 57.3991 36.4357 56.2467 36.4357 54.2451C36.4357 52.9806 37.0439 51.6033 37.717 50.803C39.2056 49.0575 41.2711 48.9614 42.7446 48.9614L44.9534 48.9783L45.0334 49.1055L44.3131 52.2123ZM28.9888 56.0546C29.8944 56.0967 31.2305 56.0706 32.2708 55.3664C33.4553 54.5492 34.0163 53.1247 34.0163 52.0995C34.0163 50.6429 33.1351 50.0827 32.1108 50.0827C31.2936 50.0827 30.7174 50.4348 30.2052 50.755C30.2052 50.755 29.0882 55.662 28.9888 56.0546ZM27.0352 57.223C27.1422 56.7378 27.8321 53.893 28.5381 50.6935C29.1412 47.9497 29.5616 46.2379 29.7091 44.9591L29.8371 44.8462L31.5826 44.543L31.6626 44.655L31.2144 46.4325L30.4773 49.5065C31.1504 49.1384 31.7898 48.7854 32.815 48.7854C34.3996 48.7854 35.729 49.8578 35.729 51.8762C35.729 52.6925 35.4729 54.2291 34.3996 55.4624C32.959 57.1118 31.1824 57.223 29.1168 57.3031H28.2365L27.1152 57.319L27.0352 57.223Z" fill="#6EC72D"/>
<path d="M23.9365 21.1386C23.9365 16.5458 27.6591 12.8223 32.252 12.8223C36.8449 12.8223 40.5667 16.5458 40.5667 21.1386C40.5667 25.7306 36.8449 29.4541 32.252 29.4541C27.6591 29.4541 23.9365 25.7306 23.9365 21.1386Z" fill="#6EC72D"/>
<path d="M38.0181 10.6052C38.0181 7.97346 40.152 5.83962 42.7837 5.83962C45.4162 5.83962 47.5509 7.97346 47.5509 10.6052C47.5509 13.2377 45.4162 15.3716 42.7837 15.3716C40.152 15.3716 38.0181 13.2377 38.0181 10.6052ZM13.46 21.1388C13.46 10.7922 21.8411 2.40424 32.1835 2.3916V9.16632C25.5815 9.17812 20.2339 14.5334 20.2339 21.1388C20.2339 27.7509 25.5941 33.1104 32.2054 33.1104C38.778 33.1104 44.1779 27.8014 44.1779 21.0933L50.9517 21.0973C50.9517 31.4919 42.5596 39.8841 32.2054 39.8841C21.8521 39.8841 13.46 31.4919 13.46 21.1386" fill="#00674C"/>
</svg>
