<svg width="25" height="24" viewBox="0 0 25 24" fill="none" xmlns="http://www.w3.org/2000/svg">
<path d="M12.538 7.5C11.9273 7.5 11.3416 7.73705 10.9098 8.15901C10.4779 8.58097 10.2354 9.15326 10.2354 9.75C10.2354 10.3467 10.4779 10.919 10.9098 11.341C11.3416 11.7629 11.9273 12 12.538 12C13.1487 12 13.7344 11.7629 14.1662 11.341C14.598 10.919 14.8406 10.3467 14.8406 9.75C14.8406 9.15326 14.598 8.58097 14.1662 8.15901C13.7344 7.73705 13.1487 7.5 12.538 7.5Z" fill="url(#paint0_linear_2165_947)"/>
<path fill-rule="evenodd" clip-rule="evenodd" d="M1.79199 4.875C1.79199 3.839 2.65164 3 3.71085 3H21.3644C22.4236 3 23.2832 3.84 23.2832 4.875V14.625C23.2832 15.661 22.4236 16.5 21.3644 16.5H3.71085C3.45886 16.5 3.20934 16.4515 2.97654 16.3573C2.74373 16.263 2.5322 16.1249 2.35401 15.9508C2.17583 15.7767 2.03449 15.57 1.93806 15.3425C1.84162 15.115 1.79199 14.8712 1.79199 14.625V4.875ZM8.69989 9.75C8.69989 8.75544 9.10422 7.80161 9.82393 7.09835C10.5436 6.39509 11.5198 6 12.5376 6C13.5554 6 14.5316 6.39509 15.2513 7.09835C15.971 7.80161 16.3753 8.75544 16.3753 9.75C16.3753 10.7446 15.971 11.6984 15.2513 12.4017C14.5316 13.1049 13.5554 13.5 12.5376 13.5C11.5198 13.5 10.5436 13.1049 9.82393 12.4017C9.10422 11.6984 8.69989 10.7446 8.69989 9.75ZM19.4455 9C19.2419 9 19.0467 9.07902 18.9028 9.21967C18.7588 9.36032 18.678 9.55109 18.678 9.75V9.758C18.678 10.172 19.0218 10.508 19.4455 10.508H19.4537C19.6573 10.508 19.8525 10.429 19.9964 10.2883C20.1404 10.1477 20.2212 9.95691 20.2212 9.758V9.75C20.2212 9.55109 20.1404 9.36032 19.9964 9.21967C19.8525 9.07902 19.6573 9 19.4537 9H19.4455ZM4.86217 9.75C4.86217 9.55109 4.94303 9.36032 5.08698 9.21967C5.23092 9.07902 5.42615 9 5.62971 9H5.6379C5.84146 9 6.03669 9.07902 6.18063 9.21967C6.32458 9.36032 6.40544 9.55109 6.40544 9.75V9.758C6.40544 9.95691 6.32458 10.1477 6.18063 10.2883C6.03669 10.429 5.84146 10.508 5.6379 10.508H5.62971C5.42615 10.508 5.23092 10.429 5.08698 10.2883C4.94303 10.1477 4.86217 9.95691 4.86217 9.758V9.75Z" fill="url(#paint1_linear_2165_947)"/>
<path d="M2.55954 18C2.35597 18 2.16074 18.079 2.0168 18.2197C1.87286 18.3603 1.79199 18.5511 1.79199 18.75C1.79199 18.9489 1.87286 19.1397 2.0168 19.2803C2.16074 19.421 2.35597 19.5 2.55954 19.5C8.08585 19.5 13.4382 20.222 18.5245 21.575C19.7423 21.899 20.9806 21.017 20.9806 19.755V18.75C20.9806 18.5511 20.8997 18.3603 20.7558 18.2197C20.6118 18.079 20.4166 18 20.213 18H2.55954Z" fill="url(#paint2_linear_2165_947)"/>
<defs>
<linearGradient id="paint0_linear_2165_947" x1="14.2672" y1="11.3743" x2="9.2267" y2="9.48986" gradientUnits="userSpaceOnUse">
<stop stop-color="#36D1DC"/>
<stop offset="0.963542" stop-color="#5B86E5"/>
</linearGradient>
<linearGradient id="paint1_linear_2165_947" x1="20.6071" y1="14.6229" x2="0.572994" y2="2.97185" gradientUnits="userSpaceOnUse">
<stop stop-color="#36D1DC"/>
<stop offset="0.963542" stop-color="#5B86E5"/>
</linearGradient>
<linearGradient id="paint2_linear_2165_947" x1="18.5912" y1="21.136" x2="13.5021" y2="11.3421" gradientUnits="userSpaceOnUse">
<stop stop-color="#36D1DC"/>
<stop offset="0.963542" stop-color="#5B86E5"/>
</linearGradient>
</defs>
</svg>
