<svg width="25" height="24" viewBox="0 0 25 24" fill="none" xmlns="http://www.w3.org/2000/svg">
<path fill-rule="evenodd" clip-rule="evenodd" d="M12.084 1.5C10.163 1.5 8.26798 1.611 6.40398 1.827C4.90698 2.001 3.83398 3.287 3.83398 4.757V21.75C3.83401 21.8726 3.86409 21.9933 3.92159 22.1016C3.97908 22.2099 4.06224 22.3024 4.16379 22.3711C4.26533 22.4397 4.38217 22.4825 4.50406 22.4956C4.62595 22.5086 4.74919 22.4916 4.86298 22.446L8.33398 21.058L11.806 22.446C11.9845 22.5172 12.1835 22.5172 12.362 22.446L15.834 21.058L19.305 22.446C19.4188 22.4916 19.542 22.5086 19.6639 22.4956C19.7858 22.4825 19.9026 22.4397 20.0042 22.3711C20.1057 22.3024 20.1889 22.2099 20.2464 22.1016C20.3039 21.9933 20.334 21.8726 20.334 21.75V4.757C20.334 3.287 19.261 2.001 17.764 1.827C15.8785 1.60865 13.982 1.49947 12.084 1.5ZM15.614 8.78C15.7465 8.63783 15.8186 8.44978 15.8152 8.25548C15.8117 8.06118 15.733 7.87579 15.5956 7.73838C15.4582 7.60097 15.2728 7.52225 15.0785 7.51883C14.8842 7.5154 14.6962 7.58752 14.554 7.72L8.55398 13.72C8.4803 13.7887 8.42119 13.8715 8.3802 13.9635C8.33921 14.0555 8.31717 14.1548 8.31539 14.2555C8.31362 14.3562 8.33214 14.4562 8.36986 14.5496C8.40758 14.643 8.46373 14.7278 8.53495 14.799C8.60616 14.8703 8.691 14.9264 8.78439 14.9641C8.87777 15.0018 8.9778 15.0204 9.07851 15.0186C9.17921 15.0168 9.27852 14.9948 9.37052 14.9538C9.46252 14.9128 9.54532 14.8537 9.61398 14.78L15.614 8.78ZM8.70898 9C8.70898 8.70163 8.82751 8.41549 9.03849 8.20451C9.24947 7.99353 9.53561 7.875 9.83398 7.875C10.1324 7.875 10.4185 7.99353 10.6295 8.20451C10.8405 8.41549 10.959 8.70163 10.959 9C10.959 9.29837 10.8405 9.58452 10.6295 9.7955C10.4185 10.0065 10.1324 10.125 9.83398 10.125C9.53561 10.125 9.24947 10.0065 9.03849 9.7955C8.82751 9.58452 8.70898 9.29837 8.70898 9ZM14.334 12.375C14.0356 12.375 13.7495 12.4935 13.5385 12.7045C13.3275 12.9155 13.209 13.2016 13.209 13.5C13.209 13.7984 13.3275 14.0845 13.5385 14.2955C13.7495 14.5065 14.0356 14.625 14.334 14.625C14.6324 14.625 14.9185 14.5065 15.1295 14.2955C15.3405 14.0845 15.459 13.7984 15.459 13.5C15.459 13.2016 15.3405 12.9155 15.1295 12.7045C14.9185 12.4935 14.6324 12.375 14.334 12.375Z" fill="url(#paint0_linear_2165_990)"/>
<defs>
<linearGradient id="paint0_linear_2165_990" x1="18.2794" y1="19.5799" x2="-0.737268" y2="14.1214" gradientUnits="userSpaceOnUse">
<stop stop-color="#36D1DC"/>
<stop offset="0.963542" stop-color="#5B86E5"/>
</linearGradient>
</defs>
</svg>
