<svg width="20" height="18" viewBox="0 0 20 18" fill="none" xmlns="http://www.w3.org/2000/svg">
<path fill-rule="evenodd" clip-rule="evenodd" d="M1.3749 7.37989C6.74359 4.96064 10.3236 3.36572 12.1148 2.59513C17.2292 0.394949 18.2919 0.0127549 18.9846 0.000134561C19.1369 -0.00264113 19.4776 0.0364092 19.6982 0.221589C19.8845 0.377951 19.9358 0.589174 19.9603 0.737422C19.9848 0.88567 20.0154 1.22338 19.9911 1.48726C19.714 4.49914 18.5147 11.8082 17.9046 15.1815C17.6465 16.6089 17.1382 17.0875 16.6461 17.1344C15.5766 17.2361 14.7645 16.4034 13.7287 15.7011C12.1078 14.6022 11.1921 13.9181 9.61879 12.8457C7.80053 11.6064 8.97923 10.9253 10.0155 9.81214C10.2866 9.52082 14.9987 5.08787 15.0899 4.68573C15.1013 4.63543 15.1119 4.44796 15.0042 4.34897C14.8965 4.24998 14.7376 4.28383 14.6229 4.31075C14.4604 4.34891 11.871 6.11906 6.85486 9.62119C6.11988 10.1432 5.45416 10.3975 4.8577 10.3842C4.20015 10.3695 2.93528 9.99965 1.99498 9.68352C0.84166 9.29577 -0.074973 9.09076 0.00484519 8.43224C0.0464194 8.08924 0.503103 7.73846 1.3749 7.37989Z" fill="white"/>
<path fill-rule="evenodd" clip-rule="evenodd" d="M1.3749 7.37989C6.74359 4.96064 10.3236 3.36572 12.1148 2.59513C17.2292 0.394949 18.2919 0.0127549 18.9846 0.000134561C19.1369 -0.00264113 19.4776 0.0364092 19.6982 0.221589C19.8845 0.377951 19.9358 0.589174 19.9603 0.737422C19.9848 0.88567 20.0154 1.22338 19.9911 1.48726C19.714 4.49914 18.5147 11.8082 17.9046 15.1815C17.6465 16.6089 17.1382 17.0875 16.6461 17.1344C15.5766 17.2361 14.7645 16.4034 13.7287 15.7011C12.1078 14.6022 11.1921 13.9181 9.61879 12.8457C7.80053 11.6064 8.97923 10.9253 10.0155 9.81214C10.2866 9.52082 14.9987 5.08787 15.0899 4.68573C15.1013 4.63543 15.1119 4.44796 15.0042 4.34897C14.8965 4.24998 14.7376 4.28383 14.6229 4.31075C14.4604 4.34891 11.871 6.11906 6.85486 9.62119C6.11988 10.1432 5.45416 10.3975 4.8577 10.3842C4.20015 10.3695 2.93528 9.99965 1.99498 9.68352C0.84166 9.29577 -0.074973 9.09076 0.00484519 8.43224C0.0464194 8.08924 0.503103 7.73846 1.3749 7.37989Z" fill="url(#paint0_linear_2150_720)"/>
<defs>
<linearGradient id="paint0_linear_2150_720" x1="17.5095" y1="14.7592" x2="-3.60469" y2="5.7603" gradientUnits="userSpaceOnUse">
<stop stop-color="#36D1DC"/>
<stop offset="0.963542" stop-color="#5B86E5"/>
</linearGradient>
</defs>
</svg>
