<svg width="146" height="59" viewBox="0 0 146 59" fill="none" xmlns="http://www.w3.org/2000/svg">
<g clip-path="url(#clip0_1648_1391)">
<path d="M118.949 45.7739H117.017V47.0852C116.275 46.0327 115.447 45.5324 114.085 45.5324C111.549 45.5324 109.91 47.4475 109.91 50.3979C109.91 53.2447 111.497 55.0563 113.981 55.0563C115.327 55.0563 116.258 54.5905 116.966 53.469V54.5732C116.966 56.4884 116.224 57.3338 114.499 57.3338C113.187 57.3338 112.515 56.9025 112.308 55.9363H110.237C110.479 57.8341 111.894 58.7831 114.447 58.7831C117.828 58.7831 118.949 57.1267 118.949 54.0384V45.7739ZM114.447 47.1887C116.017 47.1887 116.948 48.3275 116.948 50.2426C116.948 52.2095 115.982 53.4345 114.447 53.4345C112.929 53.4345 111.963 52.244 111.963 50.3461C111.963 48.362 112.877 47.1887 114.447 47.1887ZM125.471 45.4979C122.555 45.4979 120.692 47.4475 120.692 50.4496C120.692 53.5035 122.555 55.4186 125.471 55.4186C128.352 55.4186 130.163 53.5035 130.163 50.4496C130.163 47.4303 128.352 45.4979 125.471 45.4979ZM125.436 47.137C127.075 47.137 128.076 48.3965 128.076 50.4324C128.076 52.5373 127.092 53.8141 125.453 53.8141C123.78 53.8141 122.779 52.5546 122.779 50.4496C122.779 48.3965 123.797 47.137 125.436 47.137ZM134.045 42.2197H131.974V55.1426H134.045V42.2197ZM145.189 42.2197H143.153V46.9989C142.498 46.0327 141.497 45.5324 140.169 45.5324C137.564 45.5324 135.908 47.4303 135.908 50.4496C135.908 53.4863 137.581 55.4014 140.238 55.4014C141.635 55.4014 142.653 54.8665 143.24 53.8658V55.1598H145.189V42.2197ZM140.548 47.1887C142.222 47.1887 143.205 48.3792 143.205 50.4324C143.205 52.5028 142.239 53.7106 140.617 53.7106C138.996 53.7106 137.995 52.4338 137.995 50.3979C137.995 48.3965 138.979 47.1887 140.548 47.1887Z" fill="#CBA659"/>
<path d="M76.3898 18.9444H71.6284L64.6243 25.8975V12.3018H60.8462V36.4394H64.6243V30.1764L66.936 28.0024L72.2667 36.4394H76.9936L69.6617 25.3454L76.3898 18.9444ZM80.1334 24.3274H83.808C84.1185 22.05 85.2054 21.2046 87.7068 21.2046C90.1566 21.2046 91.3124 22.05 91.3124 23.8443C91.3124 24.4827 91.2434 24.8968 91.0709 25.1039C90.6914 25.6042 89.915 25.7767 87.2238 26.1218C83.7217 26.5704 79.3743 27.0017 79.3743 31.6429C79.3743 34.8693 81.6515 36.8707 85.2916 36.8707C87.6033 36.8707 89.846 36.3014 91.4332 34.7658C91.7092 36.2841 92.796 36.8707 94.2797 36.8707C95.0215 36.8707 95.5735 36.8017 96.7984 36.4912V33.7824C96.3154 33.8514 96.1946 33.8514 95.9186 33.8514C95.2113 33.8514 95.0042 33.5753 95.0042 32.5574V23.6718C95.0042 19.9106 91.9507 18.375 87.8104 18.375C83.532 18.4095 80.582 20.0313 80.1334 24.3274ZM91.2779 27.6574V29.7278C91.2779 30.7803 91.3124 31.9362 90.5016 32.7472C89.6218 33.6271 88.1209 34.1447 86.5337 34.1447C84.5326 34.1447 83.3767 33.1957 83.3767 31.5394C83.3767 29.2274 85.4124 28.8996 87.2238 28.6236C88.5867 28.3993 90.0185 28.3648 91.2779 27.6574ZM114.309 24.0341C114.309 20.0658 110.979 18.444 106.977 18.444C102.491 18.444 99.8002 20.4109 99.8002 23.7408C99.8002 27.5021 102.957 28.0197 106.977 29.0031C109.185 29.538 111.152 29.8486 111.152 31.6084C111.152 33.1612 109.651 34.1447 107.374 34.1447C104.958 34.1447 103.337 33.1612 103.13 30.8493H99.4206C99.6277 34.8521 102.336 36.957 107.305 36.957C111.997 36.957 114.947 34.714 114.947 31.1943C114.947 27.3296 111.203 26.5531 108.15 25.8458C105.338 25.2074 103.665 25.0693 103.665 23.3095C103.665 22.0155 104.82 21.2736 106.787 21.2736C108.857 21.2736 110.324 21.912 110.6 24.0514L114.309 24.0341ZM122.986 18.9444H119.346V42.9095H123.193V34.1274C124.591 36.0598 126.523 36.8707 128.904 36.8707C133.63 36.8707 136.684 33.282 136.684 27.7436C136.684 22.0845 133.561 18.4268 128.697 18.4268C126.419 18.4268 124.211 19.3067 122.986 21.2736V18.9444ZM127.903 21.5496C130.887 21.5496 132.768 23.9651 132.768 27.7609C132.768 31.4876 130.939 33.7996 127.972 33.7996C124.884 33.7996 123.038 31.4876 123.038 27.6919C123.055 23.8616 124.849 21.5496 127.903 21.5496ZM145.241 12.1982H141.376V15.994H145.241V12.1982ZM145.241 18.9444H141.376V36.4394H145.241V18.9444Z" fill="#1C1B17"/>
<path d="M11.041 46.4812C13.715 35.3872 10.5407 35.0076 10.5407 29.6245C10.5407 27.8301 11.9553 23.534 12.1623 21.4463C12.6454 16.6499 11.455 17.9266 14.9571 14.3724L15.1641 9.43791C16.9238 7.74707 17.8036 6.22876 19.96 6.76362C21.2712 10.6629 18.7869 9.43791 18.5454 13.9928C20.0118 15.9425 20.9951 16.1323 22.0992 18.5823C23.4966 21.6879 22.496 21.6534 25.1355 24.2587C29.0171 24.7072 31.3633 24.7245 34.1408 21.9294C34.4341 18.9446 32.7089 19.2034 34.4686 16.4601C35.6762 14.5794 36.8665 13.5615 39.1265 14.3206C39.8683 17.2537 36.5388 17.8576 37.5739 21.1185C42.042 21.5671 43.0771 15.4076 46.4929 15.0971C46.4929 21.6706 39.6268 22.5333 39.4715 27.8819C39.368 31.2291 42.3353 40.4424 45.3371 42.4093C47.9765 38.3548 50.823 33.9379 51.1508 29.0379C53.4453 -4.39939 9.21232 -10.4899 0.810822 18.7893C0.379534 20.2904 0.120761 21.8087 0 23.327V27.209C0.741816 36.8365 6.67635 45.2907 11.041 46.4812Z" fill="#EF4635"/>
<path d="M23.9795 50.9674C35.9348 52.3822 34.6755 48.69 32.312 35.077C31.3804 29.7111 30.2936 26.8816 23.9278 27.3819C19.9599 32.0921 21.9611 41.271 22.0991 45.291C22.2026 48.4657 21.6678 48.6727 23.9795 50.9674ZM37.729 47.6893C39.7302 47.4477 40.0752 47.0336 41.6969 45.7396C41.9556 42.9963 40.0752 38.5794 37.1424 37.6995C35.7623 40.3565 36.1591 45.084 37.729 47.6893ZM18.0277 49.9667C18.0277 46.6196 18.4418 39.7009 16.7166 37.3199C14.4222 37.9928 15.1295 39.9597 15.1122 44.1523C15.095 47.2234 14.5257 49.6562 18.0277 49.9667Z" fill="#EF4635"/>
</g>
<defs>
<clipPath id="clip0_1648_1391">
<rect width="145.241" height="58.7826" fill="white"/>
</clipPath>
</defs>
</svg>
