<svg width="151" height="54" viewBox="0 0 151 54" fill="none" xmlns="http://www.w3.org/2000/svg">
<path fill-rule="evenodd" clip-rule="evenodd" d="M26.4513 0L17.6037 8.87714H8.84756V17.6625L0 26.5391L8.84756 35.4168V44.2022H17.6037L26.4513 53.0788L35.2988 44.2022H44.0549V35.4168L52.9024 26.5391L44.0549 17.6625V8.87714H35.2988L26.4513 0ZM11.0485 36.0629L1.55586 26.5391L11.0485 17.0159V11.0849H16.9591L26.4513 1.56107L35.9433 11.0849H41.8545V17.0159L51.3466 26.5391L41.8545 36.0629V41.9945H35.9433L26.4513 51.5183L16.9591 41.9945H11.0485V36.0629ZM4.66757 26.5391L26.4513 48.3961L48.2349 26.5391L26.4513 4.68319L4.66757 26.5391Z" fill="#00805F"/>
<path fill-rule="evenodd" clip-rule="evenodd" d="M41.8542 20.1384C38.1786 24.5843 32.6354 27.423 26.4509 27.423C21.6773 27.4235 17.7847 31.3292 17.7847 36.1188C17.7847 38.3808 18.6528 40.4452 20.0717 41.9949H20.0706L26.4509 48.396L48.2347 26.5401L41.8542 20.1384ZM11.0478 32.9408C14.7234 28.4949 20.2665 25.6573 26.4509 25.6567C31.2246 25.6567 35.1178 21.751 35.1178 16.9609C35.1178 14.6994 34.2498 12.6345 32.8308 11.0853L26.4509 4.68364L4.66788 26.5401L11.0478 32.9419V32.9408ZM1.55615 26.5401L11.0477 17.0163V11.0853H16.9589L26.4509 1.56152L35.9431 11.0853H41.8543V17.0163L51.3464 26.5401L41.8543 36.0639V41.9949H35.9431L26.4509 51.5187L16.9589 41.9949H11.0477V36.0639L1.55615 26.5401Z" fill="#FAAE17"/>
<path fill-rule="evenodd" clip-rule="evenodd" d="M90.7071 38.9041L87.1862 31.8388L83.6659 38.9041H90.7071ZM58.1406 37.1377V41.5533H68.2626C69.4726 41.5533 70.463 40.5601 70.463 39.3455C70.463 38.1314 69.4726 37.1377 68.2626 37.1377H58.1406ZM58.1406 30.073V34.4886H68.2626C69.4726 34.4886 70.463 33.4949 70.463 32.2808C70.463 31.0662 69.4726 30.073 68.2626 30.073H58.1406ZM99.5088 27.4233H103.91L116.232 39.7869V27.4233H120.633V44.203H116.232L103.91 31.8388V44.203H99.5088V27.4233ZM129.963 35.8129L141.318 27.4233H136.477L126.795 34.4886V27.4233H122.393V44.203H126.795V37.1377L136.477 44.203H141.318L129.963 35.8129ZM132.075 8.87793H136.477V15.9427L146.159 8.87793H151L139.646 17.2675L151 25.657H146.159L136.477 18.5924V25.657H132.075V8.87793ZM122.393 18.5924L130.755 8.87793H126.355L120.193 15.9427L114.032 8.87793H109.631L117.993 18.5924V25.657H122.393V18.5924ZM99.5088 8.87793H103.91V23.0078H116.232V25.657H99.5088V8.87793ZM87.1862 13.2935L90.7071 20.3586H83.6659L87.1862 13.2935ZM93.3471 25.657H97.749L89.3866 8.87793H84.9858L76.6242 25.657H81.025L82.3454 23.0078H92.0275L93.3471 25.657ZM53.7393 8.87793H58.1406V15.9427H70.463V8.87793H74.8638V25.657H70.463V18.5924H58.1406V25.657H53.7393V8.87793ZM53.7393 27.4233H70.6827C72.9827 27.4233 74.8638 29.3113 74.8638 31.6184C74.8638 33.9255 72.9827 35.8129 70.6827 35.8129C72.9827 35.8129 74.8638 37.7008 74.8638 40.0079C74.8638 42.315 72.9827 44.203 70.6827 44.203H53.7393V27.4233ZM81.025 44.203H76.6242L84.9858 27.4233H89.3866L97.749 44.203H93.3471L92.0275 41.5533H82.3454L81.025 44.203Z" fill="#00805F"/>
</svg>
