<svg width="20" height="20" viewBox="0 0 20 20" fill="none" xmlns="http://www.w3.org/2000/svg">
<path d="M19.7212 10.7524C19.8568 9.03033 19.5305 7.30331 18.7762 5.74937C17.5275 6.93576 16.0515 7.85695 14.4372 8.45737C14.567 10.0507 14.4951 11.654 14.2232 13.2294C16.1877 12.7346 18.049 11.896 19.7212 10.7524ZM12.6342 13.5504C12.9536 12.0234 13.0653 10.4602 12.9662 8.90337C12.0142 9.13037 11.0212 9.25037 10.0002 9.25037C8.97919 9.25037 7.98619 9.13037 7.03419 8.90337C6.93743 10.4602 7.04908 12.0231 7.36619 13.5504C9.11199 13.818 10.8884 13.818 12.6342 13.5504ZM7.77219 15.1194C9.25236 15.2945 10.748 15.2945 12.2282 15.1194C11.7195 16.7569 10.9685 18.3091 10.0002 19.7244C9.03186 18.3092 8.28087 16.757 7.77219 15.1194ZM5.77719 13.2304C5.50383 11.6545 5.43192 10.0503 5.56319 8.45637C3.94847 7.85609 2.47211 6.93489 1.22319 5.74837C0.469003 7.3027 0.143132 9.03009 0.279187 10.7524C1.95133 11.896 3.81271 12.7356 5.77719 13.2304ZM19.3562 12.7524C18.8513 14.4633 17.8874 16.0033 16.5691 17.205C15.2507 18.4068 13.6284 19.2245 11.8782 19.5694C12.7547 18.0956 13.4237 16.508 13.8662 14.8514C15.7957 14.447 17.6487 13.7388 19.3562 12.7534V12.7524ZM0.644187 12.7524C2.32619 13.7234 4.17419 14.4404 6.13419 14.8514C6.57669 16.508 7.24567 18.0956 8.12219 19.5694C6.37208 19.2246 4.74983 18.407 3.43153 17.2055C2.11323 16.0039 1.14924 14.4641 0.644187 12.7534V12.7524ZM11.8782 0.430367C14.3559 0.917375 16.5483 2.3462 17.9942 4.41637C16.9269 5.49475 15.6527 6.34644 14.2482 6.92037C13.8698 4.62818 13.0659 2.427 11.8782 0.430367ZM10.0002 0.276367C11.4596 2.40847 12.4185 4.84273 12.8052 7.39737C11.9082 7.62737 10.9682 7.75037 10.0002 7.75037C9.03219 7.75037 8.09219 7.62837 7.19519 7.39737C7.58187 4.84272 8.54074 2.40845 10.0002 0.276367ZM8.12219 0.430367C6.93442 2.42699 6.13059 4.62818 5.75219 6.92037C4.34764 6.34647 3.0735 5.49477 2.00619 4.41637C3.45222 2.3465 5.64458 0.917028 8.12219 0.430367Z" fill="url(#paint0_linear_2165_921)"/>
<defs>
<linearGradient id="paint0_linear_2165_921" x1="17.3227" y1="17.0202" x2="-4.12724" y2="9.16241" gradientUnits="userSpaceOnUse">
<stop stop-color="#36D1DC"/>
<stop offset="0.963542" stop-color="#5B86E5"/>
</linearGradient>
</defs>
</svg>
