<svg width="20" height="20" viewBox="0 0 20 20" fill="none" xmlns="http://www.w3.org/2000/svg">
<g clip-path="url(#clip0_2165_938)">
<path d="M0.348633 19.6528L1.71444 14.6955C0.869167 13.2459 0.425042 11.5967 0.425042 9.91417C0.429817 4.63851 4.74213 0.34668 10.043 0.34668C12.617 0.34668 15.0287 1.34478 16.8434 3.15086C18.6581 4.95695 19.6562 7.36189 19.6562 9.91893C19.6562 15.1946 15.3391 19.4864 10.043 19.4864H10.0382C8.42885 19.4864 6.84815 19.0824 5.44414 18.322L0.348633 19.6528Z" fill="url(#paint0_linear_2165_938)"/>
<path fill-rule="evenodd" clip-rule="evenodd" d="M7.55459 5.76552C7.36835 5.35202 7.17255 5.34251 6.99586 5.33776C6.85259 5.33301 6.68545 5.33301 6.5183 5.33301C6.35116 5.33301 6.08373 5.39479 5.8545 5.64194C5.62527 5.88909 4.98535 6.48795 4.98535 7.70943C4.98535 8.92616 5.87838 10.1049 6.00254 10.2712C6.12671 10.4376 7.72651 13.0184 10.2528 14.0117C12.354 14.8387 12.7838 14.6724 13.2375 14.6296C13.6912 14.5868 14.7084 14.0307 14.9185 13.4509C15.1238 12.871 15.1238 12.3767 15.0618 12.2722C14.9997 12.1676 14.8325 12.1058 14.5842 11.9822C14.3359 11.8587 13.1133 11.2598 12.8841 11.1743C12.6549 11.0935 12.4877 11.0507 12.3254 11.2978C12.1582 11.545 11.6807 12.1011 11.5374 12.2674C11.3941 12.4338 11.2461 12.4528 10.9978 12.3292C10.7494 12.2056 9.94714 11.9442 8.99681 11.0982C8.2566 10.4423 7.75517 9.62959 7.6119 9.38244C7.46863 9.13529 7.59757 9.00221 7.72174 8.87864C7.83158 8.76932 7.97007 8.58871 8.09423 8.44613C8.2184 8.30354 8.26138 8.19898 8.34256 8.03263C8.42374 7.86628 8.38554 7.72369 8.32346 7.60012C8.26138 7.4813 7.77427 6.25506 7.55459 5.76552Z" fill="white"/>
</g>
<defs>
<linearGradient id="paint0_linear_2165_938" x1="17.2519" y1="16.9683" x2="-3.99753" y2="9.205" gradientUnits="userSpaceOnUse">
<stop stop-color="#36D1DC"/>
<stop offset="0.963542" stop-color="#5B86E5"/>
</linearGradient>
<clipPath id="clip0_2165_938">
<rect width="20" height="20" fill="white"/>
</clipPath>
</defs>
</svg>
