<svg width="151" height="32" viewBox="0 0 151 32" fill="none" xmlns="http://www.w3.org/2000/svg">
<g clip-path="url(#clip0_1648_2120)">
<path d="M8.31413 5.37564C9.37515 5.36476 10.4118 5.69515 11.2722 6.31842C12.1941 6.97833 12.9238 7.87337 13.3857 8.91105C13.9155 10.0545 14.181 11.3034 14.1625 12.5643C14.1682 13.7105 13.9019 14.8416 13.3857 15.864C12.9018 16.8482 12.174 17.691 11.2722 18.3116C10.4001 18.907 9.36878 19.2231 8.31413 19.2181C5.41781 19.2181 3.70319 17.6393 3.17029 14.4816H2.79094L3.02578 18.8646H0V0H3.00772V5.51615L2.79094 9.85383H3.2832C3.5096 8.58525 4.14415 7.42615 5.08963 6.55411C5.98153 5.77333 7.13083 5.35329 8.31413 5.37564ZM7.27994 16.2176C7.98438 16.2286 8.67973 16.0568 9.29863 15.719C9.87825 15.4046 10.3585 14.9335 10.6851 14.3592C11.1053 13.6067 11.275 12.7391 11.1694 11.8829C11.0638 11.0268 10.6884 10.227 10.098 9.6C9.72858 9.23175 9.28801 8.94326 8.80338 8.75228C8.31874 8.56131 7.80029 8.47188 7.27994 8.48952C6.57992 8.47953 5.89023 8.65963 5.28382 9.01077C4.695 9.33288 4.20712 9.81313 3.87481 10.3977C3.52378 10.9958 3.34552 11.68 3.35997 12.3739C3.36334 13.0298 3.54107 13.6729 3.87481 14.2368C4.23288 14.8281 4.72297 15.3277 5.30641 15.6963C5.90473 16.0471 6.58709 16.2273 7.27994 16.2176Z" fill="#3B95FF"/>
<path d="M18.5972 13.1987C18.735 14.0826 19.1855 14.8872 19.8662 15.4649C20.6052 16.0336 21.5189 16.3253 22.4494 16.2899C23.2137 16.3155 23.9726 16.153 24.6599 15.8164C25.3471 15.4798 25.9418 14.9794 26.3919 14.359L28.388 15.7188C27.8362 16.8207 26.9699 17.7327 25.8997 18.3386C24.843 18.9209 23.6548 19.2206 22.4494 19.2088C21.2451 19.2206 20.0597 18.9075 19.0172 18.3023C17.9823 17.6876 17.1187 16.8208 16.5062 15.7822C15.9024 14.7197 15.5907 13.5153 15.603 12.2921C15.5889 11.0774 15.9009 9.88125 16.5062 8.82924C17.1157 7.79423 17.9804 6.93415 19.0172 6.3318C20.0531 5.70669 21.2407 5.38046 22.4494 5.38902C23.6793 5.36349 24.8887 5.7076 25.9223 6.37712C26.9428 7.06083 27.7431 8.02781 28.2255 9.16013C28.7743 10.437 29.0231 11.8235 28.9526 13.2123L18.5972 13.1987ZM22.4494 8.24908C21.5445 8.22556 20.6608 8.52602 19.9565 9.09667C19.2854 9.63557 18.8094 10.3809 18.6017 11.2179H26.1165C25.9655 10.3555 25.4962 9.58195 24.8023 9.05134C24.1285 8.51628 23.2904 8.2327 22.4313 8.24908H22.4494Z" fill="#3B95FF"/>
<path d="M34.9457 11.9475C34.9055 12.8952 34.9752 13.8443 35.1534 14.7758C35.2161 15.009 35.3415 15.2203 35.516 15.3866C35.6904 15.5529 35.9072 15.6678 36.1424 15.7186C37.1591 15.881 38.189 15.9448 39.2179 15.909V18.8551C36.9026 18.8551 35.2467 18.6663 34.2502 18.2886C33.8091 18.149 33.408 17.9047 33.081 17.5765C32.7539 17.2483 32.5106 16.8457 32.3715 16.403C32.0652 14.9388 31.9393 13.4425 31.9967 11.9475V8.52992H29.436V5.51575H32.0192V0.942383H34.9547V5.51575H39.2043V8.52992H34.9457V11.9475Z" fill="#3B95FF"/>
<path d="M45.7842 5.37605C47.9941 5.37605 49.638 5.89427 50.7158 6.93072C51.7937 7.96717 52.3341 9.51429 52.3371 11.5721V18.8559H49.4468L49.8984 14.3234H49.5462C48.9952 17.5566 47.3107 19.1732 44.4926 19.1732C42.8819 19.1732 41.6776 18.8272 40.8798 18.1353C40.4669 17.7227 40.1473 17.2259 39.9425 16.6785C39.7377 16.1311 39.6526 15.5459 39.6928 14.9626C39.7331 14.3793 39.8978 13.8115 40.1758 13.2977C40.4539 12.7839 40.8387 12.336 41.3043 11.9845C42.3821 11.214 43.9387 10.8287 45.9739 10.8287H49.4062C49.3554 10.4602 49.2288 10.1063 49.0344 9.7895C48.84 9.4727 48.5821 9.19993 48.2771 8.98851C47.5289 8.53548 46.6609 8.32203 45.7888 8.37661C45.1256 8.34954 44.4677 8.50636 43.8875 8.82987C43.3014 9.19308 42.7969 9.67467 42.4062 10.244L40.0127 8.61684C40.6634 7.6283 41.5201 6.79323 42.5236 6.16925C43.5195 5.61496 44.646 5.34092 45.7842 5.37605ZM44.9397 16.1455C46.2524 16.1455 47.261 15.8629 47.9655 15.2979C48.713 14.6652 49.1965 13.7739 49.3203 12.8004H45.983C45.1294 12.7503 44.2762 12.9057 43.4946 13.2537C43.2746 13.3663 43.0864 13.5328 42.9475 13.7378C42.8087 13.9427 42.7236 14.1796 42.7002 14.4264C42.6768 14.6731 42.7158 14.9218 42.8136 15.1494C42.9114 15.377 43.0649 15.5762 43.2598 15.7285C43.7615 16.0429 44.3498 16.1889 44.9397 16.1455Z" fill="#3B95FF"/>
<path d="M59.2422 11.9475C59.2027 12.8953 59.2739 13.8446 59.4544 14.7758C59.5163 15.0086 59.6409 15.2198 59.8146 15.3862C59.9883 15.5525 60.2043 15.6675 60.4389 15.7186C61.4556 15.881 62.4855 15.9448 63.5144 15.909V18.8551C61.1991 18.8551 59.5432 18.6663 58.5467 18.2886C58.1059 18.1483 57.7052 17.9038 57.3783 17.5757C57.0513 17.2475 56.8077 16.8454 56.668 16.403C56.3641 14.9385 56.2382 13.4424 56.2932 11.9475V8.52992H53.71V5.51575H56.2932V0.942383H59.2422V5.51575H63.4918V8.52992H59.2422V11.9475Z" fill="black"/>
<path d="M67.7232 9.87617C67.8322 8.91113 68.1531 7.98234 68.6625 7.15662C69.0699 6.55148 69.663 6.09633 70.3516 5.8603C71.231 5.60175 72.1452 5.48247 73.0612 5.50676V8.78381C72.6275 8.6917 72.1858 8.64311 71.7425 8.63877C71.2078 8.60783 70.6731 8.69764 70.1775 8.90159C69.682 9.10554 69.2384 9.41844 68.8793 9.81724C68.22 10.5878 67.8948 11.6665 67.8948 13.049V18.8552H64.9097V5.49316H67.8948L67.2355 9.87617H67.7232Z" fill="black"/>
<path d="M79.8897 5.37605C82.0936 5.37605 83.7374 5.89427 84.8213 6.93072C85.9051 7.96717 86.4441 9.51429 86.438 11.5721V18.8559H83.5522L84.0039 14.3234H83.6516C83.0976 17.5566 81.4131 19.1732 78.5981 19.1732C76.9843 19.1732 75.7801 18.8272 74.9852 18.1353C74.5721 17.723 74.2522 17.2265 74.047 16.6792C73.8419 16.132 73.7563 15.547 73.7961 14.9637C73.836 14.3804 74.0003 13.8125 74.2779 13.2985C74.5555 12.7845 74.94 12.3364 75.4052 11.9845C76.4891 11.214 78.0471 10.8287 80.0794 10.8287H83.5071C83.4582 10.4602 83.3328 10.106 83.1392 9.78902C82.9455 9.47205 82.6877 9.19936 82.3826 8.98851C81.6344 8.53548 80.7664 8.32203 79.8942 8.37661C79.2295 8.3487 78.57 8.50555 77.9884 8.82987C77.4044 9.19421 76.9017 9.67565 76.5117 10.244L74.1136 8.61684C74.7671 7.62902 75.6251 6.79419 76.6291 6.16925C77.625 5.61496 78.7515 5.34092 79.8897 5.37605ZM79.0407 16.1455C80.3594 16.1455 81.3665 15.8644 82.071 15.2979C82.8184 14.6652 83.3019 13.7739 83.4258 12.8004H80.0884C79.2348 12.7503 78.3817 12.9057 77.6 13.2537C77.38 13.3663 77.1919 13.5328 77.053 13.7378C76.9141 13.9427 76.829 14.1796 76.8056 14.4264C76.7822 14.6731 76.8212 14.9218 76.919 15.1494C77.0169 15.377 77.1703 15.5762 77.3652 15.7285C77.8654 16.0425 78.4522 16.1886 79.0407 16.1455Z" fill="black"/>
<path d="M96.4188 5.16284C98.2824 5.16284 99.6764 5.74452 100.601 6.90788C101.525 8.07125 101.995 9.94773 102.01 12.5373V18.8558H99.0968V12.5373C99.0968 11.0446 98.8153 9.94471 98.2523 9.23763C97.6893 8.53055 96.7966 8.17701 95.5743 8.17701C95.0208 8.15202 94.4689 8.2537 93.9603 8.47435C93.4518 8.69501 92.9999 9.02887 92.6388 9.45066C91.9163 10.2847 91.5595 11.4858 91.5595 13.0767V18.8558H88.5518V5.51638H91.5595L90.9001 9.87672H91.3517C91.4608 8.85481 91.7807 7.86688 92.2911 6.97587C92.6701 6.33667 93.2476 5.8399 93.9349 5.56171C94.7308 5.27428 95.5733 5.13899 96.4188 5.16284Z" fill="black"/>
<path d="M106.232 14.0006C106.552 14.6755 107.037 15.2585 107.641 15.6958C108.307 16.0963 109.074 16.2932 109.849 16.2624C111.761 16.2624 112.716 15.8454 112.713 15.0114C112.716 14.8169 112.666 14.6252 112.566 14.4584C112.466 14.2916 112.321 14.1565 112.148 14.0686C111.463 13.7534 110.736 13.5397 109.989 13.4341L109.145 13.28C107.363 12.9506 106.071 12.4475 105.27 11.7706C104.88 11.4362 104.571 11.0182 104.363 10.5475C104.156 10.0768 104.057 9.56538 104.073 9.05106C104.071 8.40352 104.267 7.77086 104.633 7.23803C105.099 6.6357 105.725 6.17834 106.44 5.91905C107.397 5.54869 108.418 5.37305 109.443 5.40233C110.731 5.33427 112.009 5.66324 113.105 6.34511C114.092 7.0518 114.872 8.01133 115.364 9.12358L112.848 10.3247C112.502 9.68552 112.002 9.14331 111.394 8.74738C110.797 8.42087 110.122 8.26415 109.443 8.29412C108.792 8.24964 108.14 8.36312 107.542 8.625C107.377 8.69171 107.236 8.8055 107.136 8.95219C107.035 9.09889 106.98 9.272 106.977 9.44993C106.973 9.61841 107.012 9.78518 107.091 9.93381C107.17 10.0824 107.287 10.2078 107.429 10.2975C107.974 10.5837 108.561 10.7825 109.167 10.8868L110.012 11.0499C111.186 11.2278 112.331 11.5616 113.417 12.0426C114.099 12.3233 114.685 12.7955 115.106 13.4023C115.437 13.9771 115.599 14.6337 115.574 15.2968C115.549 15.9599 115.338 16.6025 114.966 17.1508C114.495 17.8116 113.842 18.3203 113.087 18.6148C112.065 19.0197 110.971 19.211 109.872 19.1768C108.523 19.2302 107.184 18.917 105.997 18.2703C104.895 17.5281 104.01 16.503 103.437 15.3015L106.232 14.0006Z" fill="black"/>
<path d="M126.808 2.59264C125.88 2.55324 124.951 2.6079 124.035 2.75581C123.805 2.78795 123.586 2.87303 123.395 3.00436C123.204 3.13569 123.046 3.30971 122.933 3.51275C122.699 4.15386 122.587 4.8335 122.603 5.51615H126.808V8.53032H122.581V18.8555H119.645V8.53032H117.048V5.51615H119.654C119.627 4.39223 119.809 3.27308 120.192 2.21643C120.387 1.81153 120.666 1.45301 121.01 1.16465C121.354 0.876289 121.756 0.664694 122.188 0.543908C123.19 0.181302 124.733 0 126.817 0L126.808 2.59264Z" fill="black"/>
<path d="M130.271 13.1987C130.409 14.0826 130.859 14.8872 131.54 15.465C132.279 16.0329 133.193 16.3246 134.123 16.2899C134.888 16.3155 135.648 16.153 136.336 15.8164C137.024 15.4799 137.619 14.9795 138.07 14.359L140.066 15.7188C139.513 16.821 138.645 17.733 137.574 18.3386C136.517 18.9209 135.329 19.2206 134.123 19.2089C132.92 19.2211 131.736 18.908 130.696 18.3023C129.659 17.6878 128.794 16.821 128.18 15.7822C127.576 14.7198 127.264 13.5153 127.277 12.2921C127.263 11.0774 127.575 9.88117 128.18 8.82925C128.791 7.79405 129.658 6.93403 130.696 6.3318C131.73 5.70619 132.916 5.37989 134.123 5.38903C135.355 5.36342 136.565 5.7075 137.601 6.37713C138.619 7.0615 139.418 8.02841 139.899 9.16014C140.451 10.4361 140.7 11.8233 140.626 13.2123L130.271 13.1987ZM134.123 8.24908C133.22 8.22505 132.337 8.52563 131.635 9.09668C130.964 9.63603 130.488 10.3812 130.28 11.2179H137.822C137.675 10.3541 137.205 9.57918 136.508 9.05135C135.83 8.51329 134.987 8.22953 134.123 8.24908Z" fill="black"/>
<path d="M144.854 9.87617C144.963 8.91113 145.283 7.98234 145.793 7.15662C146.2 6.55148 146.793 6.09633 147.482 5.8603C148.361 5.60146 149.276 5.48217 150.192 5.50676V8.78381C149.758 8.6917 149.316 8.64311 148.873 8.63877C148.338 8.60783 147.803 8.69764 147.308 8.90159C146.812 9.10554 146.369 9.41844 146.01 9.81724C145.35 10.5878 145.025 11.6665 145.025 13.049V18.8552H142.04V5.49316H145.048L144.388 9.87617H144.854Z" fill="black"/>
<path d="M116.759 24.3848L113.819 28.1831L116.759 31.9995H114.853L112.898 29.3842L111.922 30.6397V31.9995H110.36V24.3848H111.922V28.3372L114.853 24.3848H116.759Z" fill="#3B95FF"/>
<path d="M124.879 31.9995L124.274 30.5899H120.697L120.092 31.9995H118.326L121.591 24.3848H123.371L126.654 31.9995H124.879ZM121.393 28.9717H123.574L122.467 26.4244L121.393 28.9717Z" fill="#3B95FF"/>
<path d="M129.278 29.3255C129.433 29.6706 129.689 29.9607 130.011 30.158C130.333 30.3552 130.707 30.4505 131.084 30.4314C131.418 30.4452 131.751 30.3929 132.064 30.2773C132.162 30.2422 132.247 30.1777 132.308 30.0926C132.368 30.0076 132.402 29.9059 132.403 29.8014C132.404 29.6691 132.369 29.539 132.3 29.426C132.231 29.313 132.132 29.2217 132.015 29.1623C131.586 28.9585 131.129 28.8209 130.66 28.7544L130.109 28.6501C129.521 28.5567 128.984 28.2601 128.591 27.8116C128.219 27.3667 128.02 26.8015 128.031 26.2206C128.023 25.8662 128.138 25.5199 128.356 25.2416C128.595 24.9506 128.907 24.7298 129.26 24.6025C129.695 24.4498 130.154 24.3761 130.615 24.385C131.268 24.3528 131.917 24.5102 132.484 24.8382C132.995 25.1909 133.386 25.6924 133.604 26.275L132.249 26.8189C132.092 26.5345 131.859 26.2992 131.576 26.1391C131.242 25.9759 130.873 25.898 130.502 25.9124C130.268 25.9006 130.035 25.9424 129.82 26.0348C129.739 26.0831 129.674 26.1536 129.632 26.238C129.591 26.3224 129.574 26.4171 129.585 26.5107C129.579 26.6058 129.599 26.7007 129.644 26.7848C129.689 26.8689 129.756 26.9388 129.838 26.9867C130.127 27.1191 130.43 27.218 130.741 27.2813L131.193 27.3901C131.978 27.5248 132.712 27.8727 133.315 28.3963C133.524 28.6053 133.689 28.855 133.798 29.1302C133.908 29.4053 133.96 29.7001 133.952 29.9963C133.961 30.2973 133.89 30.5953 133.746 30.8597C133.602 31.1241 133.391 31.3454 133.135 31.5011C132.475 31.8691 131.725 32.0435 130.971 32.0042C130.306 32.0305 129.647 31.862 129.075 31.5192C128.508 31.0996 128.044 30.5554 127.72 29.9283L129.278 29.3255Z" fill="#3B95FF"/>
<path d="M136.919 29.326C137.074 29.6712 137.33 29.9613 137.652 30.1585C137.974 30.3558 138.348 30.4511 138.725 30.432C139.059 30.4458 139.392 30.3934 139.705 30.2779C139.803 30.2427 139.888 30.1783 139.949 30.0932C140.009 30.0081 140.042 29.9065 140.044 29.8019C140.046 29.6636 140.008 29.5276 139.934 29.4108C139.86 29.294 139.754 29.2015 139.628 29.1447C139.2 28.9409 138.743 28.8033 138.273 28.7368L137.723 28.6325C137.135 28.5392 136.598 28.2426 136.205 27.794C135.831 27.3501 135.632 26.7842 135.645 26.2031C135.636 25.8486 135.751 25.5023 135.97 25.224C136.208 24.9331 136.52 24.7122 136.873 24.5849C137.309 24.4322 137.767 24.3585 138.228 24.3674C138.882 24.3353 139.531 24.4926 140.098 24.8206C140.609 25.1733 141 25.6748 141.218 26.2575L139.863 26.8014C139.705 26.5169 139.473 26.2816 139.19 26.1215C138.856 25.9583 138.487 25.8805 138.115 25.8949C137.882 25.883 137.649 25.9248 137.433 26.0172C137.353 26.0655 137.288 26.136 137.246 26.2205C137.205 26.3049 137.188 26.3996 137.199 26.4932C137.193 26.5882 137.213 26.6832 137.258 26.7672C137.302 26.8513 137.369 26.9212 137.452 26.9691C137.74 27.1024 138.043 27.2013 138.355 27.2637L138.806 27.3725C139.592 27.5072 140.326 27.8552 140.929 28.3787C141.138 28.5877 141.303 28.8374 141.412 29.1126C141.522 29.3878 141.574 29.6825 141.566 29.9787C141.574 30.2797 141.503 30.5777 141.36 30.8421C141.216 31.1065 141.005 31.3279 140.748 31.4835C140.089 31.8516 139.339 32.0259 138.585 31.9866C137.919 32.0129 137.26 31.8444 136.688 31.5017C136.122 31.082 135.658 30.5378 135.333 29.9107L136.919 29.326Z" fill="#3B95FF"/>
<path d="M149.234 31.9995L148.629 30.5899H145.048L144.443 31.9995H142.677L145.951 24.3848H147.721L151.004 31.9995H149.234ZM145.748 28.9717H147.929L146.854 26.4244L145.748 28.9717Z" fill="#3B95FF"/>
</g>
<defs>
<clipPath id="clip0_1648_2120">
<rect width="151" height="32" fill="white"/>
</clipPath>
</defs>
</svg>
