<svg width="152" height="33" viewBox="0 0 152 33" fill="none" xmlns="http://www.w3.org/2000/svg">
<path d="M8.36818 5.39091C9.4423 5.3761 10.4926 5.70762 11.3636 6.33636C12.2916 6.99815 13.026 7.89574 13.4909 8.93636C14.0241 10.0831 14.2914 11.3355 14.2727 12.6C14.2728 13.7509 13.9986 14.8853 13.4727 15.9091C12.9907 16.8939 12.2646 17.7389 11.3636 18.3636C10.4859 18.9607 9.44787 19.2777 8.38636 19.2727C5.45606 19.2667 3.72121 17.6803 3.18182 14.5136H2.79091L3.02727 18.9091H0V0H3.02727V5.53182L2.79091 9.88182H3.28636C3.50806 8.61254 4.13856 7.4505 5.08182 6.57273C5.99002 5.78011 7.16319 5.35822 8.36818 5.39091ZM7.32727 16.2636C8.03625 16.2743 8.73601 16.1021 9.35909 15.7636C9.94247 15.4483 10.4259 14.976 10.7545 14.4C11.1003 13.8104 11.2794 13.138 11.2727 12.4545C11.2927 11.935 11.2044 11.417 11.0135 10.9334C10.8225 10.4498 10.5331 10.0112 10.1636 9.64545C9.79184 9.27616 9.3484 8.98685 8.86061 8.79533C8.37283 8.60381 7.85101 8.51413 7.32727 8.53182C6.6227 8.5218 5.92853 8.70241 5.31818 9.05455C4.72431 9.38005 4.23314 9.86492 3.9 10.4545C3.55397 11.0423 3.37481 11.7134 3.38182 12.3955C3.38521 13.0532 3.56409 13.6981 3.9 14.2636C4.25907 14.8576 4.75262 15.359 5.34091 15.7273C5.94175 16.0838 6.62864 16.2693 7.32727 16.2636Z" fill="#1BCF58"/>
<path d="M18.7001 13.2367C18.8388 14.1232 19.2923 14.93 19.9774 15.5094C20.7212 16.0796 21.6408 16.3722 22.5774 16.3367C23.3467 16.3624 24.1105 16.1994 24.8022 15.8619C25.494 15.5243 26.0925 15.0225 26.5456 14.4003L28.5547 15.7639C27.9992 16.869 27.1274 17.7836 26.0501 18.3912C24.9866 18.9752 23.7907 19.2757 22.5774 19.2639C21.3653 19.2757 20.1722 18.9618 19.1229 18.3548C18.0813 17.7384 17.212 16.8691 16.5956 15.8276C15.9878 14.7621 15.6741 13.5542 15.6865 12.3276C15.6723 11.1094 15.9863 9.90984 16.5956 8.85485C17.209 7.8169 18.0794 6.95436 19.1229 6.3503C20.1655 5.72342 21.3608 5.39627 22.5774 5.40485C23.812 5.36977 25.029 5.7037 26.0729 6.36394C27.1 7.04959 27.9055 8.01931 28.391 9.15485C28.9434 10.4353 29.1938 11.8257 29.1229 13.2185L18.7001 13.2367ZM22.5774 8.27303C21.6666 8.24944 20.7772 8.55075 20.0683 9.12303C19.3929 9.66346 18.9137 10.4109 18.7047 11.2503H26.2865C26.1313 10.3904 25.6593 9.62001 24.9638 9.09121C24.2874 8.54974 23.4437 8.26047 22.5774 8.27303Z" fill="#1BCF58"/>
<path d="M35.1727 11.9817C35.1322 12.932 35.2024 13.8839 35.3818 14.818C35.4438 15.0501 35.568 15.2609 35.741 15.4275C35.9141 15.5941 36.1293 15.7103 36.3636 15.7635C37.3869 15.9264 38.4235 15.9903 39.4591 15.9544V18.9089C37.1257 18.9089 35.4591 18.7196 34.4591 18.3408C34.0151 18.2008 33.6114 17.9559 33.2822 17.6267C32.9531 17.2975 32.7081 16.8938 32.5682 16.4499C32.2599 14.9815 32.1332 13.4809 32.1909 11.9817V8.5544H29.6182V5.53168H32.2182V0.945312H35.1727V5.53168H39.45V8.5544H35.1727V11.9817Z" fill="#1BCF58"/>
<path d="M46.0817 5.391C48.306 5.391 49.9605 5.9107 51.0454 6.95009C52.1302 7.98949 52.6741 9.541 52.6772 11.6046V18.9092H49.7681L50.2226 14.3637H49.8681C49.3014 17.6092 47.5999 19.2319 44.7635 19.2319C43.1423 19.2319 41.9302 18.8849 41.1272 18.191C40.7182 17.82 40.3976 17.362 40.1891 16.8506C39.9807 16.3393 39.8896 15.7877 39.9226 15.2365C39.8994 14.6063 40.037 13.9806 40.3225 13.4184C40.608 12.8562 41.032 12.3759 41.5544 12.0228C42.6393 11.2501 44.206 10.8637 46.2544 10.8637H49.709C49.6579 10.4941 49.5304 10.1392 49.3348 9.82154C49.1392 9.50384 48.8796 9.23029 48.5726 9.01827C47.8195 8.56396 46.9459 8.34991 46.0681 8.40464C45.4006 8.37749 44.7385 8.53476 44.1544 8.85918C43.5645 9.22343 43.0568 9.70638 42.6635 10.2774L40.2544 8.64555C40.9094 7.6542 41.7717 6.81676 42.7817 6.191C43.789 5.63036 44.9296 5.35385 46.0817 5.391ZM45.2317 16.191C46.5529 16.191 47.5681 15.9077 48.2772 15.341C49.0295 14.7065 49.5161 13.8127 49.6408 12.8365H46.2817C45.4226 12.7862 44.5639 12.9421 43.7772 13.291C43.5557 13.4039 43.3663 13.5709 43.2266 13.7765C43.0868 13.982 43.0012 14.2196 42.9776 14.467C42.954 14.7145 42.9933 14.9639 43.0917 15.1921C43.1902 15.4204 43.3446 15.6201 43.5408 15.7728C44.0458 16.0881 44.638 16.2346 45.2317 16.191Z" fill="#1BCF58"/>
<path d="M59.6408 11.9817C59.5987 12.9323 59.6704 13.8845 59.8545 14.818C59.9167 15.0515 60.0421 15.2633 60.2169 15.4301C60.3918 15.5969 60.6092 15.7123 60.8454 15.7635C61.8687 15.9264 62.9053 15.9903 63.9408 15.9544V18.9089C61.6105 18.9089 59.9439 18.7196 58.9408 18.3408C58.4972 18.2001 58.0939 17.9549 57.7648 17.6259C57.4357 17.2968 57.1906 16.8935 57.0499 16.4499C56.744 14.9812 56.6173 13.4808 56.6726 11.9817V8.5544H54.0908V5.53168H56.6908V0.945312H59.6454V5.53168H63.9226V8.5544H59.6454L59.6408 11.9817Z" fill="black"/>
<path d="M68.182 9.90424C68.2918 8.93646 68.6147 8.00504 69.1275 7.17697C69.5379 6.58509 70.1274 6.14056 70.8093 5.90879C71.6944 5.64921 72.6146 5.52959 73.5366 5.55424V8.81788C73.1 8.72574 72.6554 8.67701 72.2093 8.67243C71.6711 8.64074 71.1326 8.7305 70.6338 8.93507C70.1349 9.13965 69.6885 9.45379 69.3275 9.85424C68.6639 10.627 68.3366 11.7088 68.3366 13.0952V18.9088H65.332V5.50879H68.3366L67.6729 9.90424H68.182Z" fill="black"/>
<path d="M80.4047 5.39056C82.629 5.39056 84.285 5.91026 85.3729 6.94965C86.4608 7.98904 87.0032 9.54056 87.0002 11.6042V18.9087H84.0911L84.5456 14.3633H84.1911C83.6396 17.6148 81.9396 19.2406 79.0911 19.2406C77.4638 19.2406 76.2517 18.8936 75.4547 18.1997C75.0449 17.8291 74.7235 17.3712 74.5142 16.8599C74.305 16.3485 74.2132 15.7967 74.2456 15.2451C74.2267 14.6122 74.3696 13.9849 74.6607 13.4225C74.9518 12.8602 75.3815 12.3814 75.9093 12.0315C76.9941 11.2587 78.5623 10.8724 80.6138 10.8724H84.0638C84.0135 10.5031 83.8869 10.1483 83.692 9.83059C83.4972 9.51288 83.2384 9.23919 82.932 9.02692C82.1772 8.57278 81.3021 8.35878 80.4229 8.41329C79.7554 8.38614 79.0933 8.54341 78.5093 8.86783C77.9215 9.23321 77.4155 9.71601 77.0229 10.286L74.6093 8.6542C75.267 7.66356 76.1306 6.82637 77.1411 6.19965C78.1368 5.64223 79.264 5.36277 80.4047 5.39056ZM79.5456 16.1906C80.8668 16.1906 81.8835 15.9072 82.5956 15.3406C83.3497 14.7075 83.8368 13.8129 83.9593 12.836H80.6047C79.7456 12.7858 78.8869 12.9416 78.1002 13.2906C77.8787 13.4035 77.6893 13.5705 77.5496 13.776C77.4098 13.9816 77.3242 14.2191 77.3006 14.4666C77.277 14.714 77.3163 14.9634 77.4147 15.1917C77.5132 15.42 77.6677 15.6197 77.8638 15.7724C78.366 16.0864 78.9549 16.2328 79.5456 16.1906Z" fill="black"/>
<path d="M97.0456 5.1775C98.9214 5.1775 100.324 5.76083 101.255 6.92749C102.185 8.09416 102.658 9.97598 102.673 12.5729V18.9093H99.7411V12.5729C99.7411 11.0775 99.4547 9.97295 98.8911 9.26386C98.3274 8.55477 97.4229 8.18204 96.1956 8.18204C95.6385 8.15698 95.083 8.25895 94.5712 8.48023C94.0593 8.70152 93.6045 9.03632 93.2411 9.45931C92.5138 10.2957 92.1547 11.5002 92.1547 13.0957V18.9093H89.1274V5.53204H92.1547L91.4911 9.90477H91.9456C92.0531 8.87947 92.3753 7.88828 92.8911 6.99568C93.2726 6.35466 93.8538 5.85647 94.5456 5.5775C95.3467 5.28925 96.1946 5.15358 97.0456 5.1775Z" fill="black"/>
<path d="M106.923 14.0406C107.245 14.7174 107.733 15.3021 108.341 15.7406C109.011 16.1423 109.783 16.3397 110.564 16.3088C112.485 16.3088 113.445 15.8906 113.445 15.0543C113.452 14.8563 113.402 14.6607 113.301 14.4901C113.2 14.3195 113.053 14.181 112.877 14.0906C112.188 13.7745 111.456 13.5602 110.704 13.4543L109.854 13.2906C108.054 12.9603 106.754 12.4558 105.954 11.777C105.562 11.4419 105.249 11.0228 105.04 10.5508C104.831 10.0788 104.73 9.56583 104.745 9.04973C104.745 8.39987 104.943 7.76537 105.314 7.23155C105.776 6.63131 106.399 6.17302 107.109 5.90882C108.074 5.53787 109.103 5.36175 110.136 5.39064C111.433 5.32238 112.719 5.65229 113.823 6.33609C114.818 7.04281 115.603 8.00562 116.095 9.12246L113.568 10.327C113.22 9.68599 112.717 9.14224 112.104 8.74519C111.503 8.41775 110.825 8.26058 110.141 8.29064C109.486 8.24603 108.829 8.35984 108.227 8.62246C108.062 8.68936 107.92 8.80347 107.819 8.95059C107.718 9.0977 107.662 9.27129 107.659 9.44973C107.654 9.61869 107.694 9.78594 107.774 9.93499C107.853 10.084 107.97 10.2098 108.114 10.2997C108.662 10.5872 109.253 10.7866 109.864 10.8906L110.714 11.0543C111.895 11.2327 113.048 11.5674 114.141 12.0497C114.827 12.3313 115.417 12.8048 115.841 13.4134C116.173 13.9897 116.337 14.6482 116.312 15.3132C116.287 15.9782 116.075 16.6226 115.7 17.1725C115.222 17.8348 114.562 18.3435 113.8 18.6361C112.771 19.0422 111.669 19.234 110.564 19.1997C109.205 19.2533 107.858 18.9392 106.664 18.2906C105.556 17.547 104.668 16.5206 104.091 15.3179L106.923 14.0406Z" fill="black"/>
<path d="M127.632 2.6C126.698 2.56049 125.763 2.61531 124.841 2.76364C124.61 2.79587 124.39 2.88119 124.197 3.0129C124.005 3.1446 123.845 3.31911 123.732 3.52273C123.496 4.16566 123.383 4.84723 123.4 5.53182H127.632V8.55455H123.377V18.9091H120.423V8.55455H117.795V5.53182H120.423C120.393 4.40455 120.576 3.28178 120.964 2.22273C121.16 1.81668 121.441 1.45713 121.788 1.16796C122.134 0.87878 122.538 0.666584 122.973 0.545455C123.982 0.181818 125.535 0 127.632 0V2.6Z" fill="black"/>
<path d="M131.118 13.236C131.257 14.1225 131.71 14.9294 132.395 15.5088C133.141 16.0784 134.062 16.3694 135 16.3315C135.77 16.3572 136.534 16.1942 137.227 15.8567C137.919 15.5192 138.518 15.0174 138.972 14.3951L140.977 15.7588C140.423 16.8648 139.551 17.7797 138.473 18.386C137.409 18.9716 136.213 19.2737 135 19.2633C133.789 19.2756 132.597 18.9616 131.55 18.3542C130.506 17.7391 129.635 16.8697 129.018 15.8269C128.41 14.7614 128.096 13.5536 128.109 12.3269C128.095 11.1088 128.409 9.90921 129.018 8.85422C129.632 7.81506 130.504 6.95229 131.55 6.34967C132.589 5.7175 133.783 5.38553 135 5.39058C136.234 5.35993 137.45 5.69864 138.491 6.36331C139.518 7.04896 140.323 8.01868 140.809 9.15422C141.364 10.4338 141.615 11.8249 141.541 13.2179L131.118 13.236ZM135 8.2724C134.09 8.2483 133.202 8.54973 132.495 9.1224C131.82 9.66328 131.341 10.4105 131.132 11.2497H138.695C138.546 10.3897 138.077 9.61821 137.382 9.09058C136.706 8.55011 135.865 8.2609 135 8.2724Z" fill="black"/>
<path d="M145.796 9.90424C145.905 8.93646 146.228 8.00504 146.741 7.17697C147.156 6.58198 147.753 6.13713 148.441 5.90879C149.326 5.64921 150.246 5.52959 151.168 5.55424V8.81788C150.732 8.7255 150.287 8.67678 149.841 8.67243C149.303 8.64074 148.764 8.7305 148.266 8.93507C147.767 9.13965 147.32 9.45379 146.959 9.85424C146.296 10.627 145.968 11.7088 145.968 13.0952V18.9088H142.964V5.50879H145.968L145.305 9.90424H145.796Z" fill="black"/>
<path d="M85.232 25.9503H81.3183V27.4003H84.6138V28.9821H81.3183V30.4367H85.232V32.0003H79.7456V24.373H85.232V25.9503Z" fill="#1BCF58"/>
<path d="M93.7092 24.3636L91.1592 28.1818L93.7092 31.9999H91.891L90.2637 29.5454L88.6092 32.009H86.791L89.341 28.1909L86.8183 24.3636H88.6365L90.2637 26.8181L91.9047 24.3545L93.7092 24.3636Z" fill="#1BCF58"/>
<path d="M101.613 29.8636C101.333 30.5238 100.857 31.0822 100.25 31.4636C99.6407 31.8321 98.9387 32.0183 98.227 32C97.5784 32.0166 96.9388 31.8445 96.3861 31.5045C95.8687 31.1725 95.4571 30.6993 95.1998 30.1409C94.924 29.5172 94.7875 28.8409 94.7998 28.1591C94.786 27.4845 94.9227 26.8152 95.1998 26.2C95.4562 25.6482 95.8686 25.1836 96.3861 24.8636C96.9407 24.529 97.5796 24.3602 98.227 24.3773C98.958 24.3577 99.6776 24.5606 100.291 24.9591C100.935 25.4262 101.426 26.0751 101.7 26.8227L100.277 27.7C100.174 27.3149 100 26.9526 99.7634 26.6318C99.6003 26.4052 99.3743 26.2313 99.1134 26.1318C98.8265 26.0433 98.5272 26.0019 98.227 26.0091C97.7511 25.9965 97.2893 26.1712 96.9407 26.4955C96.7453 26.7227 96.5986 26.9875 96.5095 27.2737C96.4204 27.5598 96.3908 27.8611 96.4225 28.1591C96.4225 29.0091 96.5998 29.5955 96.9589 29.9136C97.3416 30.2285 97.8274 30.3904 98.3225 30.3682C98.7197 30.3878 99.1133 30.2846 99.4498 30.0727C99.7868 29.7842 100.029 29.4009 100.145 28.9727L101.613 29.8636Z" fill="#1BCF58"/>
<path d="M108.154 24.3633H109.732V31.9996H108.154V28.9633H104.863V31.9996H103.286V24.3633H104.863V27.3996H108.154V24.3633Z" fill="#1BCF58"/>
<path d="M117.905 31.9996L117.295 30.586H113.695L113.086 31.9996H111.309L114.595 24.3633H116.364L119.668 31.9996H117.905ZM114.391 28.9633H116.586L115.491 26.4133L114.391 28.9633Z" fill="#1BCF58"/>
<path d="M126.118 24.3633H127.695V31.9996H126.036L122.827 26.8724V31.9996H121.254V24.3633H122.913L126.095 29.4906L126.118 24.3633Z" fill="#1BCF58"/>
<path d="M136.177 27.8503C136.177 30.6169 135.021 32.0003 132.709 32.0003C132.048 32.0216 131.396 31.8494 130.832 31.5048C130.317 31.175 129.91 30.7007 129.663 30.1412C129.394 29.5111 129.26 28.831 129.272 28.1457C129.259 27.47 129.389 26.7991 129.654 26.1775C129.901 25.6275 130.308 25.1648 130.822 24.8503C131.389 24.5127 132.04 24.344 132.7 24.3639C133.422 24.3438 134.133 24.5469 134.736 24.9457C135.377 25.4244 135.875 26.0687 136.177 26.8093L134.754 27.6866C134.643 27.3321 134.49 26.9919 134.3 26.673C134.155 26.4423 133.944 26.2602 133.695 26.1503C133.386 26.0287 133.055 25.973 132.722 25.9866C132.473 25.9717 132.224 26.0129 131.992 26.1073C131.761 26.2017 131.554 26.3469 131.386 26.5321C131.048 26.9991 130.887 27.571 130.932 28.1457C130.932 29.6184 131.538 30.3624 132.75 30.3775C133.126 30.3817 133.496 30.286 133.822 30.1003C134.137 29.9114 134.383 29.6283 134.527 29.2912H132.318V27.8593H134.754L136.177 27.8503Z" fill="#1BCF58"/>
<path d="M143.082 25.9503H139.168V27.4003H142.464V28.9821H139.168V30.4367H143.082V32.0003H137.596V24.373H143.082V25.9503Z" fill="#1BCF58"/>
<path d="M151.636 26.8951C151.636 27.8361 151.127 28.4906 150.118 28.8588L151.482 31.9997H149.664L148.441 29.1724C148.186 29.1724 147.986 29.1724 147.877 29.1724H146.264V31.9997H144.65V24.3633H147.877C148.795 24.3349 149.708 24.5103 150.55 24.877C151.273 25.2224 151.636 25.9088 151.636 26.8951ZM147.882 27.6588C148.268 27.6666 148.654 27.6407 149.036 27.5815C149.25 27.5528 149.45 27.4592 149.609 27.3133C149.725 27.1754 149.784 26.9979 149.773 26.8179C149.783 26.6408 149.724 26.4666 149.609 26.3315C149.45 26.1856 149.25 26.092 149.036 26.0633C148.655 25.9956 148.268 25.9666 147.882 25.977H146.268V27.6497L147.882 27.6588Z" fill="#1BCF58"/>
</svg>
