<svg width="301" height="38" viewBox="0 0 301 38" fill="none" xmlns="http://www.w3.org/2000/svg">
<g clip-path="url(#clip0_1693_1682)">
<path d="M118.744 23.6359C118.66 25.511 118.803 27.3894 119.169 29.231C119.293 29.6915 119.543 30.1093 119.891 30.4384C120.239 30.7674 120.672 30.995 121.142 31.096C123.179 31.4173 125.243 31.5435 127.305 31.4726V37.3008C122.665 37.3008 119.347 36.9272 117.35 36.18C116.467 35.9026 115.664 35.4189 115.009 34.7698C114.354 34.1206 113.865 33.325 113.585 32.4499C112.976 29.5528 112.724 26.5932 112.834 23.6359V16.8751H107.694V10.9124H112.87V1.86523H118.753V10.9124H127.269V16.8751H118.753L118.744 23.6359Z" fill="black"/>
<path d="M135.749 19.5378C135.967 17.6287 136.61 15.7914 137.631 14.1579C138.448 12.9903 139.622 12.1134 140.979 11.6562C142.742 11.1442 144.574 10.9082 146.409 10.9569V17.3948C145.54 17.213 144.655 17.1169 143.767 17.1079C142.695 17.0454 141.623 17.2224 140.63 17.626C139.637 18.0295 138.748 18.6492 138.029 19.4392C136.708 20.9635 136.056 23.0975 136.056 25.8323V37.3004H130.074V10.8672H136.056L134.735 19.5378H135.749Z" fill="black"/>
<path d="M160.084 10.6346C164.512 10.6346 167.809 11.6598 169.975 13.7101C172.141 15.7604 173.221 18.821 173.215 22.8918V37.3009H167.423L168.328 28.3344H167.622C166.524 34.7485 163.139 37.9555 157.468 37.9555C154.24 37.9555 151.827 37.271 150.228 35.9022C149.414 35.1703 148.776 34.2668 148.361 33.2581C147.946 32.2494 147.764 31.1613 147.83 30.0739C147.791 28.8261 148.073 27.5889 148.651 26.4796C149.229 25.3702 150.084 24.4254 151.133 23.7346C153.293 22.2103 156.415 21.4482 160.5 21.4482H167.369C167.269 20.7197 167.017 20.0198 166.629 19.3931C166.241 18.7664 165.725 18.2265 165.115 17.8078C163.613 16.9119 161.87 16.4898 160.12 16.5973C158.791 16.5437 157.473 16.854 156.31 17.494C155.14 18.2147 154.132 19.1671 153.35 20.2915L148.545 17.0725C149.855 15.1184 151.574 13.4669 153.586 12.2306C155.568 11.131 157.812 10.5798 160.084 10.6346ZM158.373 31.939C161.004 31.939 163.028 31.3801 164.446 30.2622C165.947 29.0134 166.917 27.2488 167.161 25.3217H160.482C158.771 25.2216 157.061 25.529 155.495 26.2183C155.054 26.4411 154.677 26.7705 154.399 27.176C154.121 27.5815 153.95 28.05 153.903 28.5382C153.856 29.0263 153.935 29.5183 154.131 29.9686C154.327 30.4189 154.634 30.8129 155.025 31.1141C156.025 31.7335 157.197 32.0224 158.373 31.939Z" fill="black"/>
<path d="M193.216 10.2133C196.95 10.2133 199.744 11.364 201.596 13.6654C203.448 15.9668 204.389 19.6789 204.419 24.8018V37.3011H198.582V24.8018C198.582 21.8518 198.012 19.673 196.89 18.2742C195.768 16.8754 193.967 16.1402 191.523 16.1402C190.414 16.0907 189.308 16.2919 188.289 16.7284C187.27 17.1649 186.364 17.8253 185.641 18.6598C184.193 20.3096 183.478 22.6857 183.478 25.8329V37.3011H177.451V10.9127H183.478L182.157 19.5385H183.062C183.276 17.5159 183.917 15.5607 184.944 13.7999C185.704 12.5354 186.861 11.5527 188.238 11.0024C189.833 10.4338 191.521 10.1661 193.216 10.2133Z" fill="black"/>
<path d="M212.881 27.6978C213.523 29.0328 214.494 30.1861 215.705 31.0513C217.038 31.8435 218.576 32.233 220.13 32.1721C223.955 32.1721 225.868 31.3472 225.868 29.6973C225.88 29.3068 225.781 28.9209 225.58 28.5844C225.38 28.2478 225.088 27.9746 224.737 27.7964C223.364 27.1728 221.906 26.75 220.411 26.5411L218.718 26.2183C215.135 25.5668 212.546 24.5715 210.954 23.2325C210.172 22.5714 209.549 21.7448 209.133 20.8137C208.716 19.8825 208.516 18.8706 208.546 17.8526C208.545 16.5706 208.94 15.319 209.678 14.266C210.599 13.0819 211.838 12.1779 213.252 11.6567C215.174 10.925 217.222 10.5776 219.28 10.6346C221.861 10.4999 224.422 11.1507 226.619 12.4996C228.6 13.8937 230.164 15.7929 231.144 17.996L226.112 20.3722C225.419 19.1077 224.417 18.0351 223.198 17.2518C222.002 16.6059 220.65 16.2959 219.289 16.3552C217.984 16.2672 216.677 16.4917 215.479 17.0097C215.149 17.1417 214.866 17.3668 214.665 17.657C214.464 17.9472 214.353 18.2896 214.347 18.6416C214.338 18.9749 214.417 19.3049 214.575 19.5989C214.734 19.8929 214.967 20.1409 215.252 20.3184C216.345 20.8855 217.521 21.2788 218.737 21.484L220.429 21.8068C222.781 22.1588 225.076 22.8191 227.253 23.7705C228.618 24.3259 229.794 25.2599 230.637 26.4604C231.299 27.5974 231.624 28.8964 231.575 30.2081C231.525 31.5198 231.103 32.791 230.357 33.8757C229.406 35.1823 228.091 36.1857 226.574 36.7629C224.525 37.564 222.332 37.9423 220.13 37.8748C217.426 37.9804 214.744 37.3608 212.365 36.0815C210.161 34.6145 208.392 32.5898 207.243 30.2174L212.881 27.6978Z" fill="black"/>
<path d="M254.112 5.12883C252.254 5.05089 250.392 5.15904 248.556 5.45163C248.096 5.51522 247.657 5.68352 247.274 5.94333C246.891 6.20313 246.574 6.54737 246.347 6.94903C245.878 8.2173 245.654 9.56178 245.687 10.9122H254.112V16.8749H245.642V37.3006H239.759V16.8749H234.528V10.9122H239.759C239.699 8.68853 240.065 6.47373 240.836 4.38461C241.228 3.58363 241.787 2.87439 242.477 2.30395C243.167 1.73351 243.971 1.31492 244.836 1.07598C246.845 0.35866 249.937 0 254.112 0V5.12883Z" fill="black"/>
<path d="M261.054 26.1106C261.33 27.8594 262.232 29.451 263.597 30.5939C265.081 31.7175 266.915 32.2916 268.782 32.2168C270.315 32.2675 271.837 31.946 273.216 31.2802C274.594 30.6144 275.788 29.6246 276.692 28.3971L280.692 31.087C279.583 33.2675 277.844 35.0716 275.696 36.2697C273.58 37.4247 271.199 38.0207 268.782 38.0002C266.372 38.0245 263.999 37.4051 261.913 36.2069C259.835 34.9936 258.101 33.2785 256.872 31.2215C255.662 29.1198 255.037 26.737 255.062 24.3173C255.034 21.9142 255.659 19.5479 256.872 17.4669C258.095 15.4171 259.831 13.7151 261.913 12.5264C263.983 11.2794 266.36 10.6245 268.782 10.6345C271.25 10.5838 273.676 11.2645 275.751 12.5892C277.792 13.943 279.393 15.8558 280.357 18.0946C281.463 20.6187 281.962 23.3629 281.814 26.1106H261.054ZM268.782 16.3192C266.971 16.2717 265.203 16.8663 263.796 17.996C262.452 19.0629 261.498 20.537 261.081 22.1923H276.14C275.843 20.4959 274.908 18.974 273.524 17.9332C272.18 16.867 270.504 16.2965 268.782 16.3192Z" fill="black"/>
<path d="M290.276 19.5378C290.49 17.6278 291.134 15.7895 292.158 14.1579C292.985 12.9842 294.172 12.1067 295.543 11.6562C297.305 11.1438 299.137 10.9078 300.973 10.9569V17.3948C300.107 17.213 299.225 17.1169 298.339 17.1079C297.268 17.0454 296.196 17.2224 295.203 17.626C294.209 18.0295 293.321 18.6492 292.602 19.4392C291.182 21.2623 290.478 23.5338 290.62 25.8323V37.3004H284.647V10.8672H290.62L289.308 19.5378H290.276Z" fill="black"/>
<path d="M16.6609 10.6343C18.7994 10.605 20.8906 11.259 22.6248 12.4993C24.4723 13.8047 25.9345 15.5754 26.8601 17.6281C27.9218 19.8902 28.4539 22.3607 28.4167 24.8551C28.4169 27.1255 27.8709 29.3632 26.8239 31.3827C25.8643 33.3254 24.4187 34.9922 22.6248 36.2246C20.8773 37.4024 18.8105 38.0277 16.6971 38.0179C10.8629 38.006 7.40886 34.8767 6.33494 28.63H5.55664L6.02724 37.3006H0V0H6.02724V10.9122L5.55664 19.4932H6.54308C6.98448 16.9893 8.23979 14.6971 10.1178 12.9655C11.926 11.402 14.2618 10.5698 16.6609 10.6343ZM14.5885 32.0821C16 32.1031 17.3932 31.7634 18.6338 31.0958C19.7953 30.4739 20.7577 29.542 21.4121 28.4059C22.1005 27.2428 22.4571 25.9164 22.4438 24.5682C22.4835 23.5433 22.3077 22.5215 21.9276 21.5676C21.5475 20.6136 20.9713 19.7484 20.2356 19.0269C19.4954 18.2984 18.6125 17.7277 17.6413 17.3499C16.6701 16.9721 15.6312 16.7952 14.5885 16.8301C13.1857 16.8103 11.8036 17.1666 10.5884 17.8613C9.40601 18.5034 8.42809 19.4598 7.76482 20.6229C7.07588 21.7825 6.71919 23.1062 6.73313 24.4516C6.73988 25.7491 7.09604 27.0213 7.76482 28.1369C8.47971 29.3086 9.46237 30.2975 10.6336 31.0241C11.8299 31.7274 13.1975 32.0932 14.5885 32.0821Z" fill="url(#paint0_linear_1693_1682)"/>
<path d="M37.2315 26.1105C37.5076 27.8592 38.4104 29.4508 39.7745 30.5937C41.2555 31.7185 43.0863 32.2957 44.951 32.2256C46.4826 32.2764 48.0035 31.9548 49.3807 31.289C50.7579 30.6231 51.9496 29.6333 52.8516 28.4059L56.8517 31.0958C55.7458 33.2757 54.0099 35.0799 51.8652 36.2785C49.7477 37.4304 47.3666 38.0233 44.951 38C42.5377 38.0233 40.1623 37.404 38.0731 36.2067C35.9994 34.9907 34.2687 33.276 33.0414 31.2214C31.8313 29.1195 31.2067 26.7368 31.2314 24.3172C31.2032 21.9141 31.8284 19.5479 33.0414 17.4668C34.2628 15.4193 35.9956 13.7178 38.0731 12.5262C40.149 11.2896 42.5289 10.6443 44.951 10.6612C47.4091 10.592 49.8322 11.2507 51.9104 12.5531C53.9555 13.9057 55.5592 15.8186 56.5259 18.0585C57.6257 20.5845 58.1242 23.3272 57.9829 26.0746L37.2315 26.1105ZM44.951 16.319C43.1377 16.2725 41.3669 16.8669 39.9555 17.9958C38.6107 19.0618 37.6567 20.5363 37.2405 22.1921H52.3358C52.0268 20.4959 51.0871 18.9761 49.7022 17.933C48.3556 16.8649 46.6759 16.2943 44.951 16.319Z" fill="url(#paint1_linear_1693_1682)"/>
<path d="M70.0282 23.6359C69.9477 25.5106 70.0874 27.3882 70.4445 29.231C70.5679 29.6888 70.8152 30.1045 71.1597 30.4332C71.5042 30.7619 71.9329 30.9911 72.3993 31.096C74.4367 31.4173 76.5005 31.5435 78.5623 31.4726V37.3008C73.9167 37.3008 70.5984 36.9272 68.6074 36.18C67.7234 35.9039 66.9197 35.4207 66.2644 34.7714C65.609 34.1221 65.1213 33.3257 64.8426 32.4499C64.2289 29.5535 63.9766 26.5933 64.0915 23.6359V16.8751H58.9692V10.9124H64.1458V1.86523H70.0282V10.9124H78.5442V16.8751H70.0282V23.6359Z" fill="url(#paint2_linear_1693_1682)"/>
<path d="M91.7479 10.6345C96.1764 10.6345 99.4705 11.6596 101.63 13.71C103.79 15.7603 104.873 18.8209 104.879 22.8916V37.3008H99.0874L99.9924 28.3343H99.2865C98.1583 34.7364 94.7706 37.9374 89.1235 37.9374C85.8957 37.9374 83.4824 37.253 81.8836 35.8841C81.0692 35.1523 80.431 34.2487 80.016 33.24C79.6009 32.2313 79.4196 31.1432 79.4853 30.0559C79.4391 28.8128 79.7131 27.5786 80.2815 26.4695C80.8499 25.3604 81.694 24.413 82.7342 23.7166C84.8942 22.1923 88.0134 21.4301 92.0918 21.4301H98.9698C98.868 20.7011 98.6143 20.001 98.2248 19.3743C97.8353 18.7476 97.3185 18.208 96.7073 17.7897C95.2079 16.8935 93.4685 16.4713 91.7208 16.5792C90.3918 16.5257 89.0735 16.8359 87.9108 17.4759C86.7363 18.1944 85.7254 19.1471 84.9424 20.2734L80.146 17.0545C81.45 15.0989 83.1667 13.4469 85.1777 12.2126C87.1831 11.1066 89.454 10.5612 91.7479 10.6345ZM90.0556 31.9388C92.6861 31.9388 94.7073 31.3799 96.1191 30.2621C97.6169 29.0105 98.5858 27.2473 98.834 25.3216H92.1461C90.4356 25.2225 88.7259 25.5299 87.1596 26.2182C86.7187 26.441 86.3417 26.7703 86.0634 27.1759C85.7851 27.5814 85.6146 28.0499 85.5677 28.5381C85.5208 29.0262 85.5989 29.5182 85.7949 29.9685C85.991 30.4187 86.2985 30.8127 86.6891 31.1139C87.6944 31.736 88.8735 32.0249 90.0556 31.9388Z" fill="url(#paint3_linear_1693_1682)"/>
</g>
<defs>
<linearGradient id="paint0_linear_1693_1682" x1="2.92312" y1="-1.05805" x2="27.2642" y2="66.1209" gradientUnits="userSpaceOnUse">
<stop stop-color="#3B95FF"/>
<stop offset="0.51" stop-color="#18B6D6"/>
<stop offset="1" stop-color="#1BCF58"/>
</linearGradient>
<linearGradient id="paint1_linear_1693_1682" x1="31.4033" y1="-11.3784" x2="55.7445" y2="55.8005" gradientUnits="userSpaceOnUse">
<stop stop-color="#3B95FF"/>
<stop offset="0.51" stop-color="#18B6D6"/>
<stop offset="1" stop-color="#1BCF58"/>
</linearGradient>
<linearGradient id="paint2_linear_1693_1682" x1="56.1185" y1="-20.3358" x2="80.4596" y2="46.8431" gradientUnits="userSpaceOnUse">
<stop stop-color="#3B95FF"/>
<stop offset="0.51" stop-color="#18B6D6"/>
<stop offset="1" stop-color="#1BCF58"/>
</linearGradient>
<linearGradient id="paint3_linear_1693_1682" x1="72.9332" y1="-26.4241" x2="97.2743" y2="40.7549" gradientUnits="userSpaceOnUse">
<stop stop-color="#3B95FF"/>
<stop offset="0.51" stop-color="#18B6D6"/>
<stop offset="1" stop-color="#1BCF58"/>
</linearGradient>
<clipPath id="clip0_1693_1682">
<rect width="301" height="38" fill="white"/>
</clipPath>
</defs>
</svg>
