<svg width="36" height="36" viewBox="0 0 36 36" fill="none" xmlns="http://www.w3.org/2000/svg">
<path d="M36 0.356436L35.1698 6.9307C33.1069 6.77228 31.5472 7.19472 30.4906 8.19802C29.434 9.20132 28.7547 10.5743 28.4528 12.3168C28.1509 14.0594 28.0755 15.9868 28.2264 18.099H36V36H21.2076V15.7228C21.2076 10.1782 22.4906 6.0066 25.0566 3.20792C27.673 0.356436 31.3208 -0.59406 36 0.356436ZM14.7925 0.356436L13.9623 6.9307C11.8994 6.77228 10.3396 7.19472 9.28302 8.19802C8.22642 9.20132 7.54717 10.5743 7.24528 12.3168C6.9434 14.0594 6.86792 15.9868 7.01887 18.099H14.7925V36H0V15.7228C0 10.1782 1.28302 6.0066 3.84906 3.20792C6.46541 0.356436 10.1132 -0.59406 14.7925 0.356436Z" fill="url(#paint0_linear_717_1633)"/>
<defs>
<linearGradient id="paint0_linear_717_1633" x1="31.5172" y1="30.9943" x2="-8.10436" y2="16.52" gradientUnits="userSpaceOnUse">
<stop stop-color="#36D1DC"/>
<stop offset="0.963542" stop-color="#5B86E5"/>
</linearGradient>
</defs>
</svg>
