<svg width="20" height="20" viewBox="0 0 20 20" fill="none" xmlns="http://www.w3.org/2000/svg">
<path d="M16.8636 18.1364C17.2151 18.4879 17.7849 18.4879 18.1364 18.1364C18.4879 17.7849 18.4879 17.2151 18.1364 16.8636L16.8636 18.1364ZM14.5114 13.2386C14.1599 12.8871 13.5901 12.8871 13.2386 13.2386C12.8871 13.5901 12.8871 14.1599 13.2386 14.5114L14.5114 13.2386ZM14.9333 9.16667C14.9333 12.3515 12.3515 14.9333 9.16667 14.9333V16.7333C13.3456 16.7333 16.7333 13.3456 16.7333 9.16667H14.9333ZM9.16667 14.9333C5.98182 14.9333 3.4 12.3515 3.4 9.16667H1.6C1.6 13.3456 4.98771 16.7333 9.16667 16.7333V14.9333ZM3.4 9.16667C3.4 5.98182 5.98182 3.4 9.16667 3.4V1.6C4.98771 1.6 1.6 4.98771 1.6 9.16667H3.4ZM9.16667 3.4C12.3515 3.4 14.9333 5.98182 14.9333 9.16667H16.7333C16.7333 4.98771 13.3456 1.6 9.16667 1.6V3.4ZM18.1364 16.8636L14.5114 13.2386L13.2386 14.5114L16.8636 18.1364L18.1364 16.8636Z" fill="#9F9F9F"/>
</svg>
