<svg width="42" height="42" viewBox="0 0 42 42" fill="none" xmlns="http://www.w3.org/2000/svg">
<circle cx="21" cy="21" r="21" fill="url(#paint0_linear_802_1211)"/>
<path d="M31.2962 26.371C31.2962 26.2838 31.209 26.2838 31.209 26.1966C30.8603 25.4992 30.0758 24.6275 29.0297 23.6686C28.5066 23.2327 28.2451 22.884 28.0707 22.7097C27.8092 22.361 27.8092 22.0994 27.8964 21.7508C27.9836 21.4892 28.3323 21.0533 28.9425 20.2688C29.2912 19.8329 29.4655 19.5714 29.727 19.3099C31.0347 17.5664 31.6449 16.4331 31.4705 15.9101L31.3834 15.8229C31.2962 15.7357 31.209 15.6486 31.0347 15.6486C30.8603 15.5614 30.5988 15.5614 30.3373 15.6486H27.0247C26.9375 15.6486 26.9375 15.6486 26.7631 15.6486C26.676 15.6486 26.5888 15.6486 26.5888 15.6486H26.5016H26.4144L26.3273 15.7357C26.2401 15.8229 26.2401 15.8229 26.2401 15.9101C25.8914 16.869 25.4555 17.6536 25.0197 18.5253C24.7581 18.9612 24.4966 19.397 24.2351 19.7457C23.9736 20.0944 23.7992 20.356 23.6249 20.5303C23.4505 20.7047 23.2762 20.7918 23.189 20.9662C23.1018 21.0534 22.9275 21.1405 22.9275 21.0534C22.8403 21.0534 22.7531 21.0534 22.7531 20.9662C22.6659 20.879 22.5788 20.7918 22.4916 20.7047C22.4044 20.6175 22.4044 20.4431 22.3173 20.2688C22.3173 20.0944 22.3173 19.9201 22.3173 19.8329C22.3173 19.7457 22.3173 19.4842 22.3173 19.3099C22.3173 19.0484 22.3173 18.874 22.3173 18.7868C22.3173 18.5253 22.3173 18.1766 22.3173 17.8279C22.3173 17.4792 22.3173 17.2177 22.3173 17.0433C22.3173 16.869 22.3173 16.6075 22.3173 16.4331C22.3173 16.1716 22.3173 15.9973 22.3173 15.9101C22.3173 15.8229 22.2301 15.6486 22.2301 15.5614C22.1429 15.4742 22.0557 15.387 21.9686 15.2999C21.8814 15.2127 21.707 15.2127 21.6199 15.1255C21.184 15.0383 20.661 14.9512 20.0507 14.9512C18.656 14.9512 17.697 15.0383 17.3483 15.2127C17.174 15.2999 16.9996 15.387 16.9125 15.5614C16.7381 15.7357 16.7381 15.8229 16.8253 15.8229C17.2612 15.9101 17.6099 16.0844 17.7842 16.3459L17.8714 16.5203C17.9586 16.6075 17.9586 16.7818 18.0457 17.0433C18.1329 17.3049 18.1329 17.5664 18.1329 17.9151C18.1329 18.4381 18.1329 18.9612 18.1329 19.3099C18.1329 19.7457 18.0457 20.0073 18.0457 20.2688C18.0457 20.5303 17.9586 20.7047 17.8714 20.7918C17.7842 20.9662 17.7842 21.0534 17.697 21.0534C17.697 21.0534 17.697 21.1405 17.6099 21.1405C17.5227 21.1405 17.4355 21.2277 17.2612 21.2277C17.174 21.2277 16.9996 21.1405 16.9125 21.0534C16.7381 20.9662 16.5638 20.7918 16.4766 20.6175C16.3023 20.4431 16.1279 20.1816 15.9536 19.8329C15.7792 19.4842 15.5177 19.1355 15.3433 18.6125L15.169 18.2638C15.0818 18.0894 14.9075 17.7407 14.7331 17.3049C14.5588 16.869 14.3844 16.5203 14.2101 16.0844C14.1229 15.9101 14.0357 15.8229 13.9486 15.7357H13.8614C13.8614 15.7357 13.7742 15.6486 13.687 15.6486C13.5998 15.6486 13.5127 15.5614 13.4255 15.5614H10.2872C9.93854 15.5614 9.7642 15.6486 9.67702 15.7357L9.58984 15.8229C9.58984 15.8229 9.58984 15.9101 9.58984 15.9973C9.58984 16.0844 9.58985 16.1716 9.67702 16.3459C10.1129 17.392 10.6359 18.4381 11.159 19.4842C11.682 20.4431 12.2051 21.3149 12.5538 21.9251C12.9896 22.5353 13.3383 23.1455 13.7742 23.6686C14.2101 24.1916 14.4716 24.5403 14.5588 24.7147C14.7331 24.889 14.8203 24.9762 14.9075 25.0634L15.169 25.3249C15.3433 25.4992 15.6049 25.7608 15.9536 26.0223C16.3023 26.2838 16.7381 26.5453 17.174 26.8068C17.6099 27.0684 18.1329 27.2427 18.656 27.4171C19.2662 27.5914 19.7892 27.6786 20.3123 27.5914H21.6199C21.8814 27.5914 22.0557 27.5042 22.2301 27.3299L22.3173 27.2427C22.3173 27.1555 22.4044 27.1555 22.4044 27.0684C22.4044 26.9812 22.4044 26.894 22.4044 26.7197C22.4044 26.371 22.4044 26.1095 22.4916 25.8479C22.5788 25.5864 22.5788 25.4121 22.666 25.2377C22.7531 25.0634 22.8403 24.9762 22.9275 24.889C23.0147 24.8018 23.1018 24.7147 23.1018 24.7147H23.189C23.3633 24.6275 23.6249 24.7147 23.7992 24.889C24.0607 25.0634 24.3223 25.3249 24.4966 25.5864C24.671 25.8479 24.9325 26.1095 25.2812 26.4581C25.6299 26.8068 25.8914 27.0684 26.0658 27.1555L26.3273 27.3299C26.5016 27.4171 26.676 27.5042 26.9375 27.5914C27.199 27.6786 27.3733 27.6786 27.5477 27.6786L30.5116 27.5914C30.7732 27.5914 31.0347 27.5042 31.209 27.4171C31.3834 27.3299 31.4705 27.2427 31.4705 27.0684C31.4705 26.9812 31.4705 26.8068 31.4705 26.7197C31.2962 26.5453 31.2962 26.4581 31.2962 26.371Z" fill="white"/>
<defs>
<linearGradient id="paint0_linear_802_1211" x1="36.77" y1="36.16" x2="-9.45508" y2="19.2733" gradientUnits="userSpaceOnUse">
<stop stop-color="#36D1DC"/>
<stop offset="0.963542" stop-color="#5B86E5"/>
</linearGradient>
</defs>
</svg>
