<svg width="42" height="42" viewBox="0 0 42 42" fill="none" xmlns="http://www.w3.org/2000/svg">
<circle cx="21" cy="21" r="21" fill="url(#paint0_linear_802_1214)"/>
<path d="M27.9094 12.5996H15.1398C13.6981 12.5996 12.5996 13.6981 12.5996 15.1398V27.9094C12.5996 29.3511 13.6981 30.4496 15.1398 30.4496H27.9094C29.3512 30.4496 30.4496 29.3511 30.4496 27.9094V15.1398C30.4496 13.6981 29.3512 12.5996 27.9094 12.5996ZM21.5246 26.8796C24.4767 26.8796 26.8796 24.5454 26.8796 21.7306C26.8796 21.25 26.811 20.7008 26.6736 20.2888H28.184V27.5661C28.184 27.9094 27.9094 28.2527 27.4975 28.2527H15.5517C15.2085 28.2527 14.8652 27.9781 14.8652 27.5661V20.2202H16.4442C16.3069 20.7008 16.2383 21.1813 16.2383 21.6619C16.1696 24.5454 18.5725 26.8796 21.5246 26.8796ZM21.5246 24.82C19.6023 24.82 18.0919 23.3096 18.0919 21.456C18.0919 19.6023 19.6023 18.0919 21.5246 18.0919C23.4469 18.0919 24.9573 19.6023 24.9573 21.456C24.9573 23.3783 23.4469 24.82 21.5246 24.82ZM28.1154 17.474C28.1154 17.886 27.7721 18.2292 27.3602 18.2292H25.4379C25.026 18.2292 24.6827 17.886 24.6827 17.474V15.6204C24.6827 15.2085 25.026 14.8652 25.4379 14.8652H27.3602C27.7721 14.8652 28.1154 15.2085 28.1154 15.6204V17.474Z" fill="white"/>
<defs>
<linearGradient id="paint0_linear_802_1214" x1="36.77" y1="36.16" x2="-9.45508" y2="19.2733" gradientUnits="userSpaceOnUse">
<stop stop-color="#36D1DC"/>
<stop offset="0.963542" stop-color="#5B86E5"/>
</linearGradient>
</defs>
</svg>
