<svg width="19" height="19" viewBox="0 0 19 19" fill="none" xmlns="http://www.w3.org/2000/svg">
<path d="M9.50033 3.5625C5.54199 3.5625 2.16158 6.02458 0.791992 9.5C2.16158 12.9754 5.54199 15.4375 9.50033 15.4375C13.4587 15.4375 16.8391 12.9754 18.2087 9.5C16.8391 6.02458 13.4587 3.5625 9.50033 3.5625ZM9.50033 13.4583C7.31533 13.4583 5.54199 11.685 5.54199 9.5C5.54199 7.315 7.31533 5.54167 9.50033 5.54167C11.6853 5.54167 13.4587 7.315 13.4587 9.5C13.4587 11.685 11.6853 13.4583 9.50033 13.4583ZM9.50033 7.125C8.18616 7.125 7.12533 8.18583 7.12533 9.5C7.12533 10.8142 8.18616 11.875 9.50033 11.875C10.8145 11.875 11.8753 10.8142 11.8753 9.5C11.8753 8.18583 10.8145 7.125 9.50033 7.125Z" fill="#9F9F9F"/>
</svg>
