<svg width="26" height="26" viewBox="0 0 26 26" fill="none" xmlns="http://www.w3.org/2000/svg">
<path d="M19 14C19.5523 14 20 13.5523 20 13C20 12.4477 19.5523 12 19 12V14ZM7 13L6.29289 12.2929C5.90237 12.6834 5.90237 13.3166 6.29289 13.7071L7 13ZM12.2929 19.7071C12.6834 20.0976 13.3166 20.0976 13.7071 19.7071C14.0976 19.3166 14.0976 18.6834 13.7071 18.2929L12.2929 19.7071ZM13.7071 7.70711C14.0976 7.31658 14.0976 6.68342 13.7071 6.29289C13.3166 5.90237 12.6834 5.90237 12.2929 6.29289L13.7071 7.70711ZM19 12H7V14H19V12ZM13.7071 18.2929L7.70711 12.2929L6.29289 13.7071L12.2929 19.7071L13.7071 18.2929ZM7.70711 13.7071L13.7071 7.70711L12.2929 6.29289L6.29289 12.2929L7.70711 13.7071Z"/>
</svg>
