<svg width="52" height="52" viewBox="0 0 52 52" fill="none" xmlns="http://www.w3.org/2000/svg">
<path d="M36.4497 48.8122C36.4497 48.8122 41.7125 49.7559 42.7802 43.1501C43.848 36.5442 45.6786 26.4331 45.6786 26.4331L39.9582 27.4442L36.4497 48.8122Z" fill="#59BDEF"/>
<path d="M42.1951 28.4298L38.8829 46.3461C38.139 50.3688 33.4113 52.7983 29.0786 51.3595L6.63279 43.9051C3.59871 42.897 1.67501 40.2468 1.9042 37.3885L3.50636 17.415C3.84882 13.2095 8.53502 10.4671 12.988 11.6928L26.3816 15.3778L12.6697 14.8287L37.0393 21.1778C40.5807 22.1013 42.7915 25.2088 42.1951 28.4298Z" fill="#59BDEF"/>
<path d="M42.1952 28.4298L38.8829 46.3462C38.4379 48.7527 36.5698 50.5852 34.2167 51.3652L36.7634 42.037L38.6916 31.6108C39.2868 28.3909 37.0761 25.2823 33.5346 24.3599L7.39389 17.5485C7.39389 17.5485 4.81152 16.8832 4.52002 14.5623C6.14955 12.1057 9.63123 10.7688 12.9881 11.6929L26.3817 15.3778L12.6698 14.8287L37.0393 21.1778C40.5808 22.1013 42.7915 25.2088 42.1952 28.4298Z" fill="#59BDEF"/>
<path d="M49.8542 25.8535C48.9156 27.568 46.5369 30.8346 41.4392 32.518L42.1958 28.4292C42.7992 25.167 40.5339 22.0883 37.0395 21.1783L21.366 17.0939C21.366 17.0939 21.269 14.0109 22.9738 10.2959C23.4157 9.33457 24.5254 8.79718 25.6304 8.99633C29.2291 9.64499 37.4382 11.6488 44.0527 17.164C46.3048 19.0415 48.2602 21.236 49.8015 23.7584C50.1955 24.4037 50.2171 25.1916 49.8542 25.8535Z" fill="#5B86E5"/>
<path d="M48.5191 16.9009C48.2585 20.3438 46.4022 24.6235 42.1962 28.4287C42.8014 25.1504 40.5179 22.0838 37.0392 21.1778C18.4725 16.3394 22.837 17.4767 16.5739 15.8451C16.5739 15.8451 16.3436 11.8564 17.9981 6.50139C18.324 5.44775 19.4311 4.77351 20.6004 4.91259C29.6186 5.98136 40.9709 9.02735 47.7893 15.1453C48.2988 15.6025 48.5681 16.2445 48.5191 16.9009Z" fill="#5B86E5"/>
<path d="M45.4906 13.3106C45.4469 17.541 44.1064 21.7335 41.9414 25.4068C41.2407 23.4745 39.485 21.8148 37.0392 21.1778C18.4725 16.3394 22.837 17.4767 16.5739 15.8451C16.5739 15.8451 16.3436 11.8564 17.9981 6.50139C18.324 5.44775 19.4311 4.77351 20.6004 4.91259C28.7729 5.88111 38.726 8.47805 45.4906 13.3106Z" fill="#5B86E5"/>
<path d="M41.0644 23.7997C40.1544 22.5908 38.7789 21.6365 37.0394 21.1784C4.64125 12.7357 23.781 17.7231 12.6695 14.8287C12.6695 14.8287 11.9177 8.06852 12.9341 2.09159C13.1245 0.968965 14.2031 0.164549 15.4254 0.225742C20.7397 0.491656 34.9887 1.71886 43.8358 7.32641C44.4188 7.6958 44.7947 8.28548 44.8677 8.93858C45.3428 13.1618 44.3063 18.5819 41.0644 23.7997Z" fill="#5B86E5"/>
<path d="M40.1033 14.9289C40.0326 16.264 39.6711 19.6541 37.8514 21.4365C37.2758 21.2191 38.9148 21.6668 16.7462 15.8901C16.6193 14.1734 16.5127 11.5933 16.7593 9.2768C16.8239 8.66932 17.4094 8.23429 18.0643 8.28435C19.3392 8.38338 21.4379 8.04292 23.0134 5.29478C23.2612 4.86197 23.7808 4.62721 24.298 4.72067C26.5655 5.13011 32.6161 6.36288 37.1306 8.55361C37.5724 8.76723 37.8238 9.21005 37.7711 9.67067C37.661 10.6475 37.7832 12.4577 39.7022 14.0454C39.9715 14.269 40.1212 14.5928 40.1033 14.9289Z" fill="#59BDEF"/>
<path d="M47.6645 28.7563C47.5866 30.7823 47.4454 34.5875 47.2036 36.4767C46.7463 40.0493 44.1531 41.8016 41.0644 43.8911C37.9757 45.9806 34.8486 44.7 31.9168 43.8911C28.986 43.0822 23.3916 41.1953 23.3904 38.1389C23.3879 35.2372 25.0857 32.6348 34.0095 35.4653C42.1515 38.0488 43.2768 32.6916 43.4109 31.7325C45.2461 30.8659 46.6326 29.7955 47.6645 28.7563Z" fill="#E9E9FD"/>
<path d="M32.9829 41.114C33.9759 39.9102 33.6302 37.9851 32.2108 36.8142C30.7913 35.6433 28.8357 35.67 27.8427 36.8738C26.8497 38.0775 27.1954 40.0026 28.6148 41.1735C30.0342 42.3444 31.9899 42.3177 32.9829 41.114Z" fill="#5B86E5"/>
<path d="M49.9919 23.6419C49.3681 22.6211 48.6599 21.63 47.8871 20.6933C48.4761 19.0887 48.6774 17.7585 48.741 16.9174C48.795 16.1923 48.5023 15.4861 47.9378 14.9796C47.0801 14.2102 46.1286 13.4691 45.1094 12.7745C45.2599 11.0859 45.1826 9.74678 45.089 8.91377C45.008 8.1908 44.5948 7.54381 43.955 7.13838C35.1304 1.54507 21.0716 0.285377 15.4366 0.0034416C14.0954 -0.0622023 12.9244 0.818094 12.7149 2.0542C12.1645 5.29045 12.1326 8.7797 12.2189 11.2966C7.79291 10.5512 3.60928 13.3939 3.28462 17.3972L1.68258 37.3707C1.44681 40.3095 3.45363 43.0834 6.56281 44.1163L29.0085 51.5707C32.4224 52.7046 36.0597 51.5017 37.9286 49.0257C39.5487 48.805 42.2635 47.7409 43.0001 43.1852C43.0599 42.814 43.0362 42.9603 43.0665 42.7741C45.3076 41.1415 47.0531 39.4055 47.4244 36.5049C47.6676 34.6049 47.8098 30.7967 47.8835 28.8521C48.9371 27.7775 49.626 26.7329 50.0494 25.9599C50.4515 25.2262 50.43 24.3597 49.9919 23.6419ZM47.6407 15.3108C48.1017 15.7245 48.3411 16.298 48.2973 16.8842C48.048 20.1742 46.311 24.223 42.496 27.847C42.6088 26.4201 42.2039 25.0043 41.3314 23.7895C43.3163 20.558 44.6393 17.005 45.0577 13.2789C45.9858 13.9226 46.8537 14.6049 47.6407 15.3108ZM13.1537 2.12864C13.3257 1.1146 14.2971 0.393077 15.4145 0.447929C21.0142 0.728195 34.9815 1.97765 43.7169 7.51433C44.2421 7.84711 44.5811 8.37515 44.6469 8.96339C45.1087 13.0747 44.1207 18.3301 41.0408 23.4112C40.308 22.5303 39.3417 21.8245 38.2362 21.3527C39.9088 19.4737 40.2549 16.2718 40.3254 14.9405C40.347 14.5347 40.1717 14.1459 39.8439 13.8739C37.9955 12.3445 37.8903 10.5995 37.9921 9.69593C38.0561 9.13585 37.756 8.6088 37.2276 8.35335C32.713 6.16251 26.7092 4.92996 24.3374 4.50161C23.7275 4.39124 23.1171 4.6655 22.8201 5.18408C21.3476 7.75276 19.4307 8.16754 18.0811 8.06251C17.293 8.00232 16.6152 8.52536 16.5379 9.25323C16.3053 11.4377 16.3837 13.8559 16.5023 15.5975L12.8753 14.6526C12.7742 13.623 12.2375 7.51667 13.1537 2.12864ZM39.56 14.2167C39.7781 14.3977 39.8951 14.6529 39.881 14.9171C39.8115 16.2303 39.4677 19.4303 37.7916 21.1784C37.2847 20.9968 38.9793 21.4533 16.9568 15.7159C16.834 13.9833 16.7446 11.5167 16.9806 9.30029C17.0316 8.82131 17.512 8.46517 18.0471 8.50622C19.2565 8.59979 21.5343 8.3222 23.2064 5.40527C23.4099 5.04968 23.8334 4.86287 24.2584 4.93953C26.612 5.36455 32.5683 6.58697 37.0337 8.75389C37.3895 8.9259 37.5922 9.27581 37.55 9.64564C37.4379 10.6391 37.5503 12.5539 39.56 14.2167ZM29.1487 51.1484L6.703 43.6939C3.78886 42.7257 1.90677 40.1403 2.12595 37.4062L3.728 17.4329C4.03341 13.6707 8.02823 10.9922 12.236 11.7521C12.2902 13.0587 12.3723 14.0521 12.4169 14.5332L10.9545 14.1523C10.8358 14.1214 10.7141 14.1927 10.6831 14.3115C10.6522 14.4304 10.7234 14.5519 10.8425 14.583L36.9832 21.3932C38.5261 21.7948 39.9288 22.6659 40.8868 23.933V23.9331C41.8777 25.2489 42.2647 26.8314 41.9762 28.3894L40.6896 35.3476C39.9598 35.7223 39.1008 35.9198 38.1174 35.9396L38.9101 31.6514C39.5255 28.322 37.2387 25.0948 33.5904 24.1446L7.44967 17.3332C7.33062 17.3024 7.20924 17.3735 7.17831 17.4924C7.14738 17.6114 7.21858 17.7329 7.33763 17.7639L33.4784 24.5753C36.898 25.4659 39.045 28.4732 38.4725 31.5704L37.6655 35.9366C36.6014 35.9015 35.4036 35.6743 34.0767 35.2533C28.9487 33.6267 23.1633 32.7841 23.1678 38.1391C23.1691 41.0886 27.8941 43.0118 31.8576 44.1057C34.1901 44.7493 36.4998 45.6264 38.8896 45.0854L38.664 46.3059C37.927 50.2966 33.2199 52.5006 29.1487 51.1484ZM41.6346 32.6855C42.1555 32.5093 42.6477 32.3168 43.1135 32.1113C42.9416 32.8527 42.4686 34.1661 41.1984 35.0447L41.6346 32.6855ZM38.2786 48.512C38.6846 47.853 38.9624 47.1408 39.1016 46.3865L39.3656 44.9581C39.9733 44.7707 40.5831 44.4854 41.1942 44.072C41.6599 43.7569 42.1157 43.4484 42.5562 43.139C41.9202 47.0208 39.7813 48.184 38.2786 48.512ZM46.983 36.4484C46.5318 39.9715 43.956 41.6663 40.9398 43.7067C38.2774 45.5078 35.5706 44.7191 32.9528 43.9562C32.6251 43.8607 32.2993 43.7657 31.9761 43.6766C28.8533 42.8146 23.6141 40.9491 23.613 38.1387C23.6119 36.7616 24.0063 35.8029 24.8188 35.2076C26.3512 34.085 29.4207 34.2432 33.9423 35.6774C36.3191 36.4316 39.1745 36.8507 41.2774 35.5259C43.0279 34.4228 43.4958 32.5832 43.6131 31.8816C45.1942 31.1213 46.4432 30.2137 47.421 29.3027C47.3415 31.3579 47.2026 34.7326 46.983 36.4484ZM49.6592 25.7461C47.9958 28.7829 45.0841 30.9952 41.7276 32.1828L42.4006 28.5425C44.8515 26.3123 46.6326 23.8339 47.7024 21.1703C48.4002 22.0334 49.042 22.9411 49.6121 23.8738C49.9661 24.4538 49.9837 25.1537 49.6592 25.7461Z" fill="#252631"/>
<path d="M28.5457 36.0526C26.9852 36.8489 26.6281 38.8253 27.6768 40.4308C28.7053 42.0049 30.7868 42.7254 32.3328 41.9364C33.8907 41.1416 34.2523 39.1668 33.2017 37.5584C32.1531 35.9533 30.0647 35.2779 28.5457 36.0526ZM32.1305 41.54C30.8082 42.2147 28.9774 41.6079 28.0494 40.1873C27.1657 38.8346 27.3991 37.1373 28.7479 36.4491C30.1074 35.7553 31.9275 36.422 32.8288 37.8018C33.7154 39.1586 33.4756 40.8538 32.1305 41.54Z" fill="#252631"/>
</svg>
