<svg width="152" height="32" viewBox="0 0 152 32" fill="none" xmlns="http://www.w3.org/2000/svg">
<path d="M8.34448 5.37564C9.41556 5.36087 10.4629 5.69145 11.3314 6.31841C12.2568 6.97832 12.9891 7.87337 13.4527 8.91105C13.9844 10.0545 14.2509 11.3034 14.2323 12.5643C14.2324 13.712 13.9589 14.8431 13.4346 15.864C12.9539 16.846 12.2299 17.6886 11.3314 18.3116C10.4562 18.907 9.42111 19.2231 8.36261 19.2181C5.4406 19.2121 3.71067 17.6302 3.1728 14.4725H2.783L3.0187 18.8555H0V0H3.0187V5.51615L2.783 9.85383H3.27705C3.49812 8.58814 4.12684 7.4294 5.06742 6.55411C5.97305 5.76373 7.1429 5.34304 8.34448 5.37564ZM7.30652 16.2176C8.01349 16.2282 8.71126 16.0565 9.33258 15.719C9.91431 15.4046 10.3964 14.9335 10.7241 14.3592C11.0689 13.7713 11.2475 13.1008 11.2408 12.4193C11.2607 11.9012 11.1727 11.3847 10.9823 10.9024C10.7919 10.4202 10.5033 9.98286 10.1348 9.61813C9.7641 9.24988 9.32192 8.96139 8.83551 8.77041C8.34911 8.57944 7.82877 8.49002 7.30652 8.50765C6.60394 8.49766 5.91173 8.67776 5.30312 9.0289C4.71093 9.35348 4.22115 9.83698 3.88895 10.4249C3.5439 11.0111 3.36525 11.6802 3.37224 12.3603C3.37562 13.0162 3.554 13.6593 3.88895 14.2232C4.247 14.8155 4.73916 15.3154 5.32578 15.6827C5.92492 16.0382 6.60986 16.2232 7.30652 16.2176Z" fill="#18B6D6"/>
<path d="M18.6472 13.1988C18.7855 14.0828 19.2376 14.8874 19.9208 15.4651C20.6625 16.0337 21.5795 16.3255 22.5134 16.2901C23.2805 16.3157 24.0422 16.1532 24.732 15.8166C25.4218 15.48 26.0186 14.9796 26.4704 14.3592L28.4738 15.719C27.9199 16.8209 27.0505 17.7329 25.9763 18.3388C24.9158 18.9211 23.7233 19.2208 22.5134 19.209C21.3047 19.2208 20.115 18.9077 19.0687 18.3025C18.0301 17.6878 17.1633 16.821 16.5486 15.7824C15.9425 14.7199 15.6297 13.5155 15.6421 12.2923C15.6279 11.0776 15.9411 9.88145 16.5486 8.82944C17.1603 7.79443 18.0282 6.93434 19.0687 6.33199C20.1084 5.70688 21.3003 5.38066 22.5134 5.38922C23.7446 5.35424 24.9581 5.68722 25.999 6.34559C27.0233 7.0293 27.8264 7.99627 28.3106 9.12859C28.8614 10.4055 29.1111 11.7919 29.0404 13.1807L18.6472 13.1988ZM22.5134 8.24927C21.6053 8.22575 20.7184 8.52621 20.0115 9.09687C19.3379 9.63576 18.8602 10.3811 18.6517 11.2181H26.212C26.0573 10.3607 25.5867 9.59244 24.8931 9.06514C24.2186 8.5252 23.3773 8.23675 22.5134 8.24927Z" fill="#18B6D6"/>
<path d="M35.073 11.9475C35.0326 12.8952 35.1026 13.8443 35.2815 14.7758C35.3433 15.0072 35.4671 15.2174 35.6397 15.3836C35.8122 15.5497 36.0269 15.6656 36.2605 15.7186C37.2809 15.881 38.3146 15.9448 39.3472 15.909V18.8551C37.0205 18.8551 35.3585 18.6663 34.3614 18.2886C33.9187 18.149 33.5161 17.9047 33.1879 17.5765C32.8596 17.2483 32.6154 16.8457 32.4758 16.403C32.1684 14.9388 32.0421 13.4425 32.0996 11.9475V8.52992H29.5342V5.51575H32.1268V0.942383H35.073V5.51575H39.3381V8.52992H35.073V11.9475Z" fill="#18B6D6"/>
<path d="M45.9515 5.37537C48.1694 5.37537 49.8193 5.89359 50.901 6.93004C51.9828 7.96649 52.5252 9.51361 52.5282 11.5714V18.8553H49.6274L50.0806 14.3227H49.7271C49.162 17.5589 47.4653 19.1771 44.637 19.1771C43.0204 19.1771 41.8117 18.8311 41.0109 18.1391C40.6031 17.7692 40.2835 17.3124 40.0756 16.8025C39.8677 16.2926 39.7769 15.7426 39.8098 15.1929C39.7867 14.5646 39.9239 13.9407 40.2086 13.38C40.4933 12.8194 40.916 12.3405 41.437 11.9884C42.5188 11.2179 44.081 10.8326 46.1237 10.8326H49.5685C49.5175 10.4641 49.3904 10.1102 49.1953 9.79335C49.0003 9.47656 48.7414 9.20378 48.4353 8.99236C47.6844 8.53934 46.8132 8.32589 45.9379 8.38047C45.2722 8.35339 44.612 8.51022 44.0296 8.83372C43.4414 9.19694 42.9351 9.67852 42.543 10.2479L40.1407 8.62069C40.7938 7.63215 41.6536 6.79708 42.6608 6.1731C43.6652 5.61405 44.8026 5.33832 45.9515 5.37537ZM45.1039 16.1448C46.4213 16.1448 47.4336 15.8622 48.1407 15.2972C48.8909 14.6645 49.3761 13.7732 49.5005 12.7997H46.1509C45.2942 12.7496 44.4379 12.905 43.6534 13.253C43.4326 13.3656 43.2438 13.5321 43.1044 13.7371C42.965 13.9421 42.8796 14.1789 42.8561 14.4257C42.8326 14.6724 42.8718 14.9211 42.9699 15.1487C43.0681 15.3764 43.2221 15.5755 43.4177 15.7278C43.9213 16.0422 44.5118 16.1883 45.1039 16.1448Z" fill="#18B6D6"/>
<path d="M59.4718 11.9475C59.4298 12.8954 59.5013 13.8449 59.6848 14.7758C59.7469 15.0086 59.8719 15.2198 60.0463 15.3862C60.2206 15.5525 60.4374 15.6675 60.6729 15.7186C61.6933 15.881 62.727 15.9448 63.7596 15.909V18.8551C61.4359 18.8551 59.7739 18.6663 58.7738 18.2886C58.3314 18.1483 57.9292 17.9038 57.6011 17.5757C57.2729 17.2475 57.0285 16.8454 56.8882 16.403C56.5831 14.9385 56.4568 13.4424 56.512 11.9475V8.52992H53.9375V5.51575H56.5301V0.942383H59.4763V5.51575H63.7415V8.52992H59.4763L59.4718 11.9475Z" fill="black"/>
<path d="M67.9884 9.87617C68.0979 8.91113 68.4198 7.98234 68.9312 7.15662C69.3404 6.56641 69.9283 6.12314 70.6082 5.89203C71.4908 5.63319 72.4084 5.5139 73.3278 5.53849V8.79288C72.8925 8.701 72.4492 8.65241 72.0043 8.64784C71.4676 8.61624 70.9306 8.70575 70.4332 8.90974C69.9358 9.11374 69.4906 9.42699 69.1306 9.82631C68.4689 10.5968 68.1425 11.6756 68.1425 13.058V18.8552H65.1465V5.49316H68.1425L67.4808 9.87617H67.9884Z" fill="black"/>
<path d="M80.1768 5.37591C82.3948 5.37591 84.0461 5.89413 85.1309 6.93058C86.2157 7.96703 86.7566 9.51415 86.7536 11.5719V18.8558H83.8527L84.306 14.3232H83.9524C83.4025 17.5655 81.7073 19.1867 78.8669 19.1867C77.2442 19.1867 76.0355 18.8407 75.2408 18.1487C74.8322 17.7792 74.5117 17.3226 74.303 16.8127C74.0943 16.3028 74.0028 15.7525 74.0352 15.2025C74.0163 14.5714 74.1588 13.9459 74.4491 13.3851C74.7393 12.8244 75.1679 12.347 75.6941 11.998C76.7759 11.2275 78.3396 10.8422 80.3853 10.8422H83.8255C83.7754 10.4739 83.6491 10.1202 83.4548 9.80336C83.2605 9.48655 83.0024 9.21363 82.6969 9.00197C81.9442 8.54911 81.0717 8.33572 80.1949 8.39007C79.5293 8.363 78.8691 8.51982 78.2867 8.84333C77.7006 9.20767 77.196 9.68911 76.8046 10.2575L74.3978 8.6303C75.0536 7.64247 75.9147 6.80764 76.9224 6.1827C77.9153 5.62686 79.0393 5.3482 80.1768 5.37591ZM79.3202 16.1453C80.6376 16.1453 81.6514 15.8628 82.3615 15.2977C83.1134 14.6665 83.5991 13.7744 83.7213 12.8003H80.3762C79.5195 12.7502 78.6633 12.9056 77.8788 13.2535C77.658 13.3661 77.4691 13.5326 77.3297 13.7376C77.1904 13.9426 77.105 14.1794 77.0815 14.4262C77.058 14.673 77.0971 14.9217 77.1953 15.1493C77.2935 15.3769 77.4475 15.5761 77.6431 15.7283C78.1438 16.0415 78.7311 16.1875 79.3202 16.1453Z" fill="black"/>
<path d="M96.7707 5.16284C98.6412 5.16284 100.04 5.74452 100.968 6.90788C101.896 8.07124 102.367 9.94773 102.382 12.5373V18.8558H99.4586V12.5373C99.4586 11.0461 99.173 9.94471 98.611 9.23763C98.0489 8.53054 97.147 8.15887 95.9232 8.15887C95.3676 8.13388 94.8137 8.23556 94.3033 8.45622C93.7929 8.67688 93.3393 9.01073 92.977 9.43253C92.2518 10.2665 91.8937 11.4677 91.8937 13.0586V18.8558H88.875V5.51638H91.8937L91.2319 9.87672H91.6852C91.7924 8.85433 92.1136 7.86595 92.628 6.97587C93.0084 6.33667 93.588 5.83989 94.2778 5.56171C95.0766 5.27428 95.9222 5.13899 96.7707 5.16284Z" fill="black"/>
<path d="M106.62 14.0015C106.941 14.6763 107.428 15.2593 108.034 15.6966C108.702 16.0971 109.472 16.294 110.25 16.2632C112.166 16.2632 113.124 15.8462 113.124 15.0122C113.13 14.8148 113.08 14.6197 112.98 14.4496C112.88 14.2795 112.733 14.1414 112.557 14.0513C111.87 13.7361 111.14 13.5224 110.391 13.4168L109.543 13.2536C107.748 12.9242 106.452 12.4211 105.654 11.7442C105.263 11.41 104.951 10.9922 104.742 10.5215C104.534 10.0508 104.433 9.53933 104.449 9.02469C104.448 8.37667 104.646 7.74396 105.015 7.21166C105.477 6.61312 106.097 6.15613 106.806 5.89268C107.768 5.52278 108.794 5.34716 109.824 5.37597C111.117 5.3079 112.4 5.63688 113.5 6.31874C114.492 7.02346 115.276 7.98354 115.766 9.09721L113.246 10.2983C112.899 9.65915 112.397 9.11694 111.787 8.72101C111.188 8.3945 110.511 8.23778 109.829 8.26775C109.175 8.22327 108.521 8.33676 107.921 8.59863C107.756 8.66534 107.614 8.77913 107.513 8.92583C107.412 9.07252 107.357 9.24563 107.354 9.42356C107.349 9.59204 107.389 9.75882 107.468 9.90745C107.548 10.0561 107.665 10.1814 107.807 10.2712C108.354 10.5578 108.943 10.7567 109.552 10.8604L110.4 11.0236C111.578 11.2015 112.727 11.5353 113.817 12.0162C114.502 12.2969 115.09 12.7691 115.513 13.376C115.844 13.9507 116.007 14.6073 115.982 15.2704C115.957 15.9335 115.746 16.5761 115.372 17.1244C114.896 17.7849 114.238 18.2921 113.477 18.5839C112.451 18.9888 111.353 19.1801 110.25 19.1459C108.896 19.1993 107.552 18.8861 106.361 18.2394C105.257 17.4978 104.371 16.4744 103.796 15.2751L106.62 14.0015Z" fill="black"/>
<path d="M127.27 2.59263C126.34 2.55324 125.407 2.6079 124.487 2.75581C124.257 2.78795 124.037 2.87303 123.846 3.00436C123.654 3.1357 123.495 3.30971 123.381 3.51275C123.146 4.15386 123.034 4.8335 123.051 5.51615H127.27V8.53031H123.028V18.8555H120.082V8.53031H117.462V5.51615H120.082C120.052 4.39207 120.235 3.27248 120.621 2.21643C120.817 1.81153 121.097 1.45301 121.443 1.16465C121.788 0.87629 122.191 0.664696 122.625 0.543909C123.631 0.181303 125.179 0 127.27 0V2.59263Z" fill="black"/>
<path d="M130.747 13.1992C130.885 14.0831 131.337 14.8877 132.02 15.4654C132.764 16.0334 133.683 16.3237 134.617 16.2858C135.385 16.3115 136.147 16.1489 136.838 15.8124C137.528 15.4758 138.126 14.9755 138.579 14.355L140.578 15.7147C140.025 16.8176 139.156 17.73 138.08 18.3346C137.02 18.9185 135.828 19.2197 134.617 19.2094C133.41 19.2216 132.222 18.9085 131.177 18.3028C130.136 17.6895 129.268 16.8225 128.653 15.7827C128.047 14.7202 127.734 13.5158 127.746 12.2926C127.732 11.0779 128.045 9.88176 128.653 8.82975C129.265 7.79354 130.134 6.93321 131.177 6.3323C132.214 5.70192 133.404 5.37089 134.617 5.37593C135.848 5.34536 137.061 5.68312 138.098 6.3459C139.123 7.02961 139.926 7.99658 140.41 9.1289C140.964 10.4049 141.214 11.792 141.14 13.181L130.747 13.1992ZM134.617 8.24958C133.711 8.22555 132.825 8.52613 132.12 9.09718C131.447 9.63653 130.969 10.3817 130.76 11.2184H138.302C138.154 10.3609 137.686 9.59158 136.993 9.06545C136.319 8.5265 135.48 8.23812 134.617 8.24958Z" fill="black"/>
<path d="M145.382 9.87617C145.492 8.91113 145.814 7.98234 146.325 7.15662C146.739 6.56331 147.334 6.11972 148.02 5.89203C148.903 5.63319 149.821 5.5139 150.74 5.53849V8.79288C150.305 8.70076 149.861 8.65218 149.416 8.64784C148.88 8.61624 148.343 8.70575 147.845 8.90974C147.348 9.11374 146.903 9.42699 146.543 9.82631C145.881 10.5968 145.555 11.6756 145.555 13.058V18.8552H142.559V5.49316H145.555L144.893 9.87617H145.382Z" fill="black"/>
<path d="M105.002 24.3857L106.239 29.8702L107.599 24.3857H109.235L110.472 29.8702L111.832 24.3857H113.441L111.288 32.0005H109.548L108.378 26.9104L107.064 32.0005H105.319L103.379 24.3857H105.002Z" fill="#18B6D6"/>
<path d="M120.657 32.0005L120.045 30.5908H116.46L115.848 32.0005H114.081L117.353 24.3857H119.134L122.425 32.0005H120.657ZM117.154 28.9727H119.343L118.246 26.4299L117.154 28.9727Z" fill="#18B6D6"/>
<path d="M125.553 30.4322H129.455V32.0005H125.553H123.984V24.3857H125.553V30.4322Z" fill="#18B6D6"/>
<path d="M132.605 30.4322H136.508V32.0005H132.605H131.037V24.3857H132.605V30.4322Z" fill="#18B6D6"/>
<path d="M143.552 25.9673H139.649V27.4132H142.931V28.9906H139.649V30.441H143.552V32.0002H138.076V24.3945H143.552V25.9673Z" fill="#18B6D6"/>
<path d="M151.542 24.3857V25.9585H149.122V32.0005H147.549V25.9585H145.124V24.3948H147.549L151.542 24.3857Z" fill="#18B6D6"/>
</svg>
