<svg width="22" height="18" viewBox="0 0 22 18" fill="none" xmlns="http://www.w3.org/2000/svg">
<path d="M21.58 2.99499C20.845 3.30999 20.005 3.52 19.165 3.625C20.005 3.1 20.74 2.26 21.055 1.315C20.215 1.84 19.375 2.155 18.325 2.365C17.59 1.525 16.435 1 15.28 1C12.97 1 11.08 2.89 11.08 5.2C11.08 5.515 11.08 5.82999 11.185 6.14499C7.72 5.93499 4.56999 4.255 2.46999 1.735C2.15499 2.365 1.94499 3.1 1.94499 3.835C1.94499 5.305 2.68 6.565 3.835 7.3C3.1 7.3 2.46999 7.09 1.94499 6.775C1.94499 8.77 3.41499 10.555 5.30499 10.87C4.98999 10.975 4.57 10.975 4.15 10.975C3.835 10.975 3.625 10.975 3.31 10.87C3.835 12.55 5.41 13.81 7.3 13.81C5.83 14.965 4.045 15.595 2.05 15.595C1.735 15.595 1.42 15.595 1 15.49C2.89 16.645 5.095 17.38 7.51 17.38C15.28 17.38 19.48 10.975 19.48 5.41V4.885C20.32 4.57 21.055 3.83499 21.58 2.99499Z" fill="url(#paint0_linear_804_1086)"/>
<defs>
<linearGradient id="paint0_linear_804_1086" x1="19.0173" y1="15.1024" x2="-2.18843" y2="5.36931" gradientUnits="userSpaceOnUse">
<stop stop-color="#36D1DC"/>
<stop offset="0.963542" stop-color="#5B86E5"/>
</linearGradient>
</defs>
</svg>
