<svg width="22" height="18" viewBox="0 0 22 18" fill="none" xmlns="http://www.w3.org/2000/svg">
<path d="M19.85 2.95958C19.85 1.3873 18.4627 0 16.8904 0H4.95958C3.3873 0 2 1.3873 2 2.95958V14.8904C2 16.4627 3.3873 17.85 4.95958 17.85H10.9712V11.0984H8.75156V8.13886H10.9712V6.93653C10.9712 4.90181 12.451 3.14455 14.3008 3.14455H16.7054V6.10414H14.3008C14.0233 6.10414 13.7459 6.38161 13.7459 6.93653V8.13886H16.7054V11.0984H13.7459V17.85H16.8904C18.4627 17.85 19.85 16.4627 19.85 14.8904V2.95958Z" fill="url(#paint0_linear_804_1087)"/>
<defs>
<linearGradient id="paint0_linear_804_1087" x1="17.6273" y1="15.368" x2="-2.01841" y2="8.19116" gradientUnits="userSpaceOnUse">
<stop stop-color="#36D1DC"/>
<stop offset="0.963542" stop-color="#5B86E5"/>
</linearGradient>
</defs>
</svg>
