<svg width="22" height="18" viewBox="0 0 22 18" fill="none" xmlns="http://www.w3.org/2000/svg">
<path d="M21.7064 14.4198C21.7064 14.3326 21.6192 14.3326 21.6192 14.2455C21.2705 13.5481 20.4859 12.6763 19.4398 11.7174C18.9168 11.2815 18.6552 10.9328 18.4809 10.7585C18.2194 10.4098 18.2194 10.1483 18.3066 9.79958C18.3937 9.53806 18.7424 9.10218 19.3526 8.31761C19.7013 7.88174 19.8757 7.62023 20.1372 7.3587C21.4448 5.61522 22.055 4.48195 21.8807 3.95891L21.7935 3.87174C21.7064 3.78457 21.6192 3.6974 21.4448 3.6974C21.2705 3.61022 21.009 3.61022 20.7474 3.6974H17.4348C17.3477 3.6974 17.3476 3.6974 17.1733 3.6974C17.0861 3.6974 16.999 3.6974 16.999 3.6974H16.9118H16.8246L16.7374 3.78456C16.6502 3.87174 16.6502 3.87173 16.6502 3.95891C16.3015 4.91782 15.8657 5.70239 15.4298 6.57413C15.1683 7.01 14.9068 7.44588 14.6452 7.79457C14.3837 8.14327 14.2094 8.40479 14.035 8.57913C13.8607 8.75348 13.6863 8.84066 13.5991 9.01501C13.512 9.10218 13.3376 9.18936 13.3376 9.10218C13.2505 9.10218 13.1633 9.10218 13.1633 9.01501C13.0761 8.92783 12.9889 8.84065 12.9018 8.75348C12.8146 8.66631 12.8146 8.49196 12.7274 8.31761C12.7274 8.14326 12.7274 7.96891 12.7274 7.88174C12.7274 7.79457 12.7274 7.53305 12.7274 7.3587C12.7274 7.09718 12.7274 6.92283 12.7274 6.83565C12.7274 6.57413 12.7274 6.22544 12.7274 5.87675C12.7274 5.52805 12.7274 5.26652 12.7274 5.09217C12.7274 4.91782 12.7274 4.6563 12.7274 4.48196C12.7274 4.22043 12.7274 4.04608 12.7274 3.95891C12.7274 3.87173 12.6403 3.69739 12.6403 3.61022C12.5531 3.52304 12.4659 3.43587 12.3787 3.34869C12.2915 3.26152 12.1172 3.26152 12.03 3.17435C11.5942 3.08717 11.0711 3 10.4609 3C9.06612 3 8.1072 3.08718 7.7585 3.26152C7.58415 3.3487 7.4098 3.43587 7.32263 3.61022C7.14828 3.78456 7.14828 3.87174 7.23545 3.87174C7.67132 3.95891 8.02002 4.13325 8.19437 4.39478L8.28155 4.56914C8.36872 4.65631 8.36871 4.83065 8.45588 5.09217C8.54306 5.35369 8.54306 5.61522 8.54306 5.96391C8.54306 6.48696 8.54306 7.01001 8.54306 7.3587C8.54306 7.79457 8.45588 8.05609 8.45588 8.31761C8.45588 8.57913 8.36872 8.75349 8.28155 8.84066C8.19438 9.01501 8.19437 9.10218 8.10719 9.10218C8.10719 9.10218 8.10719 9.18935 8.02001 9.18935C7.93284 9.18935 7.84567 9.27653 7.67132 9.27653C7.58415 9.27653 7.4098 9.18936 7.32263 9.10218C7.14828 9.01501 6.97393 8.84066 6.88676 8.66631C6.71241 8.49197 6.53806 8.23044 6.36371 7.88174C6.18936 7.53304 5.92783 7.18435 5.75348 6.66131L5.57915 6.31262C5.49197 6.13827 5.31763 5.78957 5.14328 5.3537C4.96893 4.91783 4.79458 4.56914 4.62023 4.13327C4.53305 3.95892 4.44589 3.87174 4.35872 3.78456H4.27154C4.27154 3.78456 4.18435 3.6974 4.09718 3.6974C4.01 3.6974 3.92284 3.61022 3.83567 3.61022H0.697395C0.348699 3.61022 0.174353 3.69739 0.0871794 3.78456L0 3.87174C0 3.87174 0 3.95891 0 4.04609C0 4.13326 5.31938e-06 4.22043 0.0871794 4.39478C0.52305 5.44087 1.04609 6.48696 1.56914 7.53305C2.09218 8.49196 2.61523 9.36371 2.96393 9.97393C3.3998 10.5841 3.74849 11.1944 4.18436 11.7174C4.62023 12.2405 4.88175 12.5891 4.96892 12.7635C5.14327 12.9378 5.23044 13.025 5.31761 13.1122L5.57915 13.3737C5.7535 13.5481 6.01501 13.8096 6.36371 14.0711C6.71241 14.3326 7.14827 14.5941 7.58414 14.8557C8.02001 15.1172 8.54307 15.2915 9.06611 15.4659C9.67633 15.6402 10.1994 15.7274 10.7224 15.6402H12.03C12.2915 15.6402 12.4659 15.5531 12.6403 15.3787L12.7274 15.2915C12.7274 15.2044 12.8146 15.2044 12.8146 15.1172C12.8146 15.03 12.8146 14.9428 12.8146 14.7685C12.8146 14.4198 12.8146 14.1583 12.9018 13.8968C12.9889 13.6352 12.989 13.4609 13.0761 13.2865C13.1633 13.1122 13.2505 13.025 13.3376 12.9378C13.4248 12.8507 13.512 12.7635 13.512 12.7635H13.5991C13.7735 12.6763 14.035 12.7635 14.2094 12.9378C14.4709 13.1122 14.7324 13.3737 14.9068 13.6352C15.0811 13.8968 15.3427 14.1583 15.6913 14.507C16.04 14.8557 16.3016 15.1172 16.4759 15.2044L16.7374 15.3787C16.9118 15.4659 17.0861 15.5531 17.3476 15.6402C17.6092 15.7274 17.7835 15.7274 17.9579 15.7274L20.9218 15.6402C21.1833 15.6402 21.4448 15.5531 21.6192 15.4659C21.7935 15.3787 21.8807 15.2915 21.8807 15.1172C21.8807 15.03 21.8807 14.8557 21.8807 14.7685C21.7063 14.5942 21.7064 14.507 21.7064 14.4198Z" fill="url(#paint0_linear_804_1088)"/>
<defs>
<linearGradient id="paint0_linear_804_1088" x1="19.1816" y1="13.9577" x2="-0.40445" y2="1.64047" gradientUnits="userSpaceOnUse">
<stop stop-color="#36D1DC"/>
<stop offset="0.963542" stop-color="#5B86E5"/>
</linearGradient>
</defs>
</svg>
