<svg width="915" height="515" viewBox="0 0 915 515" fill="none" xmlns="http://www.w3.org/2000/svg">
<path d="M0.350493 167C-0.0694395 167.358 -0.119069 167.989 0.239644 168.409C0.598357 168.829 1.22957 168.879 1.64951 168.52L0.350493 167ZM309.5 244.758L310.431 244.392L309.5 244.758ZM915 167.76L912.005 156.608L903.845 164.778L915 167.76ZM3.94962 166.555C4.36946 166.196 4.41891 165.565 4.06009 165.145C3.70126 164.725 3.07003 164.676 2.65019 165.034L3.94962 166.555ZM7.25549 161.098C6.8356 161.457 6.78604 162.088 7.1448 162.508C7.50355 162.928 8.13478 162.978 8.55467 162.619L7.25549 161.098ZM13.1638 158.685C13.5841 158.326 13.6344 157.695 13.2761 157.275C12.9178 156.855 12.2866 156.804 11.8663 157.163L13.1638 158.685ZM16.4819 153.235C16.0609 153.593 16.0094 154.224 16.3669 154.645C16.7243 155.066 17.3554 155.117 17.7764 154.76L16.4819 153.235ZM22.3992 150.846C22.8213 150.49 22.8747 149.859 22.5185 149.437C22.1623 149.015 21.5314 148.962 21.1093 149.318L22.3992 150.846ZM25.7508 145.416C25.3274 145.77 25.2715 146.401 25.626 146.824C25.9805 147.248 26.6112 147.304 27.0347 146.949L25.7508 145.416ZM31.6849 143.075C32.1101 142.722 32.1691 142.092 31.8166 141.667C31.4642 141.241 30.8338 141.182 30.4086 141.535L31.6849 143.075ZM35.0917 137.676C34.6644 138.026 34.6017 138.656 34.9516 139.083C35.3015 139.51 35.9316 139.573 36.3589 139.223L35.0917 137.676ZM41.0508 135.407C41.4805 135.06 41.5476 134.431 41.2007 134.001C40.8538 133.571 40.2242 133.504 39.7944 133.851L41.0508 135.407ZM44.5351 130.055C44.1026 130.398 44.0304 131.027 44.3738 131.46C44.7172 131.892 45.3463 131.964 45.7788 131.621L44.5351 130.055ZM50.5278 127.885C50.9634 127.545 51.0415 126.917 50.7021 126.481C50.3626 126.046 49.7343 125.968 49.2986 126.307L50.5278 127.885ZM54.1129 122.596C53.6736 122.931 53.589 123.559 53.9238 123.998C54.2587 124.437 54.8861 124.522 55.3254 124.187L54.1129 122.596ZM60.1482 120.554C60.5914 120.225 60.6834 119.598 60.3538 119.155C60.0242 118.712 59.3978 118.62 58.9546 118.95L60.1482 120.554ZM63.8587 115.351C63.4113 115.675 63.3109 116.3 63.6346 116.748C63.9583 117.195 64.5834 117.296 65.0309 116.972L63.8587 115.351ZM69.9462 113.47C70.3984 113.153 70.508 112.53 70.1909 112.078C69.8739 111.625 69.2503 111.516 68.7981 111.833L69.9462 113.47ZM73.8083 108.38C73.3509 108.69 73.231 109.312 73.5406 109.769C73.8501 110.227 74.4718 110.346 74.9292 110.037L73.8083 108.38ZM79.9569 106.7C80.4199 106.399 80.5511 105.779 80.25 105.316C79.9489 104.853 79.3294 104.722 78.8665 105.023L79.9569 106.7ZM83.9985 101.758C83.5295 102.049 83.3858 102.666 83.6774 103.135C83.9691 103.604 84.5857 103.748 85.0547 103.456L83.9985 101.758ZM90.216 100.325C90.6914 100.044 90.849 99.4305 90.5679 98.9551C90.2869 98.4797 89.6736 98.3221 89.1982 98.6031L90.216 100.325ZM94.4667 95.5748C93.9845 95.844 93.8117 96.4531 94.0809 96.9354C94.35 97.4176 94.9592 97.5904 95.4414 97.3212L94.4667 95.5748ZM100.757 94.4484C101.246 94.1926 101.436 93.5885 101.18 93.099C100.924 92.6095 100.32 92.42 99.8305 92.6758L100.757 94.4484ZM105.248 89.947C104.751 90.1878 104.543 90.7859 104.784 91.2829C105.025 91.7799 105.623 91.9876 106.12 91.7468L105.248 89.947ZM111.606 89.1994C112.111 88.9754 112.339 88.3846 112.115 87.8798C111.891 87.3749 111.3 87.1473 110.795 87.3712L111.606 89.1994ZM116.386 85.0112C115.873 85.2164 115.624 85.7985 115.829 86.3112C116.034 86.8239 116.616 87.0732 117.129 86.8679L116.386 85.0112ZM122.779 84.7366C123.3 84.5524 123.573 83.981 123.389 83.4603C123.204 82.9397 122.633 82.6669 122.112 82.851L122.779 84.7366ZM127.901 80.9453C127.373 81.1061 127.075 81.6647 127.236 82.1931C127.397 82.7215 127.955 83.0194 128.484 82.8586L127.901 80.9453ZM134.267 81.2491C134.803 81.1142 135.128 80.5707 134.993 80.0351C134.858 79.4995 134.314 79.1747 133.779 79.3096L134.267 81.2491ZM139.749 77.971C139.207 78.0774 138.854 78.6029 138.96 79.1448C139.066 79.6868 139.592 80.0399 140.134 79.9336L139.749 77.971ZM146.036 78.9473C146.583 78.8721 146.966 78.3675 146.891 77.8204C146.815 77.2732 146.311 76.8907 145.764 76.966L146.036 78.9473ZM151.855 76.3149C151.304 76.3566 150.892 76.8369 150.933 77.3876C150.975 77.9383 151.455 78.3509 152.006 78.3092L151.855 76.3149ZM157.986 78.0479C158.538 78.0417 158.981 77.589 158.974 77.0368C158.968 76.4845 158.516 76.0418 157.963 76.048L157.986 78.0479ZM164.088 76.1844C163.536 76.1534 163.064 76.5753 163.033 77.1268C163.002 77.6782 163.424 78.1503 163.976 78.1813L164.088 76.1844ZM169.926 78.721C170.474 78.7899 170.974 78.4016 171.043 77.8536C171.112 77.3056 170.724 76.8055 170.176 76.7367L169.926 78.721ZM176.226 77.7128C175.684 77.6059 175.158 77.9584 175.051 78.5002C174.944 79.042 175.297 79.568 175.838 79.6749L176.226 77.7128ZM181.664 81.0372C182.197 81.1815 182.747 80.8663 182.891 80.3332C183.035 79.8001 182.72 79.251 182.187 79.1067L181.664 81.0372ZM188.021 80.9011C187.499 80.721 186.93 80.9983 186.75 81.5204C186.57 82.0425 186.847 82.6117 187.369 82.7918L188.021 80.9011ZM193.003 84.9466C193.512 85.1607 194.099 84.9215 194.313 84.4124C194.527 83.9033 194.288 83.317 193.779 83.103L193.003 84.9466ZM199.288 85.6247C198.793 85.3796 198.193 85.5821 197.948 86.077C197.703 86.5719 197.906 87.1718 198.401 87.4169L199.288 85.6247ZM203.738 90.2624C204.218 90.5364 204.829 90.3698 205.103 89.8902C205.377 89.4107 205.21 88.7999 204.73 88.5259L203.738 90.2624ZM209.898 91.6697C209.434 91.3701 208.815 91.5034 208.516 91.9674C208.216 92.4313 208.349 93.0503 208.813 93.3499L209.898 91.6697ZM213.81 96.7633C214.258 97.0862 214.883 96.9849 215.206 96.5368C215.529 96.0888 215.428 95.4638 214.98 95.1409L213.81 96.7633ZM219.799 98.7908C219.367 98.4473 218.738 98.5196 218.394 98.9521C218.051 99.3846 218.123 100.014 218.556 100.357L219.799 98.7908ZM223.229 104.24C223.646 104.602 224.278 104.557 224.64 104.14C225.002 103.723 224.957 103.091 224.54 102.729L223.229 104.24ZM229.005 106.762C228.602 106.384 227.969 106.404 227.591 106.807C227.213 107.209 227.233 107.842 227.636 108.22L229.005 106.762ZM232.032 112.507C232.42 112.9 233.054 112.904 233.446 112.515C233.839 112.127 233.843 111.494 233.454 111.101L232.032 112.507ZM237.572 115.407C237.197 115.001 236.564 114.977 236.159 115.352C235.753 115.727 235.729 116.36 236.104 116.765L237.572 115.407ZM240.176 121.305C240.538 121.722 241.17 121.766 241.587 121.403C242.003 121.041 242.048 120.409 241.685 119.992L240.176 121.305ZM245.58 124.603C245.23 124.176 244.6 124.114 244.173 124.465C243.746 124.815 243.684 125.446 244.035 125.872L245.58 124.603ZM247.787 130.565C248.126 131.001 248.754 131.079 249.19 130.74C249.626 130.401 249.704 129.773 249.365 129.337L247.787 130.565ZM253.115 134.279C252.786 133.835 252.16 133.741 251.716 134.07C251.272 134.398 251.178 135.025 251.507 135.469L253.115 134.279ZM254.96 140.247C255.279 140.698 255.903 140.805 256.354 140.486C256.805 140.168 256.912 139.544 256.594 139.092L254.96 140.247ZM260.07 144.125C259.76 143.667 259.139 143.547 258.681 143.856C258.224 144.165 258.103 144.787 258.412 145.244L260.07 144.125ZM261.776 150.33C262.076 150.794 262.695 150.926 263.159 150.626C263.622 150.326 263.755 149.706 263.455 149.243L261.776 150.33ZM266.651 154.276C266.359 153.807 265.742 153.664 265.273 153.956C264.805 154.248 264.661 154.865 264.953 155.333L266.651 154.276ZM268.129 160.531C268.413 161.004 269.028 161.158 269.501 160.874C269.975 160.59 270.129 159.976 269.845 159.502L268.129 160.531ZM272.961 164.795C272.684 164.317 272.073 164.154 271.595 164.43C271.117 164.707 270.953 165.318 271.23 165.796L272.961 164.795ZM274.155 170.941C274.425 171.423 275.034 171.596 275.516 171.326C275.998 171.057 276.17 170.447 275.901 169.965L274.155 170.941ZM278.838 175.305C278.575 174.82 277.968 174.639 277.483 174.902C276.997 175.165 276.816 175.772 277.079 176.257L278.838 175.305ZM279.997 181.736C280.253 182.225 280.857 182.414 281.347 182.158C281.836 181.901 282.024 181.297 281.768 180.808L279.997 181.736ZM284.476 186.052C284.226 185.56 283.624 185.364 283.131 185.614C282.639 185.865 282.443 186.467 282.694 186.959L284.476 186.052ZM285.39 192.332C285.635 192.827 286.234 193.03 286.729 192.785C287.224 192.541 287.427 191.941 287.182 191.446L285.39 192.332ZM289.887 196.991C289.647 196.493 289.05 196.284 288.552 196.523C288.054 196.762 287.845 197.36 288.084 197.858L289.887 196.991ZM290.681 203.332C290.915 203.832 291.511 204.048 292.011 203.813C292.511 203.579 292.727 202.984 292.493 202.484L290.681 203.332ZM294.99 207.887C294.761 207.385 294.168 207.163 293.665 207.393C293.163 207.622 292.942 208.215 293.171 208.718L294.99 207.887ZM295.659 214.237C295.884 214.741 296.475 214.968 296.98 214.744C297.484 214.519 297.711 213.928 297.486 213.423L295.659 214.237ZM299.981 219.094C299.761 218.588 299.171 218.355 298.665 218.575C298.158 218.796 297.926 219.385 298.146 219.891L299.981 219.094ZM300.516 225.408C300.732 225.917 301.319 226.154 301.827 225.938C302.336 225.722 302.573 225.135 302.357 224.627L300.516 225.408ZM304.666 230.125C304.454 229.615 303.869 229.373 303.359 229.585C302.849 229.797 302.607 230.382 302.819 230.892L304.666 230.125ZM305.12 236.495C305.328 237.007 305.911 237.253 306.423 237.045C306.934 236.837 307.181 236.254 306.973 235.742L305.12 236.495ZM309.278 241.478C309.074 240.965 308.493 240.714 307.98 240.918C307.466 241.123 307.216 241.704 307.42 242.217L309.278 241.478ZM309.694 247.975C309.898 248.488 310.479 248.74 310.992 248.536C311.506 248.333 311.757 247.752 311.554 247.239L309.694 247.975ZM313.803 252.887C313.597 252.374 313.015 252.125 312.503 252.33C311.99 252.536 311.741 253.118 311.946 253.63L313.803 252.887ZM314.2 259.224C314.408 259.736 314.991 259.983 315.503 259.775C316.014 259.568 316.261 258.985 316.054 258.473L314.2 259.224ZM318.307 263.997C318.097 263.486 317.513 263.242 317.002 263.452C316.491 263.662 316.247 264.246 316.457 264.757L318.307 263.997ZM318.715 270.227C318.927 270.737 319.512 270.979 320.022 270.767C320.532 270.556 320.774 269.97 320.562 269.46L318.715 270.227ZM322.819 274.862C322.605 274.352 322.019 274.113 321.51 274.327C321.001 274.541 320.761 275.128 320.975 275.637L322.819 274.862ZM323.314 281.165C323.531 281.673 324.118 281.91 324.626 281.693C325.134 281.477 325.371 280.89 325.155 280.381L323.314 281.165ZM327.548 285.966C327.329 285.459 326.741 285.225 326.234 285.444C325.726 285.663 325.493 286.251 325.711 286.758L327.548 285.966ZM328.11 292.282C328.331 292.788 328.921 293.019 329.427 292.798C329.933 292.577 330.164 291.987 329.943 291.481L328.11 292.282ZM332.339 296.928C332.115 296.423 331.525 296.195 331.02 296.419C330.515 296.642 330.287 297.233 330.51 297.738L332.339 296.928ZM332.912 303.124C333.138 303.628 333.73 303.854 334.234 303.627C334.737 303.401 334.963 302.809 334.736 302.306L332.912 303.124ZM337.135 307.614C336.906 307.112 336.313 306.89 335.811 307.118C335.308 307.347 335.086 307.94 335.314 308.442L337.135 307.614ZM337.864 314.009C338.096 314.51 338.69 314.729 339.191 314.498C339.693 314.267 339.912 313.673 339.68 313.171L337.864 314.009ZM342.229 318.656C341.995 318.155 341.399 317.94 340.899 318.174C340.399 318.408 340.183 319.003 340.417 319.503L342.229 318.656ZM342.971 324.92C343.208 325.419 343.804 325.632 344.303 325.395C344.802 325.158 345.015 324.561 344.778 324.063L342.971 324.92ZM347.327 329.392C347.087 328.895 346.489 328.686 345.992 328.925C345.494 329.165 345.285 329.763 345.525 330.26L347.327 329.392ZM348.079 335.523C348.322 336.019 348.921 336.225 349.417 335.982C349.913 335.739 350.119 335.14 349.876 334.644L348.079 335.523ZM352.544 340.059C352.298 339.564 351.698 339.362 351.204 339.608C350.709 339.853 350.507 340.454 350.753 340.948L352.544 340.059ZM353.473 346.383C353.722 346.876 354.324 347.074 354.817 346.825C355.31 346.577 355.508 345.975 355.259 345.482L353.473 346.383ZM357.973 350.818C357.721 350.326 357.118 350.132 356.627 350.384C356.136 350.636 355.941 351.239 356.193 351.73L357.973 350.818ZM358.913 356.99C359.168 357.48 359.772 357.67 360.262 357.415C360.751 357.16 360.942 356.556 360.686 356.066L358.913 356.99ZM363.398 361.227C363.14 360.739 362.534 360.553 362.046 360.811C361.558 361.07 361.372 361.675 361.631 362.163L363.398 361.227ZM364.492 367.516C364.754 368.002 365.361 368.184 365.847 367.921C366.333 367.659 366.514 367.053 366.252 366.567L364.492 367.516ZM369.147 371.888C368.881 371.403 368.273 371.226 367.789 371.492C367.305 371.758 367.128 372.366 367.394 372.85L369.147 371.888ZM370.294 378.085C370.564 378.567 371.173 378.739 371.655 378.47C372.137 378.2 372.309 377.591 372.04 377.109L370.294 378.085ZM374.93 382.23C374.656 381.75 374.046 381.583 373.566 381.856C373.086 382.129 372.918 382.74 373.192 383.22L374.93 382.23ZM376.117 388.308C376.394 388.786 377.006 388.948 377.484 388.671C377.961 388.394 378.124 387.782 377.847 387.304L376.117 388.308ZM380.94 392.58C380.658 392.105 380.045 391.948 379.57 392.229C379.095 392.51 378.938 393.124 379.219 393.599L380.94 392.58ZM382.318 398.776C382.603 399.249 383.218 399.4 383.691 399.114C384.163 398.828 384.315 398.214 384.029 397.741L382.318 398.776ZM387.113 402.788C386.823 402.318 386.207 402.172 385.737 402.463C385.267 402.753 385.122 403.369 385.412 403.839L387.113 402.788ZM388.501 408.788C388.796 409.255 389.414 409.395 389.881 409.1C390.348 408.805 390.487 408.187 390.193 407.72L388.501 408.788ZM393.463 412.844C393.164 412.38 392.545 412.246 392.081 412.546C391.617 412.846 391.484 413.465 391.783 413.929L393.463 412.844ZM395.099 419.002C395.404 419.462 396.024 419.589 396.485 419.284C396.946 418.979 397.072 418.359 396.767 417.898L395.099 419.002ZM400.064 422.82C399.754 422.363 399.132 422.244 398.675 422.554C398.218 422.864 398.098 423.485 398.408 423.943L400.064 422.82ZM401.71 428.752C402.026 429.205 402.649 429.317 403.102 429.002C403.556 428.686 403.668 428.063 403.352 427.61L401.71 428.752ZM406.854 432.578C406.533 432.128 405.908 432.024 405.459 432.346C405.01 432.667 404.906 433.291 405.227 433.741L406.854 432.578ZM408.781 438.643C409.108 439.088 409.734 439.183 410.179 438.856C410.624 438.529 410.719 437.903 410.392 437.458L408.781 438.643ZM413.919 442.184C413.585 441.744 412.958 441.657 412.518 441.991C412.077 442.324 411.991 442.951 412.324 443.391L413.919 442.184ZM415.895 448.035C416.235 448.471 416.864 448.548 417.299 448.208C417.734 447.868 417.812 447.24 417.472 446.805L415.895 448.035ZM421.277 451.596C420.93 451.166 420.3 451.099 419.87 451.446C419.441 451.793 419.374 452.423 419.721 452.853L421.277 451.596ZM423.533 457.489C423.887 457.912 424.518 457.968 424.941 457.614C425.365 457.259 425.421 456.629 425.066 456.205L423.533 457.489ZM428.839 460.633C428.477 460.216 427.846 460.171 427.429 460.533C427.012 460.895 426.967 461.527 427.329 461.944L428.839 460.633ZM431.358 466.494C431.729 466.904 432.361 466.936 432.771 466.565C433.18 466.195 433.212 465.563 432.842 465.153L431.358 466.494ZM436.919 469.568C436.54 469.166 435.907 469.148 435.506 469.527C435.104 469.906 435.086 470.539 435.465 470.941L436.919 469.568ZM439.551 475.173C439.939 475.566 440.573 475.57 440.965 475.182C441.358 474.793 441.362 474.16 440.974 473.767L439.551 475.173ZM445.236 477.974C444.838 477.591 444.205 477.604 443.822 478.002C443.439 478.4 443.451 479.033 443.849 479.416L445.236 477.974ZM448.277 483.56C448.686 483.931 449.318 483.901 449.69 483.493C450.062 483.084 450.032 482.452 449.623 482.08L448.277 483.56ZM453.979 485.928C453.559 485.568 452.928 485.617 452.568 486.036C452.209 486.456 452.258 487.087 452.677 487.446L453.979 485.928ZM457.374 491.338C457.805 491.683 458.434 491.613 458.779 491.182C459.124 490.751 459.055 490.122 458.623 489.777L457.374 491.338ZM463.332 493.406C462.889 493.077 462.262 493.17 461.934 493.614C461.605 494.057 461.698 494.684 462.142 495.012L463.332 493.406ZM466.949 498.43C467.405 498.74 468.027 498.622 468.338 498.165C468.649 497.709 468.53 497.087 468.074 496.776L466.949 498.43ZM473.154 500.065C472.684 499.776 472.068 499.923 471.779 500.394C471.49 500.865 471.637 501.48 472.108 501.769L473.154 500.065ZM477.216 504.734C477.701 504.999 478.309 504.821 478.573 504.336C478.838 503.851 478.66 503.244 478.175 502.979L477.216 504.734ZM483.527 505.705C483.028 505.47 482.432 505.683 482.196 506.183C481.96 506.682 482.174 507.278 482.673 507.514L483.527 505.705ZM488.157 509.892C488.671 510.095 489.252 509.843 489.454 509.33C489.657 508.816 489.405 508.235 488.892 508.032L488.157 509.892ZM494.487 510.009C493.959 509.845 493.399 510.139 493.235 510.667C493.07 511.194 493.365 511.755 493.892 511.919L494.487 510.009ZM499.7 513.471C500.239 513.591 500.774 513.251 500.894 512.712C501.014 512.173 500.674 511.639 500.135 511.519L499.7 513.471ZM505.949 512.537C505.401 512.468 504.901 512.855 504.831 513.403C504.762 513.951 505.15 514.452 505.698 514.521L505.949 512.537ZM511.704 514.981C512.256 514.995 512.715 514.559 512.729 514.007C512.743 513.455 512.307 512.996 511.755 512.982L511.704 514.981ZM517.636 512.814C517.086 512.86 516.677 513.344 516.723 513.894C516.769 514.444 517.253 514.853 517.803 514.807L517.636 512.814ZM523.802 513.963C524.344 513.855 524.695 513.328 524.588 512.787C524.48 512.245 523.953 511.893 523.412 512.001L523.802 513.963ZM529.076 510.534C528.55 510.703 528.26 511.266 528.429 511.792C528.597 512.318 529.16 512.607 529.686 512.439L529.076 510.534ZM535.355 510.266C535.859 510.041 536.084 509.449 535.859 508.945C535.633 508.441 535.042 508.215 534.537 508.441L535.355 510.266ZM539.753 505.767C539.275 506.044 539.112 506.656 539.389 507.134C539.666 507.611 540.278 507.774 540.756 507.497L539.753 505.767ZM545.83 504.217C546.279 503.896 546.383 503.271 546.062 502.822C545.74 502.373 545.116 502.269 544.666 502.59L545.83 504.217ZM549.312 498.945C548.893 499.304 548.844 499.935 549.203 500.355C549.562 500.774 550.194 500.823 550.613 500.464L549.312 498.945ZM555.02 496.38C555.411 495.99 555.411 495.357 555.021 494.966C554.63 494.576 553.997 494.575 553.607 494.966L555.02 496.38ZM557.649 490.631C557.286 491.048 557.33 491.68 557.746 492.042C558.162 492.405 558.794 492.362 559.157 491.945L557.649 490.631ZM562.966 487.292C563.302 486.854 563.221 486.226 562.783 485.889C562.346 485.552 561.718 485.634 561.381 486.071L562.966 487.292ZM564.849 481.301C564.536 481.756 564.652 482.379 565.107 482.692C565.562 483.005 566.184 482.89 566.497 482.434L564.849 481.301ZM569.825 477.328C570.116 476.858 569.97 476.242 569.501 475.952C569.031 475.661 568.415 475.807 568.124 476.276L569.825 477.328ZM571.079 471.26C570.809 471.741 570.98 472.351 571.462 472.621C571.943 472.892 572.553 472.72 572.823 472.239L571.079 471.26ZM575.719 466.832C575.971 466.34 575.776 465.738 575.284 465.487C574.792 465.235 574.19 465.43 573.938 465.922L575.719 466.832ZM576.508 460.672C576.274 461.172 576.489 461.768 576.989 462.002C577.489 462.237 578.084 462.021 578.319 461.521L576.508 460.672ZM580.772 456.065C580.991 455.558 580.757 454.969 580.25 454.751C579.743 454.532 579.154 454.766 578.936 455.273L580.772 456.065ZM581.275 449.618C581.071 450.131 581.322 450.713 581.836 450.916C582.349 451.12 582.93 450.869 583.134 450.356L581.275 449.618ZM585.211 444.919C585.402 444.4 585.136 443.825 584.618 443.635C584.1 443.444 583.525 443.71 583.334 444.228L585.211 444.919ZM585.32 438.62C585.142 439.142 585.422 439.711 585.944 439.889C586.467 440.067 587.035 439.788 587.213 439.265L585.32 438.62ZM589.139 433.395C589.305 432.869 589.013 432.307 588.486 432.141C587.96 431.974 587.398 432.267 587.232 432.793L589.139 433.395ZM588.915 427.267C588.76 427.797 589.063 428.353 589.593 428.509C590.123 428.665 590.678 428.361 590.834 427.831L588.915 427.267ZM592.462 422.091C592.608 421.559 592.294 421.009 591.762 420.863C591.229 420.717 590.679 421.031 590.533 421.564L592.462 422.091ZM592.086 415.678C591.95 416.213 592.273 416.757 592.808 416.893C593.344 417.03 593.888 416.706 594.024 416.171L592.086 415.678ZM595.437 410.414C595.564 409.877 595.232 409.338 594.694 409.21C594.157 409.083 593.618 409.415 593.491 409.953L595.437 410.414ZM594.801 404.227C594.682 404.766 595.022 405.3 595.562 405.419C596.101 405.538 596.635 405.197 596.754 404.658L594.801 404.227ZM598.012 398.75C598.123 398.209 597.775 397.68 597.234 397.569C596.693 397.458 596.164 397.806 596.053 398.347L598.012 398.75ZM597.24 392.357C597.136 392.9 597.492 393.424 598.034 393.527C598.577 393.631 599.101 393.275 599.204 392.732L597.24 392.357ZM600.259 387.004C600.356 386.461 599.993 385.942 599.45 385.845C598.906 385.748 598.387 386.111 598.29 386.654L600.259 387.004ZM599.29 380.821C599.2 381.366 599.569 381.881 600.114 381.971C600.659 382.061 601.173 381.692 601.263 381.147L599.29 380.821ZM602.216 375.161C602.299 374.615 601.924 374.105 601.378 374.022C600.833 373.938 600.322 374.313 600.239 374.859L602.216 375.161ZM601.123 368.853C601.046 369.4 601.426 369.906 601.973 369.984C602.52 370.061 603.026 369.681 603.103 369.134L601.123 368.853ZM603.891 363.351C603.963 362.803 603.578 362.301 603.03 362.229C602.482 362.157 601.98 362.543 601.908 363.091L603.891 363.351ZM602.648 357.217C602.582 357.765 602.973 358.263 603.521 358.33C604.069 358.396 604.568 358.005 604.634 357.457L602.648 357.217ZM605.33 351.452C605.391 350.904 604.996 350.409 604.447 350.348C603.898 350.287 603.403 350.683 603.342 351.232L605.33 351.452ZM603.99 345.136C603.934 345.685 604.334 346.176 604.884 346.231C605.433 346.287 605.924 345.887 605.98 345.338L603.99 345.136ZM606.543 339.542C606.594 338.992 606.189 338.505 605.639 338.454C605.09 338.403 604.602 338.807 604.551 339.357L606.543 339.542ZM605.071 333.486C605.025 334.036 605.433 334.52 605.984 334.567C606.534 334.613 607.018 334.204 607.064 333.654L605.071 333.486ZM607.544 327.671C607.586 327.12 607.174 326.64 606.623 326.598C606.073 326.556 605.592 326.968 605.55 327.519L607.544 327.671ZM605.987 321.456C605.95 322.007 606.366 322.484 606.917 322.521C607.468 322.559 607.945 322.143 607.983 321.592L605.987 321.456ZM608.367 315.612C608.401 315.061 607.981 314.587 607.429 314.554C606.878 314.52 606.404 314.94 606.371 315.492L608.367 315.612ZM606.703 309.652C606.674 310.204 607.097 310.675 607.649 310.704C608.2 310.733 608.671 310.31 608.7 309.759L606.703 309.652ZM608.996 303.822C609.022 303.27 608.595 302.802 608.044 302.777C607.492 302.751 607.024 303.177 606.999 303.729L608.996 303.822ZM607.256 297.723C607.234 298.275 607.664 298.74 608.216 298.761C608.768 298.783 609.233 298.353 609.255 297.802L607.256 297.723ZM609.475 291.698C609.493 291.146 609.06 290.684 608.508 290.666C607.956 290.648 607.494 291.081 607.476 291.633L609.475 291.698ZM607.651 285.711C607.637 286.263 608.073 286.722 608.625 286.737C609.177 286.751 609.636 286.316 609.651 285.763L607.651 285.711ZM609.788 279.889C609.8 279.337 609.361 278.88 608.809 278.869C608.257 278.858 607.8 279.296 607.789 279.849L609.788 279.889ZM607.892 273.914C607.884 274.466 608.325 274.92 608.877 274.928C609.43 274.936 609.884 274.495 609.892 273.942L607.892 273.914ZM609.961 267.922C609.966 267.37 609.522 266.919 608.97 266.914C608.417 266.909 607.966 267.353 607.961 267.905L609.961 267.922ZM607.996 261.824C607.994 262.376 608.441 262.825 608.993 262.827C609.545 262.828 609.994 262.382 609.996 261.83L607.996 261.824ZM610.002 255.666C610.003 255.114 609.555 254.665 609.003 254.665C608.451 254.664 608.003 255.111 608.002 255.663L610.002 255.666ZM608.017 249.534C608.015 250.087 608.461 250.536 609.013 250.538C609.566 250.54 610.015 250.094 610.017 249.542L608.017 249.534ZM610.048 243.492C610.051 242.94 609.606 242.49 609.054 242.486C608.502 242.482 608.051 242.927 608.048 243.48L610.048 243.492ZM608.094 237.499C608.089 238.052 608.533 238.503 609.085 238.508C609.637 238.514 610.089 238.07 610.094 237.518L608.094 237.499ZM610.156 231.618C610.163 231.065 609.721 230.612 609.168 230.606C608.616 230.599 608.163 231.041 608.156 231.594L610.156 231.618ZM608.239 225.473C608.231 226.025 608.672 226.48 609.224 226.488C609.776 226.496 610.231 226.055 610.239 225.503L608.239 225.473ZM610.341 219.406C610.351 218.854 609.912 218.398 609.36 218.388C608.807 218.378 608.352 218.817 608.341 219.369L610.341 219.406ZM608.462 213.349C608.45 213.901 608.888 214.359 609.44 214.371C609.992 214.383 610.45 213.945 610.462 213.393L608.462 213.349ZM610.602 207.464C610.616 206.912 610.18 206.453 609.627 206.439C609.075 206.425 608.616 206.861 608.602 207.413L610.602 207.464ZM608.766 201.41C608.75 201.962 609.185 202.423 609.737 202.439C610.289 202.455 610.749 202.021 610.765 201.469L608.766 201.41ZM610.957 195.338C610.976 194.786 610.543 194.324 609.991 194.306C609.439 194.287 608.977 194.72 608.958 195.272L610.957 195.338ZM609.173 189.228C609.152 189.78 609.583 190.244 610.135 190.265C610.686 190.286 611.151 189.855 611.172 189.304L609.173 189.228ZM611.409 183.364C611.432 182.812 611.004 182.346 610.452 182.323C609.9 182.3 609.434 182.728 609.411 183.28L611.409 183.364ZM609.677 177.325C609.651 177.876 610.077 178.345 610.629 178.371C611.18 178.396 611.648 177.97 611.674 177.419L609.677 177.325ZM611.98 171.278C612.009 170.726 611.585 170.256 611.034 170.227C610.482 170.198 610.012 170.622 609.983 171.173L611.98 171.278ZM610.316 165.13C610.284 165.682 610.705 166.155 611.257 166.187C611.808 166.219 612.281 165.798 612.313 165.246L610.316 165.13ZM612.674 159.324C612.709 158.773 612.291 158.297 611.74 158.262C611.188 158.227 610.713 158.645 610.678 159.196L612.674 159.324ZM611.079 153.211C611.041 153.761 611.456 154.239 612.007 154.278C612.558 154.317 613.036 153.902 613.074 153.351L611.079 153.211ZM613.525 147.234C613.568 146.683 613.156 146.202 612.605 146.16C612.055 146.117 611.574 146.529 611.531 147.08L613.525 147.234ZM612.017 141.074C611.97 141.625 612.379 142.108 612.929 142.155C613.479 142.202 613.963 141.793 614.01 141.243L612.017 141.074ZM614.529 135.378C614.579 134.828 614.175 134.341 613.625 134.29C613.075 134.239 612.588 134.644 612.537 135.194L614.529 135.378ZM613.127 129.096C613.071 129.645 613.472 130.136 614.021 130.191C614.571 130.247 615.061 129.847 615.117 129.297L613.127 129.096ZM615.756 123.256C615.817 122.707 615.421 122.213 614.872 122.152C614.323 122.092 613.829 122.488 613.768 123.036L615.756 123.256ZM614.451 117.123C614.385 117.671 614.776 118.169 615.324 118.235C615.872 118.301 616.37 117.91 616.437 117.362L614.451 117.123ZM617.186 111.415C617.258 110.867 616.873 110.365 616.325 110.293C615.778 110.221 615.275 110.606 615.203 111.154L617.186 111.415ZM616.041 105.071C615.962 105.618 616.341 106.125 616.888 106.203C617.435 106.282 617.942 105.903 618.02 105.356L616.041 105.071ZM618.906 99.4695C618.992 98.9239 618.619 98.4121 618.073 98.3263C617.528 98.2406 617.016 98.6133 616.93 99.1589L618.906 99.4695ZM617.901 93.2498C617.808 93.7941 618.173 94.3111 618.718 94.4046C619.262 94.4981 619.779 94.1327 619.872 93.5883L617.901 93.2498ZM620.956 87.5642C621.059 87.0214 620.702 86.4986 620.159 86.3963C619.616 86.294 619.093 86.6511 618.991 87.1938L620.956 87.5642ZM620.146 81.3408C620.034 81.8816 620.382 82.4106 620.923 82.5223C621.464 82.634 621.993 82.2861 622.105 81.7452L620.146 81.3408ZM623.377 75.8696C623.499 75.331 623.162 74.7953 622.623 74.673C622.085 74.5507 621.549 74.8882 621.427 75.4268L623.377 75.8696ZM622.845 69.4803C622.711 70.016 623.036 70.5591 623.572 70.6934C624.108 70.8276 624.651 70.5021 624.785 69.9664L622.845 69.4803ZM626.274 64.3098C626.421 63.7775 626.109 63.2267 625.576 63.0796C625.044 62.9324 624.493 63.2447 624.346 63.777L626.274 64.3098ZM626.081 57.8269C625.919 58.3547 626.215 58.9143 626.743 59.0767C627.271 59.2391 627.831 58.9429 627.993 58.415L626.081 57.8269ZM629.826 52.7703C630.006 52.2479 629.727 51.6791 629.205 51.5C628.682 51.3208 628.114 51.5991 627.935 52.1215L629.826 52.7703ZM630.013 46.4005C629.815 46.9159 630.072 47.4945 630.587 47.693C631.103 47.8914 631.681 47.6345 631.88 47.1191L630.013 46.4005ZM634.146 41.5812C634.366 41.0747 634.135 40.4856 633.628 40.2652C633.122 40.0448 632.533 40.2767 632.312 40.7831L634.146 41.5812ZM634.863 35.2906C634.618 35.7854 634.82 36.3854 635.315 36.6308C635.809 36.8762 636.409 36.6741 636.655 36.1793L634.863 35.2906ZM639.462 30.9045C639.736 30.425 639.57 29.8141 639.091 29.54C638.611 29.2658 638 29.4323 637.726 29.9117L639.462 30.9045ZM640.927 24.7278C640.62 25.1871 640.744 25.8081 641.203 26.1148C641.662 26.4216 642.284 26.298 642.59 25.8387L640.927 24.7278ZM646.06 21.065C646.403 20.6322 646.33 20.0032 645.897 19.6601C645.464 19.3171 644.835 19.3898 644.492 19.8226L646.06 21.065ZM648.544 15.1797C648.16 15.5773 648.172 16.2104 648.57 16.5937C648.967 16.977 649.6 16.9655 649.984 16.5679L648.544 15.1797ZM654.266 12.5785C654.691 12.2253 654.749 11.5948 654.396 11.1702C654.042 10.7456 653.412 10.6877 652.987 11.0408L654.266 12.5785ZM657.962 7.39491C657.497 7.69254 657.361 8.31096 657.659 8.77618C657.956 9.24141 658.575 9.37726 659.04 9.07963L657.962 7.39491ZM664.183 6.24818C664.683 6.01471 664.9 5.4197 664.666 4.91919C664.433 4.41868 663.838 4.2022 663.337 4.43567L664.183 6.24818ZM669.072 2.21853C668.545 2.38265 668.25 2.94319 668.414 3.47052C668.578 3.99786 669.139 4.2923 669.666 4.12817L669.072 2.21853ZM675.386 2.74962C675.93 2.65463 676.294 2.13659 676.199 1.59253C676.104 1.04848 675.586 0.684436 675.042 0.779421L675.386 2.74962ZM681.102 0.0893829C680.551 0.120356 680.129 0.592474 680.16 1.14389C680.191 1.69531 680.663 2.11721 681.214 2.08624L681.102 0.0893829ZM687.21 2.07046C687.761 2.0971 688.23 1.6715 688.257 1.11985C688.283 0.568213 687.858 0.0994232 687.306 0.0727841L687.21 2.07046ZM693.294 0.630604C692.747 0.556125 692.243 0.939373 692.168 1.48661C692.094 2.03385 692.477 2.53786 693.024 2.61233L693.294 0.630604ZM698.924 3.65051C699.465 3.76615 699.996 3.42211 700.112 2.88207C700.227 2.34203 699.883 1.81049 699.343 1.69485L698.924 3.65051ZM705.209 3.15143C704.677 3.0019 704.125 3.31168 703.975 3.84333C703.826 4.37499 704.135 4.9272 704.667 5.07673L705.209 3.15143ZM710.398 6.8627C710.921 7.04092 711.489 6.76164 711.667 6.2389C711.845 5.71616 711.566 5.14792 711.043 4.9697L710.398 6.8627ZM716.695 7.04637C716.181 6.84435 715.601 7.09728 715.399 7.61129C715.197 8.12531 715.45 8.70576 715.964 8.90777L716.695 7.04637ZM721.566 11.2444C722.072 11.467 722.662 11.2377 722.884 10.7323C723.107 10.2268 722.878 9.63666 722.372 9.41408L721.566 11.2444ZM727.774 11.9056C727.277 11.666 726.679 11.8752 726.44 12.3728C726.2 12.8705 726.409 13.4681 726.907 13.7076L727.774 11.9056ZM732.405 16.4626C732.895 16.7174 733.499 16.5268 733.753 16.0368C734.008 15.5468 733.818 14.943 733.328 14.6882L732.405 16.4626ZM738.534 17.4836C738.05 17.2162 737.442 17.3912 737.174 17.8744C736.907 18.3576 737.082 18.9661 737.565 19.2336L738.534 17.4836ZM742.798 22.2119C743.274 22.4906 743.887 22.33 744.166 21.8532C744.444 21.3765 744.284 20.764 743.807 20.4853L742.798 22.2119ZM749.074 23.6415C748.604 23.3527 747.988 23.5002 747.699 23.971C747.41 24.4417 747.558 25.0575 748.029 25.3463L749.074 23.6415ZM753.006 28.4639C753.472 28.7612 754.09 28.625 754.387 28.1596C754.685 27.6942 754.548 27.0759 754.083 26.7785L753.006 28.4639ZM759.2 30.1105C758.739 29.8052 758.119 29.9309 757.814 30.3912C757.508 30.8514 757.634 31.472 758.094 31.7772L759.2 30.1105ZM763.123 35.1696C763.579 35.4819 764.201 35.3658 764.514 34.9103C764.826 34.4548 764.71 33.8324 764.254 33.5201L763.123 35.1696ZM769.112 36.8999C768.66 36.5814 768.037 36.689 767.718 37.1403C767.4 37.5915 767.507 38.2154 767.958 38.5339L769.112 36.8999ZM772.888 42.0609C773.335 42.3851 773.96 42.2855 774.284 41.8384C774.608 41.3913 774.509 40.766 774.062 40.4418L772.888 42.0609ZM779.024 44.0859C778.581 43.7564 777.955 43.8486 777.625 44.2919C777.296 44.7351 777.388 45.3615 777.831 45.691L779.024 44.0859ZM782.518 49.2134C782.958 49.5475 783.585 49.4618 783.919 49.022C784.253 48.5822 784.168 47.9548 783.728 47.6208L782.518 49.2134ZM788.511 51.2919C788.075 50.9535 787.447 51.0331 787.108 51.4696C786.77 51.9061 786.85 52.5342 787.286 52.8726L788.511 51.2919ZM792.135 56.6684C792.569 57.0108 793.197 56.9371 793.54 56.5038C793.882 56.0705 793.809 55.4416 793.375 55.0992L792.135 56.6684ZM798.036 58.8143C797.606 58.4683 796.976 58.5368 796.63 58.9672C796.284 59.3977 796.353 60.0271 796.783 60.3731L798.036 58.8143ZM801.394 64.1094C801.822 64.4588 802.452 64.3952 802.801 63.9674C803.15 63.5397 803.087 62.9097 802.659 62.5604L801.394 64.1094ZM807.352 66.4221C806.927 66.0696 806.296 66.1285 805.944 66.5537C805.591 66.9789 805.65 67.6093 806.075 67.9618L807.352 66.4221ZM810.828 71.93C811.25 72.2855 811.881 72.231 812.236 71.8083C812.592 71.3856 812.537 70.7548 812.115 70.3993L810.828 71.93ZM816.601 74.1958C816.18 73.8377 815.549 73.8883 815.191 74.3088C814.833 74.7293 814.883 75.3604 815.304 75.7185L816.601 74.1958ZM819.827 79.5942C820.245 79.9548 820.877 79.9079 821.237 79.4896C821.598 79.0713 821.551 78.4398 821.133 78.0792L819.827 79.5942ZM825.727 82.0617C825.31 81.6987 824.679 81.742 824.316 82.1582C823.953 82.5745 823.996 83.2062 824.412 83.5692L825.727 82.0617ZM829.06 87.6435C829.474 88.0087 830.106 87.9689 830.471 87.5546C830.836 87.1403 830.796 86.5084 830.382 86.1432L829.06 87.6435ZM834.801 90.0576C834.388 89.6904 833.756 89.7271 833.389 90.1396C833.022 90.5521 833.058 91.1842 833.471 91.5515L834.801 90.0576ZM837.901 95.5143C838.312 95.8834 838.945 95.8496 839.314 95.4388C839.683 95.028 839.649 94.3958 839.238 94.0266L837.901 95.5143ZM843.73 98.0812C843.321 97.7102 842.688 97.7412 842.317 98.1503C841.946 98.5595 841.977 99.1919 842.387 99.5628L843.73 98.0812ZM846.927 103.697C847.334 104.07 847.967 104.042 848.339 103.634C848.712 103.227 848.684 102.594 848.276 102.221L846.927 103.697ZM852.717 106.299C852.311 105.925 851.678 105.951 851.304 106.357C850.93 106.763 850.955 107.395 851.361 107.77L852.717 106.299ZM855.698 111.783C856.103 112.159 856.735 112.135 857.111 111.731C857.487 111.326 857.464 110.693 857.059 110.317L855.698 111.783ZM861.449 114.41C861.046 114.033 860.413 114.054 860.036 114.457C859.659 114.86 859.68 115.493 860.083 115.87L861.449 114.41ZM864.517 120.033C864.919 120.412 865.552 120.393 865.93 119.991C866.309 119.589 866.29 118.956 865.888 118.577L864.517 120.033ZM870.376 122.819C869.975 122.439 869.342 122.456 868.962 122.856C868.582 123.257 868.599 123.89 868.999 124.27L870.376 122.819ZM873.291 128.353C873.691 128.734 874.324 128.719 874.705 128.319C875.086 127.92 875.071 127.287 874.672 126.906L873.291 128.353ZM878.963 131.012C878.564 130.63 877.931 130.643 877.549 131.041C877.167 131.44 877.18 132.073 877.578 132.455L878.963 131.012ZM881.909 136.623C882.306 137.006 882.939 136.995 883.323 136.598C883.706 136.2 883.695 135.567 883.297 135.184L881.909 136.623ZM887.676 139.421C887.279 139.037 886.646 139.046 886.262 139.442C885.877 139.839 885.887 140.472 886.283 140.856L887.676 139.421ZM890.701 145.155C891.096 145.541 891.73 145.533 892.115 145.138C892.501 144.743 892.493 144.11 892.098 143.724L890.701 145.155ZM896.34 147.873C895.946 147.486 895.313 147.492 894.926 147.887C894.539 148.281 894.546 148.914 894.94 149.301L896.34 147.873ZM899.172 153.459C899.565 153.846 900.198 153.841 900.586 153.448C900.973 153.054 900.968 152.421 900.575 152.034L899.172 153.459ZM904.849 156.253C904.456 155.864 903.823 155.868 903.435 156.26C903.046 156.653 903.05 157.286 903.442 157.674L904.849 156.253ZM907.753 161.948C908.145 162.337 908.778 162.335 909.167 161.943C909.556 161.552 909.554 160.919 909.162 160.529L907.753 161.948ZM913.515 164.864C913.125 164.474 912.491 164.474 912.101 164.865C911.711 165.256 911.712 165.889 912.103 166.279L913.515 164.864ZM1.64951 168.52C2.41594 167.866 3.18265 167.21 3.94962 166.555L2.65019 165.034C1.88329 165.69 1.11673 166.345 0.350493 167L1.64951 168.52ZM8.55467 162.619C10.09 161.307 11.6264 159.995 13.1638 158.685L11.8663 157.163C10.3281 158.474 8.79115 159.786 7.25549 161.098L8.55467 162.619ZM17.7764 154.76C19.3164 153.452 20.8573 152.147 22.3992 150.846L21.1093 149.318C19.5657 150.62 18.0232 151.927 16.4819 153.235L17.7764 154.76ZM27.0347 146.949C28.5839 145.652 30.134 144.36 31.6849 143.075L30.4086 141.535C28.8549 142.823 27.3023 144.117 25.7508 145.416L27.0347 146.949ZM36.3589 139.223C37.922 137.943 39.486 136.671 41.0508 135.407L39.7944 133.851C38.2258 135.118 36.6582 136.393 35.0917 137.676L36.3589 139.223ZM45.7788 131.621C47.361 130.365 48.944 129.119 50.5278 127.885L49.2986 126.307C47.7097 127.545 46.1219 128.795 44.5351 130.055L45.7788 131.621ZM55.3254 124.187C56.9323 122.962 58.5399 121.751 60.1482 120.554L58.9546 118.95C57.3397 120.151 55.7257 121.367 54.1129 122.596L55.3254 124.187ZM65.0309 116.972C66.6688 115.787 68.3072 114.619 69.9462 113.47L68.7981 111.833C67.1506 112.988 65.5042 114.161 63.8587 115.351L65.0309 116.972ZM74.9292 110.037C76.6046 108.903 78.2805 107.79 79.9569 106.7L78.8665 105.023C77.1794 106.121 75.4933 107.24 73.8083 108.38L74.9292 110.037ZM85.0547 103.456C86.7747 102.386 88.4952 101.342 90.216 100.325L89.1982 98.6031C87.4639 99.6283 85.7307 100.68 83.9985 101.758L85.0547 103.456ZM95.4414 97.3212C97.213 96.3325 98.9847 95.3743 100.757 94.4484L99.8305 92.6758C98.0415 93.6106 96.2536 94.5776 94.4667 95.5748L95.4414 97.3212ZM106.12 91.7468C107.949 90.8606 109.778 90.0108 111.606 89.1994L110.795 87.3712C108.945 88.1921 107.096 89.0514 105.248 89.947L106.12 91.7468ZM117.129 86.8679C119.013 86.1139 120.896 85.4027 122.779 84.7366L122.112 82.851C120.202 83.5266 118.293 84.2474 116.386 85.0112L117.129 86.8679ZM128.484 82.8586C130.412 82.2719 132.34 81.7346 134.267 81.2491L133.779 79.3096C131.819 79.8033 129.859 80.3494 127.901 80.9453L128.484 82.8586ZM140.134 79.9336C142.102 79.5476 144.069 79.218 146.036 78.9473L145.764 76.966C143.758 77.242 141.753 77.5779 139.749 77.971L140.134 79.9336ZM152.006 78.3092C154 78.1581 155.993 78.0702 157.986 78.0479L157.963 76.048C155.926 76.0708 153.89 76.1607 151.855 76.3149L152.006 78.3092ZM163.976 78.1813C165.959 78.2927 167.943 78.4717 169.926 78.721L170.176 76.7367C168.146 76.4815 166.117 76.2984 164.088 76.1844L163.976 78.1813ZM175.838 79.6749C177.78 80.0583 179.722 80.5116 181.664 81.0372L182.187 79.1067C180.2 78.569 178.213 78.1052 176.226 77.7128L175.838 79.6749ZM187.369 82.7918C189.247 83.4393 191.125 84.1568 193.003 84.9466L193.779 83.103C191.86 82.2963 189.941 81.5631 188.021 80.9011L187.369 82.7918ZM198.401 87.4169C200.18 88.2979 201.959 89.2458 203.738 90.2624L204.73 88.5259C202.917 87.49 201.103 86.5235 199.288 85.6247L198.401 87.4169ZM208.813 93.3499C210.479 94.4253 212.144 95.5625 213.81 96.7633L214.98 95.1409C213.287 93.9206 211.593 92.764 209.898 91.6697L208.813 93.3499ZM218.556 100.357C220.113 101.594 221.671 102.888 223.229 104.24L224.54 102.729C222.961 101.359 221.38 100.046 219.799 98.7908L218.556 100.357ZM227.636 108.22C229.101 109.596 230.567 111.025 232.032 112.507L233.454 111.101C231.972 109.602 230.489 108.156 229.005 106.762L227.636 108.22ZM236.104 116.765C237.462 118.231 238.819 119.744 240.176 121.305L241.685 119.992C240.315 118.417 238.944 116.888 237.572 115.407L236.104 116.765ZM244.035 125.872C245.286 127.395 246.536 128.959 247.787 130.565L249.365 129.337C248.104 127.717 246.842 126.14 245.58 124.603L244.035 125.872ZM251.507 135.469C252.658 137.025 253.809 138.617 254.96 140.247L256.594 139.092C255.435 137.452 254.275 135.847 253.115 134.279L251.507 135.469ZM258.412 145.244C259.534 146.904 260.655 148.599 261.776 150.33L263.455 149.243C262.327 147.501 261.199 145.795 260.07 144.125L258.412 145.244ZM264.953 155.333C266.012 157.033 267.071 158.766 268.129 160.531L269.845 159.502C268.78 157.728 267.716 155.986 266.651 154.276L264.953 155.333ZM271.23 165.796C272.205 167.483 273.18 169.198 274.155 170.941L275.901 169.965C274.921 168.214 273.941 166.49 272.961 164.795L271.23 165.796ZM277.079 176.257C278.052 178.055 279.024 179.881 279.997 181.736L281.768 180.808C280.792 178.945 279.815 177.111 278.838 175.305L277.079 176.257ZM282.694 186.959C283.593 188.725 284.491 190.516 285.39 192.332L287.182 191.446C286.281 189.623 285.379 187.825 284.476 186.052L282.694 186.959ZM288.084 197.858C288.95 199.658 289.816 201.483 290.681 203.332L292.493 202.484C291.624 200.629 290.756 198.798 289.887 196.991L288.084 197.858ZM293.171 208.718C294.001 210.535 294.83 212.375 295.659 214.237L297.486 213.423C296.655 211.556 295.823 209.71 294.99 207.887L293.171 208.718ZM298.146 219.891C298.936 221.71 299.726 223.549 300.516 225.408L302.357 224.627C301.565 222.762 300.773 220.918 299.981 219.094L298.146 219.891ZM302.819 230.892C303.586 232.74 304.353 234.608 305.12 236.495L306.973 235.742C306.204 233.85 305.435 231.978 304.666 230.125L302.819 230.892ZM307.42 242.217C307.803 243.181 308.186 244.15 308.569 245.124L310.431 244.392C310.047 243.415 309.662 242.444 309.278 241.478L307.42 242.217ZM308.569 245.124C308.944 246.077 309.319 247.027 309.694 247.975L311.554 247.239C311.179 246.292 310.805 245.343 310.431 244.392L308.569 245.124ZM311.946 253.63C312.697 255.505 313.448 257.37 314.2 259.224L316.054 258.473C315.303 256.621 314.553 254.759 313.803 252.887L311.946 253.63ZM316.457 264.757C317.209 266.59 317.962 268.414 318.715 270.227L320.562 269.46C319.81 267.65 319.058 265.829 318.307 263.997L316.457 264.757ZM320.975 275.637C321.755 277.49 322.534 279.333 323.314 281.165L325.155 280.381C324.376 278.552 323.597 276.713 322.819 274.862L320.975 275.637ZM325.711 286.758C326.511 288.611 327.31 290.452 328.11 292.282L329.943 291.481C329.144 289.654 328.346 287.816 327.548 285.966L325.711 286.758ZM330.51 297.738C331.311 299.545 332.111 301.34 332.912 303.124L334.736 302.306C333.937 300.525 333.138 298.732 332.339 296.928L330.51 297.738ZM335.314 308.442C336.164 310.311 337.014 312.166 337.864 314.009L339.68 313.171C338.832 311.332 337.983 309.48 337.135 307.614L335.314 308.442ZM340.417 319.503C341.268 321.322 342.12 323.128 342.971 324.92L344.778 324.063C343.928 322.273 343.078 320.471 342.229 318.656L340.417 319.503ZM345.525 330.26C346.376 332.027 347.228 333.781 348.079 335.523L349.876 334.644C349.026 332.906 348.177 331.156 347.327 329.392L345.525 330.26ZM350.753 340.948C351.66 342.774 352.567 344.586 353.473 346.383L355.259 345.482C354.354 343.689 353.449 341.881 352.544 340.059L350.753 340.948ZM356.193 351.73C357.1 353.498 358.006 355.252 358.913 356.99L360.686 356.066C359.782 354.331 358.878 352.582 357.973 350.818L356.193 351.73ZM361.631 362.163C362.585 363.964 363.539 365.748 364.492 367.516L366.252 366.567C365.301 364.803 364.35 363.023 363.398 361.227L361.631 362.163ZM367.394 372.85C368.361 374.612 369.328 376.356 370.294 378.085L372.04 377.109C371.076 375.385 370.112 373.645 369.147 371.888L367.394 372.85ZM373.192 383.22C374.167 384.933 375.142 386.629 376.117 388.308L377.847 387.304C376.875 385.63 375.902 383.938 374.93 382.23L373.192 383.22ZM379.219 393.599C380.253 395.344 381.285 397.069 382.318 398.776L384.029 397.741C383 396.04 381.97 394.319 380.94 392.58L379.219 393.599ZM385.412 403.839C386.442 405.508 387.472 407.157 388.501 408.788L390.193 407.72C389.167 406.095 388.141 404.451 387.113 402.788L385.412 403.839ZM391.783 413.929C392.89 415.642 393.995 417.333 395.099 419.002L396.767 417.898C395.667 416.235 394.566 414.55 393.463 412.844L391.783 413.929ZM398.408 423.943C399.51 425.568 400.611 427.171 401.71 428.752L403.352 427.61C402.258 426.035 401.161 424.439 400.064 422.82L398.408 423.943ZM405.227 433.741C406.413 435.4 407.598 437.035 408.781 438.643L410.392 437.458C409.215 435.857 408.035 434.23 406.854 432.578L405.227 433.741ZM412.324 443.391C413.517 444.966 414.707 446.514 415.895 448.035L417.472 446.805C416.289 445.291 415.105 443.75 413.919 442.184L412.324 443.391ZM419.721 452.853C420.994 454.428 422.264 455.974 423.533 457.489L425.066 456.205C423.806 454.699 422.543 453.163 421.277 451.596L419.721 452.853ZM427.329 461.944C428.675 463.495 430.018 465.012 431.358 466.494L432.842 465.153C431.511 463.681 430.177 462.174 428.839 460.633L427.329 461.944ZM435.465 470.941C436.831 472.387 438.193 473.798 439.551 475.173L440.974 473.767C439.626 472.403 438.275 471.004 436.919 469.568L435.465 470.941ZM443.849 479.416C445.33 480.84 446.806 482.221 448.277 483.56L449.623 482.08C448.166 480.755 446.703 479.386 445.236 477.974L443.849 479.416ZM452.677 487.446C454.248 488.793 455.814 490.09 457.374 491.338L458.623 489.777C457.082 488.543 455.533 487.26 453.979 485.928L452.677 487.446ZM462.142 495.012C463.751 496.205 465.353 497.344 466.949 498.43L468.074 496.776C466.501 495.706 464.921 494.583 463.332 493.406L462.142 495.012ZM472.108 501.769C473.819 502.82 475.522 503.808 477.216 504.734L478.175 502.979C476.512 502.07 474.838 501.099 473.154 500.065L472.108 501.769ZM482.673 507.514C484.512 508.382 486.341 509.175 488.157 509.892L488.892 508.032C487.117 507.331 485.329 506.556 483.527 505.705L482.673 507.514ZM493.892 511.919C495.843 512.526 497.779 513.043 499.7 513.471L500.135 511.519C498.269 511.103 496.386 510.6 494.487 510.009L493.892 511.919ZM505.698 514.521C507.719 514.777 509.721 514.931 511.704 514.981L511.755 512.982C509.841 512.933 507.905 512.785 505.949 512.537L505.698 514.521ZM517.803 514.807C519.826 514.637 521.826 514.356 523.802 513.963L523.412 512.001C521.51 512.379 519.585 512.65 517.636 512.814L517.803 514.807ZM529.686 512.439C531.602 511.824 533.492 511.1 535.355 510.266L534.537 508.441C532.741 509.245 530.92 509.943 529.076 510.534L529.686 512.439ZM540.756 507.497C542.473 506.502 544.165 505.408 545.83 504.217L544.666 502.59C543.052 503.746 541.414 504.805 539.753 505.767L540.756 507.497ZM550.613 500.464C552.106 499.186 553.575 497.824 555.02 496.38L553.607 494.966C552.196 496.375 550.765 497.701 549.312 498.945L550.613 500.464ZM559.157 491.945C560.447 490.464 561.717 488.913 562.966 487.292L561.381 486.071C560.156 487.662 558.912 489.182 557.649 490.631L559.157 491.945ZM566.497 482.434C567.626 480.793 568.735 479.091 569.825 477.328L568.124 476.276C567.05 478.013 565.959 479.688 564.849 481.301L566.497 482.434ZM572.823 472.239C573.806 470.49 574.771 468.687 575.719 466.832L573.938 465.922C573.002 467.755 572.049 469.534 571.079 471.26L572.823 472.239ZM578.319 461.521C579.151 459.746 579.969 457.927 580.772 456.065L578.936 455.273C578.141 457.117 577.331 458.917 576.508 460.672L578.319 461.521ZM583.134 450.356C583.839 448.579 584.531 446.767 585.211 444.919L583.334 444.228C582.66 446.061 581.974 447.858 581.275 449.618L583.134 450.356ZM587.213 439.265C587.868 437.344 588.51 435.388 589.139 433.395L587.232 432.793C586.607 434.772 585.97 436.714 585.32 438.62L587.213 439.265ZM590.834 427.831C591.388 425.948 591.931 424.035 592.462 422.091L590.533 421.564C590.005 423.495 589.465 425.396 588.915 427.267L590.834 427.831ZM594.024 416.171C594.505 414.279 594.976 412.36 595.437 410.414L593.491 409.953C593.032 411.888 592.564 413.797 592.086 415.678L594.024 416.171ZM596.754 404.658C597.183 402.714 597.603 400.744 598.012 398.75L596.053 398.347C595.645 400.333 595.228 402.292 594.801 404.227L596.754 404.658ZM599.204 392.732C599.564 390.845 599.916 388.935 600.259 387.004L598.29 386.654C597.948 388.577 597.598 390.478 597.24 392.357L599.204 392.732ZM601.263 381.147C601.589 379.174 601.907 377.178 602.216 375.161L600.239 374.859C599.931 376.868 599.615 378.855 599.29 380.821L601.263 381.147ZM603.103 369.134C603.374 367.225 603.636 365.297 603.891 363.351L601.908 363.091C601.654 365.03 601.392 366.951 601.123 368.853L603.103 369.134ZM604.634 357.457C604.874 355.474 605.106 353.472 605.33 351.452L603.342 351.232C603.119 353.245 602.887 355.24 602.648 357.217L604.634 357.457ZM605.98 345.338C606.174 343.422 606.362 341.49 606.543 339.542L604.551 339.357C604.371 341.299 604.184 343.225 603.99 345.136L605.98 345.338ZM607.064 333.654C607.231 331.676 607.391 329.681 607.544 327.671L605.55 327.519C605.397 329.524 605.238 331.513 605.071 333.486L607.064 333.654ZM607.983 321.592C608.117 319.614 608.246 317.62 608.367 315.612L606.371 315.492C606.25 317.495 606.122 319.483 605.987 321.456L607.983 321.592ZM608.7 309.759C608.805 307.794 608.904 305.815 608.996 303.822L606.999 303.729C606.906 305.717 606.808 307.692 606.703 309.652L608.7 309.759ZM609.255 297.802C609.335 295.781 609.408 293.747 609.475 291.698L607.476 291.633C607.409 293.677 607.336 295.707 607.256 297.723L609.255 297.802ZM609.651 285.763C609.702 283.818 609.748 281.86 609.788 279.889L607.789 279.849C607.749 281.815 607.703 283.769 607.651 285.711L609.651 285.763ZM609.892 273.942C609.921 271.948 609.944 269.941 609.961 267.922L607.961 267.905C607.944 269.92 607.921 271.923 607.892 273.914L609.892 273.942ZM609.996 261.83C609.999 260.808 610 259.784 610 258.756H608C608 259.782 607.999 260.804 607.996 261.824L609.996 261.83ZM610 258.756C610 257.723 610.001 256.693 610.002 255.666L608.002 255.663C608.001 256.691 608 257.722 608 258.756H610ZM610.017 249.542C610.025 247.513 610.035 245.496 610.048 243.492L608.048 243.48C608.035 245.485 608.025 247.504 608.017 249.534L610.017 249.542ZM610.094 237.518C610.112 235.539 610.133 233.572 610.156 231.618L608.156 231.594C608.133 233.55 608.112 235.518 608.094 237.499L610.094 237.518ZM610.239 225.503C610.27 223.457 610.304 221.424 610.341 219.406L608.341 219.369C608.304 221.39 608.27 223.424 608.239 225.473L610.239 225.503ZM610.462 213.393C610.505 211.403 610.552 209.426 610.602 207.464L608.602 207.413C608.552 209.378 608.506 211.357 608.462 213.349L610.462 213.393ZM610.765 201.469C610.826 199.409 610.889 197.366 610.957 195.338L608.958 195.272C608.891 197.302 608.826 199.348 608.766 201.41L610.765 201.469ZM611.172 189.304C611.247 187.308 611.326 185.328 611.409 183.364L609.411 183.28C609.328 185.247 609.248 187.23 609.173 189.228L611.172 189.304ZM611.674 177.419C611.772 175.354 611.874 173.307 611.98 171.278L609.983 171.173C609.876 173.205 609.774 175.256 609.677 177.325L611.674 177.419ZM612.313 165.246C612.429 163.254 612.549 161.28 612.674 159.324L610.678 159.196C610.553 161.156 610.432 163.134 610.316 165.13L612.313 165.246ZM613.074 153.351C613.219 151.291 613.369 149.252 613.525 147.234L611.531 147.08C611.375 149.102 611.224 151.146 611.079 153.211L613.074 153.351ZM614.01 141.243C614.177 139.267 614.35 137.312 614.529 135.378L612.537 135.194C612.358 137.133 612.185 139.093 612.017 141.074L614.01 141.243ZM615.117 129.297C615.323 127.259 615.536 125.245 615.756 123.256L613.768 123.036C613.547 125.032 613.334 127.052 613.127 129.096L615.117 129.297ZM616.437 117.362C616.679 115.353 616.929 113.371 617.186 111.415L615.203 111.154C614.945 113.118 614.694 115.107 614.451 117.123L616.437 117.362ZM618.02 105.356C618.307 103.365 618.602 101.403 618.906 99.4695L616.93 99.1589C616.625 101.101 616.328 103.072 616.041 105.071L618.02 105.356ZM619.872 93.5883C620.223 91.5461 620.585 89.538 620.956 87.5642L618.991 87.1938C618.617 89.1786 618.254 91.1973 617.901 93.2498L619.872 93.5883ZM622.105 81.7452C622.517 79.7491 622.941 77.7906 623.377 75.8696L621.427 75.4268C620.987 77.361 620.561 79.3323 620.146 81.3408L622.105 81.7452ZM624.785 69.9664C625.268 68.0397 625.764 66.1542 626.274 64.3098L624.346 63.777C623.832 65.6376 623.332 67.5387 622.845 69.4803L624.785 69.9664ZM627.993 58.415C628.587 56.4835 629.198 54.602 629.826 52.7703L627.935 52.1215C627.299 53.9742 626.682 55.876 626.081 57.8269L627.993 58.415ZM631.88 47.1191C632.614 45.2121 633.369 43.3662 634.146 41.5812L632.312 40.7831C631.523 42.5957 630.757 44.4682 630.013 46.4005L631.88 47.1191ZM636.655 36.1793C637.564 34.3464 638.5 32.5882 639.462 30.9045L637.726 29.9117C636.743 31.6315 635.789 33.4245 634.863 35.2906L636.655 36.1793ZM642.59 25.8387C643.713 24.1573 644.87 22.5662 646.06 21.065L644.492 19.8226C643.267 21.3686 642.079 23.0038 640.927 24.7278L642.59 25.8387ZM649.984 16.5679C651.369 15.1305 652.797 13.8009 654.266 12.5785L652.987 11.0408C651.459 12.3121 649.978 13.692 648.544 15.1797L649.984 16.5679ZM659.04 9.07963C660.703 8.0154 662.417 7.0717 664.183 6.24818L663.337 4.43567C661.49 5.29716 659.699 6.2837 657.962 7.39491L659.04 9.07963ZM669.666 4.12817C671.518 3.55169 673.425 3.09207 675.386 2.74962L675.042 0.779421C672.998 1.13631 671.008 1.61591 669.072 2.21853L669.666 4.12817ZM681.214 2.08624C683.161 1.97688 685.159 1.97144 687.21 2.07046L687.306 0.0727841C685.19 -0.029424 683.122 -0.0240668 681.102 0.0893829L681.214 2.08624ZM693.024 2.61233C694.948 2.87414 696.914 3.22008 698.924 3.65051L699.343 1.69485C697.287 1.25445 695.271 0.899592 693.294 0.630604L693.024 2.61233ZM704.667 5.07673C706.542 5.60398 708.452 6.19925 710.398 6.8627L711.043 4.9697C709.065 4.29518 707.12 3.68903 705.209 3.15143L704.667 5.07673ZM715.964 8.90777C717.801 9.62982 719.668 10.4087 721.566 11.2444L722.372 9.41408C720.451 8.56801 718.559 7.77874 716.695 7.04637L715.964 8.90777ZM726.907 13.7076C728.713 14.5773 730.546 15.4956 732.405 16.4626L733.328 14.6882C731.451 13.7122 729.6 12.7846 727.774 11.9056L726.907 13.7076ZM737.565 19.2336C739.287 20.1867 741.031 21.1794 742.798 22.2119L743.807 20.4853C742.028 19.4452 740.27 18.4447 738.534 17.4836L737.565 19.2336ZM748.029 25.3463C749.669 26.3528 751.329 27.392 753.006 28.4639L754.083 26.7785C752.395 25.7003 750.726 24.6546 749.074 23.6415L748.029 25.3463ZM758.094 31.7772C759.753 32.8775 761.43 34.0083 763.123 35.1696L764.254 33.5201C762.552 32.3531 760.867 31.2166 759.2 30.1105L758.094 31.7772ZM767.958 38.5339C769.586 39.6825 771.229 40.8581 772.888 42.0609L774.062 40.4418C772.396 39.2342 770.746 38.0535 769.112 36.8999L767.958 38.5339ZM777.831 45.691C779.38 46.8424 780.942 48.0165 782.518 49.2134L783.728 47.6208C782.147 46.4198 780.579 45.2415 779.024 44.0859L777.831 45.691ZM787.286 52.8726C788.889 54.1151 790.505 55.3804 792.135 56.6684L793.375 55.0992C791.74 53.8074 790.119 52.5383 788.511 51.2919L787.286 52.8726ZM796.783 60.3731C798.308 61.5992 799.845 62.8447 801.394 64.1094L802.659 62.5604C801.106 61.2924 799.565 60.0438 798.036 58.8143L796.783 60.3731ZM806.075 67.9618C807.648 69.2652 809.232 70.588 810.828 71.93L812.115 70.3993C810.515 69.0543 808.928 67.7286 807.352 66.4221L806.075 67.9618ZM815.304 75.7185C816.801 76.9938 818.309 78.2857 819.827 79.5942L821.133 78.0792C819.612 76.7683 818.101 75.4738 816.601 74.1958L815.304 75.7185ZM824.412 83.5692C825.951 84.9107 827.5 86.2688 829.06 87.6435L830.382 86.1432C828.82 84.7662 827.268 83.4057 825.727 82.0617L824.412 83.5692ZM833.471 91.5515C834.939 92.8581 836.416 94.179 837.901 95.5143L839.238 94.0266C837.75 92.6894 836.271 91.3664 834.801 90.0576L833.471 91.5515ZM842.387 99.5628C843.891 100.927 845.404 102.305 846.927 103.697L848.276 102.221C846.752 100.827 845.236 99.447 843.73 98.0812L842.387 99.5628ZM851.361 107.77C852.799 109.095 854.244 110.433 855.698 111.783L857.059 110.317C855.604 108.966 854.156 107.626 852.717 106.299L851.361 107.77ZM860.083 115.87C861.553 117.245 863.031 118.633 864.517 120.033L865.888 118.577C864.4 117.176 862.921 115.787 861.449 114.41L860.083 115.87ZM868.999 124.27C870.423 125.62 871.853 126.981 873.291 128.353L874.672 126.906C873.232 125.532 871.8 124.17 870.376 122.819L868.999 124.27ZM877.578 132.455C879.014 133.833 880.458 135.223 881.909 136.623L883.297 135.184C881.845 133.782 880.401 132.392 878.963 131.012L877.578 132.455ZM886.283 140.856C887.748 142.279 889.221 143.712 890.701 145.155L892.098 143.724C890.616 142.279 889.142 140.844 887.676 139.421L886.283 140.856ZM894.94 149.301C896.344 150.677 897.755 152.063 899.172 153.459L900.575 152.034C899.157 150.637 897.745 149.25 896.34 147.873L894.94 149.301ZM903.442 157.674C904.873 159.089 906.309 160.514 907.753 161.948L909.162 160.529C907.718 159.094 906.28 157.669 904.849 156.253L903.442 157.674Z" fill="url(#paint0_linear_718_1048)"/>
<defs>
<linearGradient id="paint0_linear_718_1048" x1="801.186" y1="429.143" x2="25.6551" y2="-102.654" gradientUnits="userSpaceOnUse">
<stop stop-color="#36D1DC"/>
<stop offset="0.963542" stop-color="#5B86E5"/>
</linearGradient>
</defs>
</svg>
