<svg width="326" height="463" viewBox="0 0 326 463" fill="none" xmlns="http://www.w3.org/2000/svg">
<path d="M220.362 0.270251C219.959 -0.107355 219.326 -0.0867443 218.948 0.316285C218.571 0.719314 218.591 1.35214 218.994 1.72975L220.362 0.270251ZM171.048 156.938L171.348 157.891L171.048 156.938ZM219.678 463L231.091 461.248L223.868 452.24L219.678 463ZM221.168 3.76585C221.572 4.14333 222.204 4.12251 222.582 3.71936C222.959 3.31621 222.939 2.68339 222.535 2.30591L221.168 3.76585ZM226.889 6.38622C226.486 6.00813 225.853 6.02798 225.475 6.43055C225.097 6.83313 225.117 7.46598 225.519 7.84407L226.889 6.38622ZM229.855 11.9317C230.256 12.3116 230.889 12.2945 231.268 11.8937C231.648 11.4928 231.631 10.8598 231.23 10.48L229.855 11.9317ZM235.548 14.5993C235.15 14.2165 234.517 14.2288 234.134 14.6269C233.751 15.0249 233.763 15.658 234.161 16.0408L235.548 14.5993ZM238.433 20.1908C238.827 20.5779 239.46 20.5723 239.847 20.1783C240.234 19.7843 240.229 19.1512 239.835 18.7641L238.433 20.1908ZM244.073 22.9849C243.684 22.5923 243.051 22.5889 242.659 22.9773C242.266 23.3658 242.263 23.9989 242.651 24.3915L244.073 22.9849ZM246.798 28.6564C247.179 29.056 247.812 29.0708 248.212 28.6896C248.611 28.3083 248.626 27.6753 248.245 27.2757L246.798 28.6564ZM252.331 31.653C251.959 31.2449 251.326 31.2156 250.918 31.5877C250.51 31.9598 250.481 32.5923 250.853 33.0004L252.331 31.653ZM254.792 37.4406C255.153 37.859 255.784 37.906 256.203 37.5455C256.621 37.185 256.668 36.5536 256.308 36.1352L254.792 37.4406ZM260.145 40.7438C259.799 40.3131 259.17 40.2442 258.739 40.59C258.309 40.9357 258.24 41.5651 258.586 41.9958L260.145 40.7438ZM262.195 46.6872C262.522 47.1323 263.148 47.228 263.593 46.901C264.038 46.574 264.134 45.9481 263.807 45.503L262.195 46.6872ZM267.244 50.4398C266.941 49.9781 266.321 49.8495 265.859 50.1525C265.397 50.4555 265.269 51.0755 265.572 51.5372L267.244 50.4398ZM268.65 56.5672C268.922 57.0478 269.532 57.2169 270.013 56.9448C270.493 56.6727 270.662 56.0625 270.39 55.5819L268.65 56.5672ZM273.158 60.954C272.926 60.4528 272.332 60.2345 271.831 60.4665C271.33 60.6984 271.111 61.2928 271.343 61.794L273.158 60.954ZM273.541 67.2225C273.721 67.7446 274.29 68.0218 274.812 67.8418C275.334 67.6617 275.611 67.0924 275.431 66.5703L273.541 67.2225ZM277.065 72.422C276.95 71.8817 276.42 71.5363 275.879 71.6506C275.339 71.7649 274.994 72.2956 275.108 72.8359L277.065 72.422ZM275.902 78.5849C275.936 79.1361 276.411 79.555 276.962 79.5206C277.513 79.4861 277.932 79.0113 277.898 78.4601L275.902 78.5849ZM277.789 84.5733C277.844 84.0238 277.443 83.5336 276.893 83.4785C276.344 83.4235 275.854 83.8243 275.799 84.3738L277.789 84.5733ZM274.747 90.0541C274.601 90.587 274.916 91.1366 275.449 91.2817C275.982 91.4267 276.531 91.1124 276.676 90.5795L274.747 90.0541ZM274.614 96.3189C274.84 95.8149 274.614 95.2232 274.111 94.9973C273.607 94.7713 273.015 94.9966 272.789 95.5006L274.614 96.3189ZM270.046 100.624C269.754 101.092 269.897 101.709 270.365 102.002C270.834 102.294 271.451 102.151 271.743 101.682L270.046 100.624ZM268.237 106.629C268.58 106.196 268.509 105.567 268.077 105.223C267.644 104.88 267.015 104.951 266.671 105.383L268.237 106.629ZM262.807 109.785C262.424 110.183 262.437 110.816 262.835 111.199C263.233 111.582 263.866 111.569 264.249 111.171L262.807 109.785ZM259.891 115.358C260.303 114.99 260.339 114.358 259.972 113.946C259.604 113.534 258.972 113.498 258.56 113.865L259.891 115.358ZM253.995 117.672C253.56 118.013 253.484 118.641 253.824 119.076C254.165 119.511 254.793 119.587 255.228 119.247L253.995 117.672ZM250.424 122.805C250.876 122.487 250.985 121.864 250.668 121.412C250.351 120.96 249.727 120.85 249.275 121.168L250.424 122.805ZM244.392 124.434C243.926 124.731 243.79 125.349 244.087 125.815C244.384 126.28 245.002 126.417 245.468 126.119L244.392 124.434ZM240.297 129.28C240.773 129.001 240.933 128.388 240.654 127.912C240.375 127.435 239.762 127.275 239.285 127.554L240.297 129.28ZM234.163 130.444C233.678 130.708 233.498 131.315 233.762 131.8C234.026 132.285 234.633 132.465 235.118 132.201L234.163 130.444ZM229.818 134.984C230.311 134.734 230.507 134.132 230.257 133.64C230.007 133.147 229.405 132.951 228.913 133.201L229.818 134.984ZM223.56 135.833C223.061 136.071 222.85 136.668 223.088 137.166C223.325 137.665 223.922 137.876 224.421 137.639L223.56 135.833ZM219.033 140.135C219.536 139.908 219.76 139.316 219.534 138.813C219.307 138.309 218.715 138.085 218.211 138.312L219.033 140.135ZM212.729 140.716C212.221 140.933 211.985 141.52 212.202 142.028C212.419 142.536 213.006 142.772 213.514 142.555L212.729 140.716ZM208.035 144.838C208.547 144.63 208.793 144.047 208.585 143.535C208.377 143.023 207.793 142.777 207.282 142.985L208.035 144.838ZM201.742 145.187C201.227 145.387 200.972 145.966 201.172 146.481C201.372 146.996 201.951 147.251 202.466 147.051L201.742 145.187ZM196.87 149.178C197.388 148.985 197.651 148.41 197.459 147.892C197.266 147.374 196.69 147.111 196.173 147.303L196.87 149.178ZM190.627 149.325C190.107 149.511 189.836 150.083 190.022 150.603C190.208 151.123 190.78 151.394 191.3 151.209L190.627 149.325ZM185.55 153.223C186.072 153.044 186.35 152.475 186.171 151.952C185.991 151.43 185.422 151.152 184.9 151.332L185.55 153.223ZM179.384 153.194C178.859 153.368 178.575 153.934 178.749 154.458C178.923 154.982 179.489 155.266 180.013 155.092L179.384 153.194ZM174.285 156.959C174.811 156.79 175.101 156.228 174.932 155.702C174.764 155.176 174.201 154.886 173.675 155.054L174.285 156.959ZM167.805 156.915C167.278 157.082 166.987 157.645 167.155 158.171C167.322 158.697 167.884 158.988 168.411 158.821L167.805 156.915ZM162.614 160.682C163.14 160.512 163.428 159.948 163.257 159.422C163.087 158.897 162.523 158.609 161.998 158.779L162.614 160.682ZM156.295 160.647C155.77 160.821 155.486 161.386 155.659 161.911C155.833 162.435 156.398 162.719 156.923 162.546L156.295 160.647ZM151.335 164.413C151.858 164.236 152.139 163.669 151.963 163.145C151.786 162.622 151.219 162.341 150.696 162.518L151.335 164.413ZM144.901 164.494C144.378 164.674 144.101 165.243 144.281 165.765C144.461 166.287 145.03 166.565 145.552 166.385L144.901 164.494ZM139.846 168.373C140.367 168.189 140.641 167.618 140.457 167.097C140.274 166.576 139.703 166.303 139.182 166.486L139.846 168.373ZM133.58 168.48C133.06 168.668 132.791 169.24 132.978 169.76C133.165 170.28 133.738 170.549 134.257 170.362L133.58 168.48ZM128.615 172.416C129.134 172.225 129.399 171.65 129.208 171.132C129.017 170.614 128.443 170.348 127.924 170.539L128.615 172.416ZM122.209 172.668C121.692 172.863 121.431 173.44 121.626 173.957C121.821 174.474 122.398 174.735 122.915 174.54L122.209 172.668ZM117.347 176.664C117.862 176.465 118.119 175.886 117.92 175.371C117.721 174.856 117.142 174.599 116.627 174.798L117.347 176.664ZM111.07 176.971C110.557 177.174 110.305 177.755 110.509 178.269C110.712 178.782 111.293 179.034 111.807 178.83L111.07 176.971ZM106.14 181.103C106.652 180.895 106.898 180.312 106.69 179.8C106.482 179.289 105.899 179.043 105.387 179.251L106.14 181.103ZM99.8557 181.529C99.346 181.742 99.1054 182.328 99.3182 182.838C99.531 183.347 100.117 183.588 100.626 183.375L99.8557 181.529ZM95.1467 185.695C95.6542 185.477 95.8889 184.889 95.671 184.382C95.453 183.874 94.865 183.64 94.3575 183.858L95.1467 185.695ZM88.7471 186.303C88.242 186.527 88.0138 187.117 88.2372 187.622C88.4607 188.127 89.0513 188.355 89.5564 188.132L88.7471 186.303ZM84.1411 190.565C84.6436 190.336 84.8651 189.743 84.6358 189.24C84.4065 188.738 83.8134 188.516 83.3109 188.745L84.1411 190.565ZM77.8341 191.285C77.3345 191.521 77.1205 192.117 77.356 192.616C77.5915 193.116 78.1874 193.33 78.6869 193.094L77.8341 191.285ZM73.2323 195.711C73.7286 195.469 73.9346 194.87 73.6923 194.374C73.45 193.877 72.8513 193.671 72.3549 193.914L73.2323 195.711ZM67.0782 196.536C66.5854 196.785 66.3881 197.387 66.6374 197.879C66.8867 198.372 67.4883 198.57 67.9811 198.32L67.0782 196.536ZM62.5328 201.132C63.0215 200.875 63.209 200.27 62.9517 199.781C62.6943 199.293 62.0896 199.105 61.6009 199.362L62.5328 201.132ZM56.3385 202.191C55.8544 202.457 55.6774 203.065 55.9432 203.549C56.209 204.033 56.8169 204.21 57.301 203.944L56.3385 202.191ZM52.0492 206.893C52.528 206.618 52.6932 206.007 52.418 205.528C52.1429 205.049 51.5316 204.884 51.0528 205.159L52.0492 206.893ZM45.8506 208.222C45.3778 208.508 45.2259 209.123 45.5114 209.595C45.7968 210.068 46.4115 210.22 46.8843 209.935L45.8506 208.222ZM41.812 213.08C42.2777 212.783 42.4146 212.165 42.1178 211.699C41.821 211.233 41.2028 211.096 40.7371 211.393L41.812 213.08ZM35.6674 214.722C35.2101 215.032 35.0904 215.654 35.4001 216.111C35.7097 216.568 36.3315 216.688 36.7888 216.378L35.6674 214.722ZM31.8995 219.801C32.3467 219.477 32.4465 218.852 32.1224 218.405C31.7983 217.957 31.1731 217.858 30.7259 218.182L31.8995 219.801ZM25.9029 221.812C25.468 222.152 25.3916 222.781 25.7321 223.215C26.0725 223.65 26.7011 223.727 27.1359 223.386L25.9029 221.812ZM22.484 227.194C22.9032 226.835 22.9515 226.203 22.5919 225.784C22.2324 225.365 21.601 225.317 21.1818 225.676L22.484 227.194ZM16.7629 229.667C16.3633 230.048 16.3483 230.681 16.7296 231.081C17.1107 231.48 17.7437 231.495 18.1434 231.114L16.7629 229.667ZM13.9186 235.416C14.2915 235.008 14.2635 234.376 13.8561 234.003C13.4487 233.63 12.8161 233.658 12.4432 234.065L13.9186 235.416ZM8.50186 238.745C8.16531 239.183 8.24753 239.81 8.68542 240.147C9.12335 240.483 9.75116 240.401 10.0877 239.963L8.50186 238.745ZM6.76172 244.805C7.04712 244.333 6.8952 243.718 6.42236 243.432C5.94952 243.147 5.33487 243.299 5.04947 243.772L6.76172 244.805ZM2.26358 249.237C2.05243 249.748 2.29495 250.333 2.80527 250.544C3.31558 250.755 3.90048 250.512 4.11163 250.002L2.26358 249.237ZM2.423 255.542C2.52713 255 2.17184 254.476 1.62946 254.372C1.08707 254.268 0.562988 254.623 0.458862 255.165L2.423 255.542ZM0.0489807 261.392C0.0848694 261.943 0.56073 262.361 1.11185 262.325C1.66296 262.289 2.08063 261.814 2.04474 261.262L0.0489807 261.392ZM3.19089 266.846C3.00739 266.325 2.43637 266.051 1.91544 266.235C1.39453 266.418 1.121 266.989 1.3045 267.51L3.19089 266.846ZM4.08923 273.072C4.3927 273.533 5.01279 273.661 5.47421 273.358C5.93567 273.054 6.06372 272.434 5.76025 271.973L4.08923 273.072ZM9.41125 276.479C9.02649 276.083 8.3934 276.073 7.99719 276.458C7.60098 276.843 7.59174 277.476 7.9765 277.872L9.41125 276.479ZM12.5672 281.951C13.0036 282.289 13.6318 282.21 13.9702 281.773C14.3086 281.337 14.2292 280.708 13.7927 280.37L12.5672 281.951ZM18.672 283.739C18.2024 283.449 17.5861 283.594 17.2955 284.064C17.0049 284.533 17.15 285.149 17.6196 285.44L18.672 283.739ZM22.996 288.46C23.4876 288.712 24.0901 288.517 24.3417 288.026C24.5933 287.534 24.3986 286.932 23.907 286.68L22.996 288.46ZM29.1956 289.174C28.6893 288.954 28.1 289.185 27.8795 289.692C27.6591 290.198 27.8908 290.787 28.3972 291.008L29.1956 289.174ZM34.0313 293.285C34.5483 293.479 35.1248 293.217 35.319 292.7C35.5132 292.183 35.2514 291.607 34.7344 291.413L34.0313 293.285ZM40.4149 293.404C39.89 293.232 39.3252 293.518 39.1534 294.043C38.9815 294.568 39.2677 295.133 39.7926 295.305L40.4149 293.404ZM45.5032 297.06C46.0338 297.213 46.5881 296.907 46.7412 296.376C46.8943 295.845 46.5883 295.291 46.0576 295.138L45.5032 297.06ZM51.9435 296.734C51.4083 296.598 50.864 296.921 50.7276 297.456C50.5913 297.991 50.9146 298.536 51.4498 298.672L51.9435 296.734ZM57.2057 300.056C57.7443 300.178 58.28 299.841 58.4022 299.302C58.5244 298.763 58.1868 298.228 57.6482 298.106L57.2057 300.056ZM63.614 299.382C63.0727 299.273 62.5453 299.623 62.4362 300.165C62.327 300.706 62.6774 301.233 63.2188 301.342L63.614 299.382ZM69.0411 302.452C69.5846 302.55 70.1046 302.189 70.2025 301.645C70.3004 301.102 69.9391 300.582 69.3956 300.484L69.0411 302.452ZM75.3663 301.499C74.821 301.412 74.308 301.783 74.2206 302.328C74.1331 302.874 74.5043 303.387 75.0496 303.474L75.3663 301.499ZM80.9761 304.372C81.5228 304.45 82.0294 304.07 82.1075 303.523C82.1856 302.976 81.8056 302.47 81.2589 302.392L80.9761 304.372ZM87.1898 303.191C86.6419 303.121 86.1414 303.509 86.0719 304.057C86.0024 304.605 86.3902 305.105 86.9381 305.175L87.1898 303.191ZM93.0082 305.899C93.5571 305.961 94.0518 305.566 94.1133 305.017C94.1748 304.468 93.7797 303.973 93.2309 303.912L93.0082 305.899ZM99.0961 304.529C98.5465 304.475 98.057 304.877 98.0026 305.426C97.9483 305.976 98.3499 306.465 98.8995 306.52L99.0961 304.529ZM104.969 307.081C105.519 307.128 106.004 306.721 106.051 306.17C106.099 305.62 105.691 305.136 105.141 305.088L104.969 307.081ZM111.105 305.568C110.554 305.527 110.074 305.94 110.033 306.49C109.992 307.041 110.405 307.521 110.956 307.562L111.105 305.568ZM116.917 307.975C117.468 308.01 117.944 307.592 117.979 307.041C118.014 306.49 117.596 306.014 117.045 305.979L116.917 307.975ZM123.139 306.337C122.588 306.308 122.116 306.731 122.087 307.282C122.057 307.834 122.48 308.305 123.032 308.334L123.139 306.337ZM128.982 308.625C129.534 308.65 130.001 308.222 130.025 307.671C130.049 307.119 129.622 306.652 129.07 306.627L128.982 308.625ZM135.037 306.864C134.485 306.845 134.022 307.277 134.002 307.828C133.983 308.38 134.414 308.844 134.966 308.863L135.037 306.864ZM141.084 309.052C141.636 309.067 142.096 308.632 142.111 308.079C142.125 307.527 141.69 307.068 141.138 307.053L141.084 309.052ZM147.085 307.188C146.533 307.177 146.077 307.617 146.066 308.169C146.056 308.721 146.495 309.177 147.048 309.187L147.085 307.188ZM153.024 309.276C153.576 309.282 154.029 308.839 154.035 308.287C154.041 307.735 153.598 307.282 153.046 307.276L153.024 309.276ZM159.124 307.32C158.572 307.318 158.122 307.765 158.12 308.317C158.118 308.869 158.564 309.318 159.117 309.32L159.124 307.32ZM165.289 309.328C165.842 309.329 166.29 308.882 166.291 308.33C166.292 307.778 165.845 307.329 165.292 307.328L165.289 309.328ZM171.375 307.348C170.823 307.345 170.373 307.791 170.37 308.343C170.368 308.895 170.813 309.345 171.366 309.348L171.375 307.348ZM177.324 309.387C177.876 309.392 178.328 308.948 178.332 308.395C178.337 307.843 177.893 307.392 177.341 307.387L177.324 309.387ZM183.38 307.449C182.827 307.442 182.374 307.884 182.367 308.437C182.361 308.989 182.803 309.442 183.355 309.449L183.38 307.449ZM189.421 309.535C189.973 309.544 190.428 309.104 190.437 308.552C190.446 308 190.006 307.545 189.453 307.535L189.421 309.535ZM195.395 307.646C194.842 307.635 194.385 308.073 194.374 308.625C194.362 309.177 194.801 309.634 195.353 309.646L195.395 307.646ZM201.432 309.788C201.984 309.802 202.443 309.367 202.458 308.814C202.472 308.262 202.036 307.803 201.484 307.789L201.432 309.788ZM207.519 307.962C206.967 307.945 206.505 308.378 206.488 308.93C206.471 309.482 206.904 309.944 207.456 309.961L207.519 307.962ZM213.381 310.165C213.933 310.186 214.397 309.755 214.418 309.203C214.439 308.651 214.008 308.187 213.456 308.167L213.381 310.165ZM219.583 308.417C219.031 308.392 218.564 308.82 218.539 309.372C218.515 309.923 218.942 310.391 219.494 310.415L219.583 308.417ZM225.434 310.7C225.985 310.728 226.455 310.304 226.484 309.753C226.512 309.201 226.088 308.731 225.537 308.703L225.434 310.7ZM231.608 309.042C231.056 309.008 230.583 309.428 230.549 309.98C230.516 310.531 230.936 311.005 231.488 311.038L231.608 309.042ZM237.481 311.426C238.032 311.464 238.509 311.048 238.548 310.497C238.586 309.947 238.17 309.469 237.619 309.431L237.481 311.426ZM243.616 309.878C243.065 309.834 242.583 310.245 242.539 310.795C242.495 311.346 242.906 311.828 243.456 311.872L243.616 309.878ZM249.48 312.389C250.03 312.44 250.517 312.035 250.567 311.485C250.618 310.935 250.213 310.448 249.663 310.398L249.48 312.389ZM255.622 310.986C255.073 310.928 254.581 311.326 254.522 311.875C254.464 312.425 254.863 312.917 255.412 312.975L255.622 310.986ZM261.428 313.658C261.976 313.725 262.475 313.335 262.542 312.787C262.608 312.238 262.218 311.74 261.67 311.673L261.428 313.658ZM267.627 312.452C267.08 312.376 266.574 312.757 266.497 313.304C266.421 313.851 266.802 314.356 267.349 314.433L267.627 312.452ZM273.296 315.331C273.841 315.42 274.355 315.05 274.443 314.505C274.532 313.96 274.162 313.446 273.616 313.357L273.296 315.331ZM279.594 314.406C279.051 314.303 278.528 314.66 278.426 315.203C278.323 315.745 278.679 316.268 279.222 316.371L279.594 314.406ZM284.999 317.554C285.538 317.673 286.072 317.333 286.192 316.794C286.311 316.254 285.971 315.72 285.432 315.601L284.999 317.554ZM291.414 317.046C290.88 316.905 290.333 317.224 290.193 317.758C290.052 318.292 290.371 318.839 290.905 318.98L291.414 317.046ZM296.643 320.637C297.17 320.804 297.732 320.513 297.899 319.986C298.066 319.46 297.774 318.898 297.248 318.731L296.643 320.637ZM302.945 320.731C302.431 320.531 301.851 320.786 301.651 321.3C301.45 321.815 301.705 322.395 302.219 322.595L302.945 320.731ZM307.613 324.956C308.108 325.2 308.708 324.997 308.952 324.501C309.196 324.006 308.993 323.407 308.498 323.162L307.613 324.956ZM313.843 326.198C313.382 325.894 312.762 326.022 312.458 326.484C312.155 326.945 312.283 327.565 312.745 327.869L313.843 326.198ZM317.35 331.48C317.75 331.861 318.383 331.844 318.764 331.444C319.144 331.043 319.128 330.41 318.727 330.03L317.35 331.48ZM322.732 334.859C322.438 334.391 321.82 334.251 321.353 334.545C320.885 334.839 320.745 335.457 321.039 335.924L322.732 334.859ZM323.326 341.128C323.469 341.661 324.018 341.978 324.551 341.834C325.085 341.691 325.401 341.142 325.258 340.609L323.326 341.128ZM325.996 346.844C326.006 346.292 325.566 345.837 325.014 345.827C324.462 345.817 324.006 346.257 323.996 346.809L325.996 346.844ZM323.239 352.586C323.113 353.124 323.447 353.662 323.985 353.788C324.522 353.914 325.06 353.58 325.186 353.042L323.239 352.586ZM323.313 358.924C323.517 358.411 323.266 357.83 322.752 357.626C322.239 357.423 321.658 357.674 321.454 358.187L323.313 358.924ZM318.991 363.529C318.736 364.019 318.926 364.623 319.416 364.878C319.905 365.134 320.509 364.943 320.765 364.454L318.991 363.529ZM317.764 369.7C318.055 369.231 317.911 368.614 317.441 368.323C316.972 368.032 316.355 368.177 316.064 368.647L317.764 369.7ZM312.784 373.606C312.467 374.059 312.576 374.682 313.029 374.999C313.481 375.316 314.104 375.206 314.421 374.754L312.784 373.606ZM310.786 379.694C311.123 379.256 311.041 378.628 310.604 378.291C310.166 377.954 309.538 378.036 309.201 378.474L310.786 379.694ZM305.49 383.122C305.138 383.548 305.198 384.178 305.624 384.53C306.05 384.882 306.68 384.822 307.032 384.396L305.49 383.122ZM303.124 388.986C303.488 388.57 303.446 387.939 303.031 387.575C302.615 387.211 301.983 387.253 301.619 387.669L303.124 388.986ZM297.559 392.192C297.185 392.599 297.212 393.232 297.619 393.605C298.025 393.979 298.658 393.952 299.031 393.546L297.559 392.192ZM294.961 397.885C295.343 397.486 295.329 396.853 294.93 396.471C294.531 396.09 293.898 396.104 293.516 396.503L294.961 397.885ZM289.247 400.888C288.859 401.281 288.862 401.914 289.254 402.302C289.647 402.691 290.28 402.688 290.668 402.295L289.247 400.888ZM286.471 406.472C286.865 406.085 286.871 405.452 286.484 405.058C286.098 404.664 285.464 404.657 285.07 405.044L286.471 406.472ZM280.685 409.288C280.285 409.67 280.271 410.303 280.652 410.702C281.034 411.102 281.667 411.116 282.066 410.734L280.685 409.288ZM277.742 414.819C278.145 414.442 278.167 413.809 277.79 413.405C277.413 413.002 276.78 412.98 276.376 413.357L277.742 414.819ZM271.933 417.464C271.525 417.837 271.497 418.469 271.87 418.877C272.243 419.284 272.876 419.312 273.283 418.94L271.933 417.464ZM268.818 422.988C269.229 422.618 269.263 421.986 268.894 421.575C268.524 421.165 267.892 421.131 267.481 421.5L268.818 422.988ZM263.019 425.477C262.605 425.843 262.566 426.475 262.932 426.889C263.298 427.302 263.93 427.341 264.343 426.975L263.019 425.477ZM259.72 431.032C260.136 430.669 260.18 430.037 259.817 429.621C259.455 429.204 258.823 429.161 258.406 429.523L259.72 431.032ZM253.95 433.379C253.531 433.739 253.483 434.37 253.843 434.789C254.203 435.208 254.834 435.256 255.253 434.896L253.95 433.379ZM250.641 438.835C251.062 438.478 251.114 437.847 250.756 437.426C250.399 437.005 249.768 436.953 249.347 437.31L250.641 438.835ZM244.725 441.212C244.302 441.567 244.247 442.198 244.602 442.621C244.957 443.044 245.588 443.099 246.011 442.744L244.725 441.212ZM241.441 446.56C241.866 446.207 241.924 445.576 241.571 445.152C241.218 444.727 240.588 444.669 240.163 445.022L241.441 446.56ZM235.474 448.899C235.047 449.25 234.986 449.88 235.337 450.307C235.688 450.733 236.318 450.794 236.745 450.444L235.474 448.899ZM232.089 454.259C232.517 453.91 232.581 453.28 232.232 452.852C231.882 452.424 231.253 452.36 230.825 452.709L232.089 454.259ZM226.2 456.467C225.771 456.815 225.704 457.444 226.052 457.874C226.399 458.303 227.029 458.369 227.458 458.022L226.2 456.467ZM222.716 461.846C223.146 461.5 223.215 460.871 222.869 460.44C222.523 460.009 221.894 459.941 221.463 460.287L222.716 461.846ZM218.994 1.72975C219.718 2.40804 220.443 3.0868 221.168 3.76585L222.535 2.30591C221.81 1.62679 221.085 0.948279 220.362 0.270251L218.994 1.72975ZM225.519 7.84407C226.969 9.20527 228.415 10.5678 229.855 11.9317L231.23 10.48C229.788 9.11338 228.339 7.74872 226.889 6.38622L225.519 7.84407ZM234.161 16.0408C235.598 17.423 237.024 18.8063 238.433 20.1908L239.835 18.7641C238.42 17.374 236.989 15.9856 235.548 14.5993L234.161 16.0408ZM242.651 24.3915C244.057 25.8122 245.441 27.2339 246.798 28.6564L248.245 27.2757C246.878 25.8435 245.486 24.4132 244.073 22.9849L242.651 24.3915ZM250.853 33.0004C252.202 34.4799 253.517 35.96 254.792 37.4406L256.308 36.1352C255.019 34.6391 253.691 33.145 252.331 31.653L250.853 33.0004ZM258.586 41.9958C259.841 43.5596 261.046 45.1235 262.195 46.6872L263.807 45.503C262.64 43.9143 261.417 42.3278 260.145 40.7438L258.586 41.9958ZM265.572 51.5372C266.673 53.2149 267.701 54.8916 268.65 56.5672L270.39 55.5819C269.418 53.8648 268.367 52.1507 267.244 50.4398L265.572 51.5372ZM271.343 61.794C272.182 63.606 272.917 65.4155 273.541 67.2225L275.431 66.5703C274.784 64.6942 274.023 62.8219 273.158 60.954L271.343 61.794ZM275.108 72.8359C275.514 74.7553 275.782 76.6716 275.902 78.5849L277.898 78.4601C277.772 76.4437 277.49 74.4308 277.065 72.422L275.108 72.8359ZM275.799 84.3738C275.609 86.2668 275.262 88.1601 274.747 90.0541L276.676 90.5795C277.221 88.5782 277.588 86.5759 277.789 84.5733L275.799 84.3738ZM272.789 95.5006C272.024 97.2055 271.113 98.9133 270.046 100.624L271.743 101.682C272.856 99.8984 273.811 98.1104 274.614 96.3189L272.789 95.5006ZM266.671 105.383C265.506 106.849 264.22 108.316 262.807 109.785L264.249 111.171C265.702 109.66 267.03 108.146 268.237 106.629L266.671 105.383ZM258.56 113.865C257.137 115.133 255.617 116.402 253.995 117.672L255.228 119.247C256.881 117.952 258.434 116.656 259.891 115.358L258.56 113.865ZM249.275 121.168C247.724 122.256 246.097 123.345 244.392 124.434L245.468 126.119C247.197 125.016 248.848 123.911 250.424 122.805L249.275 121.168ZM239.285 127.554C237.642 128.518 235.934 129.481 234.163 130.444L235.118 132.201C236.908 131.228 238.633 130.255 240.297 129.28L239.285 127.554ZM228.913 133.201C227.184 134.079 225.4 134.956 223.56 135.833L224.421 137.639C226.275 136.755 228.074 135.87 229.818 134.984L228.913 133.201ZM218.211 138.312C216.432 139.113 214.604 139.915 212.729 140.716L213.514 142.555C215.402 141.749 217.241 140.942 219.033 140.135L218.211 138.312ZM207.282 142.985C205.477 143.72 203.63 144.453 201.742 145.187L202.466 147.051C204.364 146.314 206.22 145.576 208.035 144.838L207.282 142.985ZM196.173 147.303C194.361 147.978 192.512 148.652 190.627 149.325L191.3 151.209C193.193 150.532 195.05 149.855 196.87 149.178L196.173 147.303ZM184.9 151.332C183.093 151.953 181.254 152.573 179.384 153.194L180.013 155.092C181.89 154.47 183.736 153.847 185.55 153.223L184.9 151.332ZM173.675 155.054C172.707 155.364 171.731 155.674 170.747 155.984L171.348 157.891C172.335 157.581 173.314 157.27 174.285 156.959L173.675 155.054ZM170.747 155.984C169.762 156.294 168.781 156.604 167.805 156.915L168.411 158.821C169.386 158.511 170.365 158.201 171.348 157.891L170.747 155.984ZM161.998 158.779C160.079 159.402 158.178 160.024 156.295 160.647L156.923 162.546C158.802 161.924 160.7 161.303 162.614 160.682L161.998 158.779ZM150.696 162.518C148.745 163.176 146.813 163.835 144.901 164.494L145.552 166.385C147.461 165.727 149.388 165.07 151.335 164.413L150.696 162.518ZM139.182 166.486C137.295 167.151 135.428 167.815 133.58 168.48L134.257 170.362C136.101 169.699 137.964 169.036 139.846 168.373L139.182 166.486ZM127.924 170.539C125.997 171.249 124.092 171.958 122.209 172.668L122.915 174.54C124.793 173.832 126.693 173.124 128.615 172.416L127.924 170.539ZM116.627 174.798C114.752 175.523 112.9 176.247 111.07 176.971L111.807 178.83C113.63 178.108 115.477 177.386 117.347 176.664L116.627 174.798ZM105.387 179.251C103.518 180.01 101.674 180.77 99.8557 181.529L100.626 183.375C102.439 182.618 104.277 181.861 106.14 181.103L105.387 179.251ZM94.3575 183.858C92.4583 184.673 90.5882 185.488 88.7471 186.303L89.5564 188.132C91.3906 187.32 93.2541 186.508 95.1467 185.695L94.3575 183.858ZM83.3109 188.745C81.4538 189.593 79.6282 190.44 77.8341 191.285L78.6869 193.094C80.4734 192.252 82.2915 191.409 84.1411 190.565L83.3109 188.745ZM72.3549 193.914C70.5623 194.789 68.8034 195.663 67.0782 196.536L67.9811 198.32C69.6977 197.452 71.448 196.582 73.2323 195.711L72.3549 193.914ZM61.6009 199.362C59.8072 200.307 58.0531 201.25 56.3385 202.191L57.301 203.944C59.0051 203.009 60.749 202.071 62.5328 201.132L61.6009 199.362ZM51.0528 205.159C49.2717 206.183 47.5377 207.204 45.8506 208.222L46.8843 209.935C48.5586 208.924 50.2802 207.91 52.0492 206.893L51.0528 205.159ZM40.7371 211.393C38.9906 212.506 37.3008 213.616 35.6674 214.722L36.7888 216.378C38.4062 215.283 40.0805 214.183 41.812 213.08L40.7371 211.393ZM30.7259 218.182C29.0494 219.397 27.4417 220.607 25.9029 221.812L27.1359 223.386C28.6542 222.197 30.242 221.002 31.8995 219.801L30.7259 218.182ZM21.1818 225.676C19.6228 227.014 18.1498 228.344 16.7629 229.667L18.1434 231.114C19.5032 229.817 20.9499 228.51 22.484 227.194L21.1818 225.676ZM12.4432 234.065C11.0055 235.636 9.69156 237.196 8.50186 238.745L10.0877 239.963C11.2396 238.464 12.5162 236.948 13.9186 235.416L12.4432 234.065ZM5.04947 243.772C3.93909 245.611 3.0098 247.434 2.26358 249.237L4.11163 250.002C4.81567 248.301 5.698 246.568 6.76172 244.805L5.04947 243.772ZM0.458862 255.165C0.0537415 257.276 -0.0838013 259.354 0.0489807 261.392L2.04474 261.262C1.92361 259.403 2.04813 257.496 2.423 255.542L0.458862 255.165ZM1.3045 267.51C1.97714 269.419 2.90726 271.275 4.08923 273.072L5.76025 271.973C4.66122 270.302 3.806 268.592 3.19089 266.846L1.3045 267.51ZM7.9765 277.872C9.33737 279.274 10.8685 280.633 12.5672 281.951L13.7927 280.37C12.1605 279.104 10.7006 277.807 9.41125 276.479L7.9765 277.872ZM17.6196 285.44C19.2948 286.477 21.0872 287.484 22.996 288.46L23.907 286.68C22.0423 285.726 20.2974 284.745 18.672 283.739L17.6196 285.44ZM28.3972 291.008C30.1915 291.789 32.0697 292.548 34.0313 293.285L34.7344 291.413C32.8028 290.687 30.9565 289.941 29.1956 289.174L28.3972 291.008ZM39.7926 295.305C41.6331 295.907 43.5367 296.492 45.5032 297.06L46.0576 295.138C44.1127 294.577 42.2318 293.999 40.4149 293.404L39.7926 295.305ZM51.4498 298.672C53.3182 299.148 55.2369 299.609 57.2057 300.056L57.6482 298.106C55.6958 297.663 53.7942 297.205 51.9435 296.734L51.4498 298.672ZM63.2188 301.342C65.1173 301.725 67.0581 302.095 69.0411 302.452L69.3956 300.484C67.4258 300.129 65.4986 299.762 63.614 299.382L63.2188 301.342ZM75.0496 303.474C76.9881 303.785 78.9636 304.084 80.9761 304.372L81.2589 302.392C79.2573 302.106 77.2931 301.808 75.3663 301.499L75.0496 303.474ZM86.9381 305.175C88.9278 305.427 90.9512 305.669 93.0082 305.899L93.2309 303.912C91.1833 303.682 89.1696 303.442 87.1898 303.191L86.9381 305.175ZM98.8995 306.52C100.893 306.717 102.916 306.904 104.969 307.081L105.141 305.088C103.096 304.912 101.081 304.726 99.0961 304.529L98.8995 306.52ZM110.956 307.562C112.917 307.709 114.904 307.846 116.917 307.975L117.045 305.979C115.039 305.851 113.059 305.714 111.105 305.568L110.956 307.562ZM123.032 308.334C124.992 308.44 126.975 308.537 128.982 308.625L129.07 306.627C127.07 306.539 125.093 306.442 123.139 306.337L123.032 308.334ZM134.966 308.863C136.983 308.934 139.023 308.997 141.084 309.052L141.138 307.053C139.082 306.998 137.048 306.935 135.037 306.864L134.966 308.863ZM147.048 309.187C149.02 309.224 151.012 309.254 153.024 309.276L153.046 307.276C151.039 307.254 149.052 307.224 147.085 307.188L147.048 309.187ZM159.117 309.32C160.142 309.324 161.172 309.326 162.207 309.326V307.326C161.174 307.326 160.147 307.324 159.124 307.32L159.117 309.32ZM162.207 309.326C163.239 309.326 164.267 309.327 165.289 309.328L165.292 307.328C164.269 307.327 163.24 307.326 162.207 307.326V309.326ZM171.366 309.348C173.371 309.357 175.357 309.371 177.324 309.387L177.341 307.387C175.372 307.371 173.383 307.358 171.375 307.348L171.366 309.348ZM183.355 309.449C185.399 309.474 187.421 309.502 189.421 309.535L189.453 307.535C187.451 307.503 185.426 307.474 183.38 307.449L183.355 309.449ZM195.353 309.646C197.404 309.689 199.43 309.736 201.432 309.788L201.484 307.789C199.478 307.737 197.449 307.689 195.395 307.646L195.353 309.646ZM207.456 309.961C209.457 310.024 211.432 310.092 213.381 310.165L213.456 308.167C211.503 308.093 209.524 308.025 207.519 307.962L207.456 309.961ZM219.494 310.415C221.503 310.504 223.483 310.599 225.434 310.7L225.537 308.703C223.581 308.601 221.596 308.506 219.583 308.417L219.494 310.415ZM231.488 311.038C233.519 311.16 235.516 311.289 237.481 311.426L237.619 309.431C235.648 309.294 233.645 309.164 231.608 309.042L231.488 311.038ZM243.456 311.872C245.503 312.035 247.511 312.208 249.48 312.389L249.663 310.398C247.686 310.216 245.67 310.042 243.616 309.878L243.456 311.872ZM255.412 312.975C257.463 313.192 259.468 313.42 261.428 313.658L261.67 311.673C259.699 311.433 257.683 311.204 255.622 310.986L255.412 312.975ZM267.349 314.433C269.386 314.719 271.368 315.018 273.296 315.331L273.616 313.357C271.674 313.042 269.677 312.74 267.627 312.452L267.349 314.433ZM279.222 316.371C281.214 316.748 283.14 317.142 284.999 317.554L285.432 315.601C283.551 315.185 281.605 314.786 279.594 314.406L279.222 316.371ZM290.905 318.98C292.909 319.507 294.822 320.06 296.643 320.637L297.248 318.731C295.392 318.142 293.448 317.581 291.414 317.046L290.905 318.98ZM302.219 322.595C304.147 323.346 305.945 324.132 307.613 324.956L308.498 323.162C306.772 322.311 304.921 321.501 302.945 320.731L302.219 322.595ZM312.745 327.869C314.487 329.015 316.021 330.218 317.35 331.48L318.727 330.03C317.302 328.676 315.672 327.4 313.843 326.198L312.745 327.869ZM321.039 335.924C322.073 337.567 322.835 339.299 323.326 341.128L325.258 340.609C324.713 338.583 323.87 336.666 322.732 334.859L321.039 335.924ZM323.996 346.809C323.964 348.639 323.713 350.563 323.239 352.586L325.186 353.042C325.689 350.897 325.961 348.832 325.996 346.844L323.996 346.809ZM321.454 358.187C320.772 359.907 319.951 361.687 318.991 363.529L320.765 364.454C321.753 362.558 322.603 360.715 323.313 358.924L321.454 358.187ZM316.064 368.647C315.066 370.258 313.972 371.91 312.784 373.606L314.421 374.754C315.63 373.03 316.744 371.346 317.764 369.7L316.064 368.647ZM309.201 378.474C308.034 379.992 306.796 381.541 305.49 383.122L307.032 384.396C308.352 382.799 309.604 381.231 310.786 379.694L309.201 378.474ZM301.619 387.669C300.322 389.15 298.969 390.658 297.559 392.192L299.031 393.546C300.452 392 301.816 390.48 303.124 388.986L301.619 387.669ZM293.516 396.503C292.14 397.943 290.717 399.404 289.247 400.888L290.668 402.295C292.146 400.804 293.577 399.334 294.961 397.885L293.516 396.503ZM285.07 405.044C283.647 406.44 282.185 407.854 280.685 409.288L282.066 410.734C283.573 409.295 285.041 407.874 286.471 406.472L285.07 405.044ZM276.376 413.357C274.928 414.71 273.447 416.079 271.933 417.464L273.283 418.94C274.802 417.55 276.288 416.176 277.742 414.819L276.376 413.357ZM267.481 421.5C266.022 422.811 264.534 424.137 263.019 425.477L264.343 426.975C265.863 425.632 267.355 424.303 268.818 422.988L267.481 421.5ZM258.406 429.523C256.945 430.796 255.46 432.081 253.95 433.379L255.253 434.896C256.766 433.595 258.255 432.307 259.72 431.032L258.406 429.523ZM249.347 437.31C247.829 438.599 246.288 439.899 244.725 441.212L246.011 442.744C247.577 441.429 249.121 440.126 250.641 438.835L249.347 437.31ZM240.163 445.022C238.621 446.303 237.058 447.595 235.474 448.899L236.745 450.444C238.331 449.138 239.897 447.843 241.441 446.56L240.163 445.022ZM230.825 452.709C229.302 453.952 227.76 455.204 226.2 456.467L227.458 458.022C229.02 456.757 230.564 455.503 232.089 454.259L230.825 452.709Z" fill="url(#paint0_linear_767_2679)"/>
<defs>
<linearGradient id="paint0_linear_767_2679" x1="54.594" y1="405.47" x2="297.675" y2="-37.4612" gradientUnits="userSpaceOnUse">
<stop stop-color="#36D1DC"/>
<stop offset="0.963542" stop-color="#5B86E5"/>
</linearGradient>
</defs>
</svg>
