<svg width="186" height="29" viewBox="0 0 186 29" fill="none" xmlns="http://www.w3.org/2000/svg">
<path d="M1.4876 11.4626L8.67037 3.8555C10.6538 1.75487 13.8696 1.75487 15.8531 3.8555L19.3844 7.59535L15.9089 11.2761L14.1364 9.39904C13.1011 8.30253 11.4225 8.30253 10.3871 9.39904L6.72197 13.2807C5.68661 14.3771 5.68661 16.1549 6.72197 17.2515L10.3871 21.1331C11.4225 22.2296 13.1011 22.2296 14.1364 21.1331L17.8015 17.2515C17.85 17.2002 17.8961 17.1475 17.9399 17.0934L23.1769 11.6178C25.0182 13.7277 24.9713 17.0199 23.0359 19.0696L15.8531 26.6766C13.8696 28.7772 10.6538 28.7772 8.67037 26.6766L1.4876 19.0696C-0.495868 16.9689 -0.495868 13.5631 1.4876 11.4626Z" fill="#C4C4C4"/>
<path d="M1.4876 11.4626L8.67037 3.8555C10.6538 1.75487 13.8696 1.75487 15.8531 3.8555L19.3844 7.59535L15.9089 11.2761L14.1364 9.39904C13.1011 8.30253 11.4225 8.30253 10.3871 9.39904L6.72197 13.2807C5.68661 14.3771 5.68661 16.1549 6.72197 17.2515L10.3871 21.1331C11.4225 22.2296 13.1011 22.2296 14.1364 21.1331L17.8015 17.2515C17.85 17.2002 17.8961 17.1475 17.9399 17.0934L23.1769 11.6178C25.0182 13.7277 24.9713 17.0199 23.0359 19.0696L15.8531 26.6766C13.8696 28.7772 10.6538 28.7772 8.67037 26.6766L1.4876 19.0696C-0.495868 16.9689 -0.495868 13.5631 1.4876 11.4626Z" fill="url(#paint0_linear_732_2471)"/>
<path d="M23.2914 11.4626L30.4741 3.8555C32.4576 1.75487 35.6734 1.75487 37.6568 3.8555L44.8397 11.4626C46.8231 13.5631 46.8231 16.9689 44.8397 19.0696L37.6568 26.6766C35.6734 28.7772 32.4576 28.7772 30.4741 26.6766L27.1802 23.1882L30.6557 19.5074L32.1908 21.1331C33.2261 22.2296 34.9048 22.2296 35.9401 21.1331L39.6052 17.2515C40.6406 16.1549 40.6406 14.3771 39.6052 13.2807L35.9401 9.39904C34.9048 8.30253 33.2261 8.30253 32.1908 9.39904L28.5257 13.2807C28.4646 13.3454 28.4072 13.4124 28.3533 13.4815L23.1647 18.9308C21.3087 16.8215 21.351 13.5175 23.2914 11.4626Z" fill="#C4C4C4"/>
<path d="M23.2914 11.4626L30.4741 3.8555C32.4576 1.75487 35.6734 1.75487 37.6568 3.8555L44.8397 11.4626C46.8231 13.5631 46.8231 16.9689 44.8397 19.0696L37.6568 26.6766C35.6734 28.7772 32.4576 28.7772 30.4741 26.6766L27.1802 23.1882L30.6557 19.5074L32.1908 21.1331C33.2261 22.2296 34.9048 22.2296 35.9401 21.1331L39.6052 17.2515C40.6406 16.1549 40.6406 14.3771 39.6052 13.2807L35.9401 9.39904C34.9048 8.30253 33.2261 8.30253 32.1908 9.39904L28.5257 13.2807C28.4646 13.3454 28.4072 13.4124 28.3533 13.4815L23.1647 18.9308C21.3087 16.8215 21.351 13.5175 23.2914 11.4626Z" fill="url(#paint1_linear_732_2471)"/>
<path d="M20.1234 10.6882C20.2555 11.449 19.5758 12.1069 18.8021 11.9674L14.0344 11.1069C13.5953 11.0277 13.4181 10.5043 13.7215 10.183L18.275 5.36042C18.5942 5.02241 19.1699 5.19054 19.2487 5.64478L20.1234 10.6882Z" fill="#C4C4C4"/>
<path d="M20.1234 10.6882C20.2555 11.449 19.5758 12.1069 18.8021 11.9674L14.0344 11.1069C13.5953 11.0277 13.4181 10.5043 13.7215 10.183L18.275 5.36042C18.5942 5.02241 19.1699 5.19054 19.2487 5.64478L20.1234 10.6882Z" fill="url(#paint2_linear_732_2471)"/>
<path d="M26.5425 20.2195C26.4105 19.4586 27.0901 18.8007 27.8638 18.9403L32.6316 19.8007C33.0707 19.8799 33.248 20.4033 32.9445 20.7247L28.3909 25.5472C28.0718 25.8852 27.4961 25.7171 27.4173 25.2629L26.5425 20.2195Z" fill="#C4C4C4"/>
<path d="M26.5425 20.2195C26.4105 19.4586 27.0901 18.8007 27.8638 18.9403L32.6316 19.8007C33.0707 19.8799 33.248 20.4033 32.9445 20.7247L28.3909 25.5472C28.0718 25.8852 27.4961 25.7171 27.4173 25.2629L26.5425 20.2195Z" fill="url(#paint3_linear_732_2471)"/>
<path d="M65.3243 15.7C64.5496 15.7 63.775 15.6733 63.0003 15.62C62.2393 15.58 61.4442 15.4733 60.6152 15.3V1.86C61.2676 1.74 61.9811 1.65333 62.7557 1.6C63.5304 1.53333 64.2507 1.5 64.9166 1.5C65.8135 1.5 66.6358 1.56667 67.3832 1.7C68.1443 1.82 68.7966 2.03333 69.3402 2.34C69.8839 2.64667 70.3052 3.05333 70.6042 3.56C70.9167 4.05333 71.073 4.66667 71.073 5.4C71.073 6.50667 70.5294 7.38 69.4422 8.02C70.3391 8.35333 70.9507 8.80667 71.2769 9.38C71.603 9.95333 71.7661 10.6 71.7661 11.32C71.7661 12.7733 71.2225 13.8667 70.1353 14.6C69.0616 15.3333 67.458 15.7 65.3243 15.7ZM63.7138 9.48V13.06C63.9449 13.0867 64.1963 13.1067 64.4681 13.12C64.7399 13.1333 65.0389 13.14 65.3651 13.14C66.3164 13.14 67.0842 13.0067 67.6686 12.74C68.253 12.4733 68.5452 11.98 68.5452 11.26C68.5452 10.62 68.3006 10.1667 67.8113 9.9C67.3221 9.62 66.6222 9.48 65.7116 9.48H63.7138ZM63.7138 7.1H65.2631C66.2416 7.1 66.9415 6.98 67.3628 6.74C67.7842 6.48667 67.9948 6.08667 67.9948 5.54C67.9948 4.98 67.7774 4.58667 67.3425 4.36C66.9076 4.13333 66.2688 4.02 65.4262 4.02C65.1544 4.02 64.8622 4.02667 64.5496 4.04C64.2371 4.04 63.9585 4.05333 63.7138 4.08V7.1ZM73.5983 10.34C73.5983 9.40667 73.741 8.59333 74.0264 7.9C74.3254 7.19333 74.7127 6.60667 75.1884 6.14C75.6641 5.67333 76.2077 5.32 76.8192 5.08C77.4444 4.84 78.0832 4.72 78.7355 4.72C80.2576 4.72 81.4604 5.18 82.3437 6.1C83.2271 7.00667 83.6688 8.34667 83.6688 10.12C83.6688 10.2933 83.662 10.4867 83.6484 10.7C83.6348 10.9 83.6212 11.08 83.6076 11.24H76.7173C76.7853 11.8533 77.0775 12.34 77.5939 12.7C78.1103 13.06 78.8034 13.24 79.6732 13.24C80.2304 13.24 80.774 13.1933 81.3041 13.1C81.8477 12.9933 82.2894 12.8667 82.6291 12.72L83.0368 15.14C82.8738 15.22 82.6563 15.3 82.3845 15.38C82.1127 15.46 81.8069 15.5267 81.4672 15.58C81.141 15.6467 80.7876 15.7 80.4071 15.74C80.0266 15.78 79.646 15.8 79.2655 15.8C78.3006 15.8 77.458 15.66 76.7377 15.38C76.031 15.1 75.4398 14.72 74.9642 14.24C74.5021 13.7467 74.1555 13.1667 73.9245 12.5C73.7071 11.8333 73.5983 11.1133 73.5983 10.34ZM80.7333 9.2C80.7197 8.94667 80.6721 8.7 80.5906 8.46C80.5226 8.22 80.4071 8.00667 80.244 7.82C80.0945 7.63333 79.8975 7.48 79.6528 7.36C79.4218 7.24 79.1296 7.18 78.7763 7.18C78.4365 7.18 78.1443 7.24 77.8997 7.36C77.6551 7.46667 77.4512 7.61333 77.2881 7.8C77.125 7.98667 76.9959 8.20667 76.9008 8.46C76.8193 8.7 76.7581 8.94667 76.7173 9.2H80.7333ZM85.9109 2.38L88.9483 1.9V5H92.5973V7.48H88.9483V11.18C88.9483 11.8067 89.057 12.3067 89.2745 12.68C89.5055 13.0533 89.9608 13.24 90.6403 13.24C90.9665 13.24 91.2994 13.2133 91.6392 13.16C91.9925 13.0933 92.3119 13.0067 92.5973 12.9L93.0254 15.22C92.6585 15.3667 92.2508 15.4933 91.8023 15.6C91.3538 15.7067 90.8034 15.76 90.1511 15.76C89.322 15.76 88.6357 15.6533 88.0921 15.44C87.5485 15.2133 87.1136 14.9067 86.7874 14.52C86.4613 14.12 86.2302 13.64 86.0943 13.08C85.972 12.52 85.9109 11.9 85.9109 11.22V2.38ZM98.7702 13.44C99.0692 13.44 99.3546 13.4333 99.6264 13.42C99.8982 13.4067 100.116 13.3867 100.279 13.36V11.1C100.156 11.0733 99.9729 11.0467 99.7283 11.02C99.4837 10.9933 99.2594 10.98 99.0556 10.98C98.7702 10.98 98.4984 11 98.2402 11.04C97.9955 11.0667 97.7781 11.1267 97.5878 11.22C97.3975 11.3133 97.2481 11.44 97.1393 11.6C97.0306 11.76 96.9762 11.96 96.9762 12.2C96.9762 12.6667 97.1325 12.9933 97.4451 13.18C97.7713 13.3533 98.213 13.44 98.7702 13.44ZM98.5256 4.72C99.4225 4.72 100.17 4.82 100.768 5.02C101.366 5.22 101.842 5.50667 102.195 5.88C102.562 6.25333 102.82 6.70667 102.97 7.24C103.119 7.77333 103.194 8.36667 103.194 9.02V15.22C102.759 15.3133 102.154 15.42 101.38 15.54C100.605 15.6733 99.6671 15.74 98.5663 15.74C97.8732 15.74 97.2413 15.68 96.6705 15.56C96.1133 15.44 95.6308 15.2467 95.2231 14.98C94.8154 14.7 94.5028 14.34 94.2854 13.9C94.0679 13.46 93.9592 12.92 93.9592 12.28C93.9592 11.6667 94.0815 11.1467 94.3261 10.72C94.5843 10.2933 94.9241 9.95333 95.3454 9.7C95.7667 9.44667 96.2492 9.26667 96.7928 9.16C97.3364 9.04 97.9004 8.98 98.4848 8.98C98.8789 8.98 99.2255 9 99.5244 9.04C99.837 9.06667 100.088 9.10667 100.279 9.16V8.88C100.279 8.37333 100.122 7.96667 99.8098 7.66C99.4973 7.35333 98.9537 7.2 98.179 7.2C97.6626 7.2 97.1529 7.24 96.6501 7.32C96.1472 7.38667 95.7123 7.48667 95.3454 7.62L94.9581 5.22C95.1348 5.16667 95.3522 5.11333 95.6104 5.06C95.8822 4.99333 96.1744 4.94 96.487 4.9C96.7996 4.84667 97.1257 4.80667 97.4655 4.78C97.8189 4.74 98.1722 4.72 98.5256 4.72ZM116.622 1.66V4.32H112.362V15.52H109.182V4.32H104.921V1.66H116.622ZM123.511 7.64C123.24 7.57333 122.92 7.50667 122.553 7.44C122.186 7.36 121.792 7.32 121.371 7.32C121.181 7.32 120.95 7.34 120.678 7.38C120.42 7.40667 120.223 7.44 120.087 7.48V15.52H117.049V5.56C117.593 5.37333 118.232 5.2 118.965 5.04C119.713 4.86667 120.542 4.78 121.452 4.78C121.616 4.78 121.813 4.79333 122.044 4.82C122.275 4.83333 122.506 4.86 122.737 4.9C122.968 4.92667 123.199 4.96667 123.43 5.02C123.661 5.06 123.858 5.11333 124.021 5.18L123.511 7.64ZM129.548 13.44C129.847 13.44 130.132 13.4333 130.404 13.42C130.676 13.4067 130.893 13.3867 131.056 13.36V11.1C130.934 11.0733 130.751 11.0467 130.506 11.02C130.261 10.9933 130.037 10.98 129.833 10.98C129.548 10.98 129.276 11 129.018 11.04C128.773 11.0667 128.556 11.1267 128.365 11.22C128.175 11.3133 128.026 11.44 127.917 11.6C127.808 11.76 127.754 11.96 127.754 12.2C127.754 12.6667 127.91 12.9933 128.223 13.18C128.549 13.3533 128.991 13.44 129.548 13.44ZM129.303 4.72C130.2 4.72 130.948 4.82 131.546 5.02C132.144 5.22 132.619 5.50667 132.973 5.88C133.34 6.25333 133.598 6.70667 133.747 7.24C133.897 7.77333 133.971 8.36667 133.971 9.02V15.22C133.537 15.3133 132.932 15.42 132.157 15.54C131.383 15.6733 130.445 15.74 129.344 15.74C128.651 15.74 128.019 15.68 127.448 15.56C126.891 15.44 126.408 15.2467 126.001 14.98C125.593 14.7 125.28 14.34 125.063 13.9C124.846 13.46 124.737 12.92 124.737 12.28C124.737 11.6667 124.859 11.1467 125.104 10.72C125.362 10.2933 125.702 9.95333 126.123 9.7C126.544 9.44667 127.027 9.26667 127.57 9.16C128.114 9.04 128.678 8.98 129.262 8.98C129.657 8.98 130.003 9 130.302 9.04C130.615 9.06667 130.866 9.10667 131.056 9.16V8.88C131.056 8.37333 130.9 7.96667 130.587 7.66C130.275 7.35333 129.731 7.2 128.957 7.2C128.44 7.2 127.931 7.24 127.428 7.32C126.925 7.38667 126.49 7.48667 126.123 7.62L125.736 5.22C125.912 5.16667 126.13 5.11333 126.388 5.06C126.66 4.99333 126.952 4.94 127.265 4.9C127.577 4.84667 127.903 4.80667 128.243 4.78C128.596 4.74 128.95 4.72 129.303 4.72ZM136.718 5.36C137.234 5.21333 137.9 5.08 138.716 4.96C139.531 4.82667 140.387 4.76 141.284 4.76C142.195 4.76 142.949 4.88 143.547 5.12C144.159 5.34667 144.641 5.67333 144.994 6.1C145.348 6.52667 145.599 7.03333 145.749 7.62C145.898 8.20667 145.973 8.86 145.973 9.58V15.52H142.935V9.94C142.935 8.98 142.806 8.3 142.548 7.9C142.29 7.5 141.807 7.3 141.101 7.3C140.883 7.3 140.652 7.31333 140.408 7.34C140.163 7.35333 139.946 7.37333 139.755 7.4V15.52H136.718V5.36ZM151.801 13.38C152.358 13.38 152.752 13.3267 152.983 13.22C153.214 13.1133 153.33 12.9067 153.33 12.6C153.33 12.36 153.18 12.1533 152.881 11.98C152.582 11.7933 152.127 11.5867 151.516 11.36C151.04 11.1867 150.605 11.0067 150.211 10.82C149.83 10.6333 149.504 10.4133 149.232 10.16C148.961 9.89333 148.75 9.58 148.6 9.22C148.451 8.86 148.376 8.42667 148.376 7.92C148.376 6.93333 148.75 6.15333 149.497 5.58C150.245 5.00667 151.271 4.72 152.576 4.72C153.228 4.72 153.853 4.78 154.451 4.9C155.049 5.00667 155.525 5.12667 155.878 5.26L155.348 7.58C154.995 7.46 154.607 7.35333 154.186 7.26C153.778 7.16667 153.316 7.12 152.8 7.12C151.848 7.12 151.373 7.38 151.373 7.9C151.373 8.02 151.393 8.12667 151.434 8.22C151.475 8.31333 151.556 8.40667 151.679 8.5C151.801 8.58 151.964 8.67333 152.168 8.78C152.385 8.87333 152.657 8.98 152.983 9.1C153.649 9.34 154.2 9.58 154.634 9.82C155.069 10.0467 155.409 10.3 155.654 10.58C155.912 10.8467 156.089 11.1467 156.184 11.48C156.293 11.8133 156.347 12.2 156.347 12.64C156.347 13.68 155.946 14.4667 155.144 15C154.356 15.5333 153.235 15.8 151.781 15.8C150.829 15.8 150.034 15.72 149.395 15.56C148.77 15.4 148.335 15.2667 148.091 15.16L148.6 12.74C149.117 12.94 149.647 13.1 150.19 13.22C150.734 13.3267 151.271 13.38 151.801 13.38ZM163.264 0C163.835 0 164.358 0.06 164.834 0.18C165.31 0.286666 165.677 0.393333 165.935 0.499999L165.344 2.88C165.072 2.76 164.773 2.67333 164.447 2.62C164.134 2.55333 163.842 2.52 163.57 2.52C163.203 2.52 162.891 2.57333 162.632 2.68C162.388 2.77333 162.191 2.90667 162.041 3.08C161.905 3.25333 161.803 3.46 161.735 3.7C161.681 3.94 161.654 4.2 161.654 4.48V5H165.405V7.48H161.654V15.52H158.616V4.44C158.616 3.08 159.004 2 159.778 1.2C160.567 0.4 161.729 0 163.264 0ZM166.548 10.34C166.548 9.40667 166.69 8.59333 166.976 7.9C167.275 7.19333 167.662 6.60667 168.138 6.14C168.613 5.67333 169.157 5.32 169.768 5.08C170.394 4.84 171.032 4.72 171.685 4.72C173.207 4.72 174.41 5.18 175.293 6.1C176.176 7.00667 176.618 8.34667 176.618 10.12C176.618 10.2933 176.611 10.4867 176.598 10.7C176.584 10.9 176.57 11.08 176.557 11.24H169.667C169.735 11.8533 170.027 12.34 170.543 12.7C171.06 13.06 171.753 13.24 172.622 13.24C173.18 13.24 173.723 13.1933 174.253 13.1C174.797 12.9933 175.239 12.8667 175.578 12.72L175.986 15.14C175.823 15.22 175.606 15.3 175.334 15.38C175.062 15.46 174.756 15.5267 174.416 15.58C174.09 15.6467 173.737 15.7 173.356 15.74C172.976 15.78 172.595 15.8 172.215 15.8C171.25 15.8 170.407 15.66 169.687 15.38C168.98 15.1 168.389 14.72 167.913 14.24C167.451 13.7467 167.105 13.1667 166.874 12.5C166.656 11.8333 166.548 11.1133 166.548 10.34ZM173.683 9.2C173.669 8.94667 173.621 8.7 173.54 8.46C173.472 8.22 173.356 8.00667 173.193 7.82C173.044 7.63333 172.847 7.48 172.602 7.36C172.371 7.24 172.079 7.18 171.726 7.18C171.386 7.18 171.094 7.24 170.849 7.36C170.604 7.46667 170.4 7.61333 170.237 7.8C170.074 7.98667 169.945 8.20667 169.85 8.46C169.768 8.7 169.707 8.94667 169.667 9.2H173.683ZM185.425 7.64C185.153 7.57333 184.833 7.50667 184.466 7.44C184.1 7.36 183.705 7.32 183.284 7.32C183.094 7.32 182.863 7.34 182.591 7.38C182.333 7.40667 182.136 7.44 182 7.48V15.52H178.962V5.56C179.506 5.37333 180.145 5.2 180.879 5.04C181.626 4.86667 182.455 4.78 183.366 4.78C183.529 4.78 183.726 4.79333 183.957 4.82C184.188 4.83333 184.419 4.86 184.65 4.9C184.881 4.92667 185.112 4.96667 185.343 5.02C185.574 5.06 185.771 5.11333 185.934 5.18L185.425 7.64Z" fill="#252631"/>
<path d="M63.1548 26.0955L62.5206 26.7288V28.2066H60.3688V19.9622H62.5206V24.2844L64.7177 22.1844H67.2659L64.7177 24.7622L67.4811 28.2066H64.8762L63.1548 26.0955ZM72.3371 22.0844C73.3564 22.0844 74.134 22.3139 74.6701 22.7733C75.2062 23.225 75.4742 23.9214 75.4742 24.8622V28.2066H73.4697V27.4288C73.16 28.0139 72.556 28.3066 71.6576 28.3066C71.1819 28.3066 70.7704 28.225 70.4232 28.0622C70.0758 27.8992 69.8116 27.6806 69.6304 27.4066C69.4566 27.125 69.3699 26.8066 69.3699 26.451C69.3699 25.8806 69.5926 25.4399 70.0381 25.1288C70.4835 24.8103 71.1706 24.651 72.0993 24.651H73.3224C73.2846 24.0139 72.8505 23.6955 72.02 23.6955C71.7256 23.6955 71.4273 23.7436 71.1253 23.8399C70.8233 23.9288 70.5665 24.0547 70.3552 24.2177L69.6304 22.7844C69.9701 22.5622 70.3816 22.3917 70.8648 22.2733C71.3556 22.1473 71.8463 22.0844 72.3371 22.0844ZM72.2578 26.9733C72.507 26.9733 72.7259 26.9139 72.9147 26.7955C73.1034 26.6769 73.2393 26.5028 73.3224 26.2733V25.751H72.3938C71.767 25.751 71.4538 25.9547 71.4538 26.3622C71.4538 26.5473 71.5254 26.6955 71.6689 26.8066C71.8123 26.9177 72.0087 26.9733 72.2578 26.9733ZM80.7624 28.3066C80.2489 28.3066 79.7431 28.251 79.2448 28.1399C78.7465 28.0214 78.3462 27.8695 78.0443 27.6844L78.6898 26.2399C78.9691 26.4103 79.3014 26.5473 79.6864 26.651C80.0715 26.7473 80.4527 26.7955 80.8303 26.7955C81.1775 26.7955 81.423 26.7622 81.5665 26.6955C81.7174 26.6214 81.793 26.5177 81.793 26.3844C81.793 26.251 81.7024 26.1584 81.5212 26.1066C81.3474 26.0473 81.0681 25.9917 80.6831 25.9399C80.1922 25.8806 79.7732 25.8028 79.426 25.7066C79.0862 25.6103 78.7918 25.4325 78.5426 25.1733C78.2934 24.9139 78.1689 24.551 78.1689 24.0844C78.1689 23.6992 78.2859 23.3584 78.5199 23.0622C78.7539 22.7584 79.0937 22.5214 79.5392 22.351C79.9922 22.1733 80.532 22.0844 81.1587 22.0844C81.6042 22.0844 82.0459 22.1288 82.4838 22.2177C82.9216 22.3066 83.2879 22.4325 83.5824 22.5955L82.9368 24.0288C82.3932 23.7325 81.8043 23.5844 81.1701 23.5844C80.8303 23.5844 80.5812 23.625 80.4226 23.7066C80.264 23.7806 80.1848 23.8806 80.1848 24.0066C80.1848 24.1473 80.2715 24.2473 80.4453 24.3066C80.6189 24.3584 80.9057 24.4139 81.306 24.4733C81.8118 24.5473 82.2308 24.6325 82.5631 24.7288C82.8952 24.825 83.1821 25.0028 83.4238 25.2622C83.673 25.5139 83.7975 25.8695 83.7975 26.3288C83.7975 26.7066 83.6804 27.0473 83.4465 27.351C83.2124 27.6473 82.865 27.8806 82.4045 28.051C81.9515 28.2214 81.4041 28.3066 80.7624 28.3066ZM88.6546 28.3066C88.1412 28.3066 87.6353 28.251 87.137 28.1399C86.6387 28.0214 86.2386 27.8695 85.9366 27.6844L86.5821 26.2399C86.8615 26.4103 87.1937 26.5473 87.5787 26.651C87.9638 26.7473 88.3451 26.7955 88.7226 26.7955C89.0699 26.7955 89.3152 26.7622 89.4587 26.6955C89.6097 26.6214 89.6852 26.5177 89.6852 26.3844C89.6852 26.251 89.5946 26.1584 89.4134 26.1066C89.2398 26.0473 88.9604 25.9917 88.5753 25.9399C88.0846 25.8806 87.6656 25.8028 87.3182 25.7066C86.9785 25.6103 86.684 25.4325 86.4349 25.1733C86.1857 24.9139 86.0611 24.551 86.0611 24.0844C86.0611 23.6992 86.1781 23.3584 86.4122 23.0622C86.6463 22.7584 86.9861 22.5214 87.4315 22.351C87.8845 22.1733 88.4244 22.0844 89.051 22.0844C89.4964 22.0844 89.9381 22.1288 90.3761 22.2177C90.814 22.3066 91.1802 22.4325 91.4746 22.5955L90.8291 24.0288C90.2855 23.7325 89.6965 23.5844 89.0623 23.5844C88.7226 23.5844 88.4734 23.625 88.3149 23.7066C88.1563 23.7806 88.077 23.8806 88.077 24.0066C88.077 24.1473 88.1639 24.2473 88.3375 24.3066C88.5111 24.3584 88.7981 24.4139 89.1982 24.4733C89.7041 24.5473 90.1232 24.6325 90.4553 24.7288C90.7875 24.825 91.0745 25.0028 91.3161 25.2622C91.5652 25.5139 91.6898 25.8695 91.6898 26.3288C91.6898 26.7066 91.5728 27.0473 91.3387 27.351C91.1046 27.6473 90.7574 27.8806 90.2968 28.051C89.8438 28.2214 89.2964 28.3066 88.6546 28.3066ZM96.9321 22.0844C97.9513 22.0844 98.7289 22.3139 99.2651 22.7733C99.8011 23.225 100.069 23.9214 100.069 24.8622V28.2066H98.0646V27.4288C97.755 28.0139 97.151 28.3066 96.2525 28.3066C95.7769 28.3066 95.3653 28.225 95.0181 28.0622C94.6707 27.8992 94.4065 27.6806 94.2253 27.4066C94.0516 27.125 93.9648 26.8066 93.9648 26.451C93.9648 25.8806 94.1875 25.4399 94.633 25.1288C95.0784 24.8103 95.7655 24.651 96.6942 24.651H97.9174C97.8795 24.0139 97.4454 23.6955 96.6149 23.6955C96.3205 23.6955 96.0222 23.7436 95.7202 23.8399C95.4182 23.9288 95.1615 24.0547 94.9501 24.2177L94.2253 22.7844C94.5651 22.5622 94.9765 22.3917 95.4598 22.2733C95.9505 22.1473 96.4412 22.0844 96.9321 22.0844ZM96.8528 26.9733C97.1019 26.9733 97.3209 26.9139 97.5096 26.7955C97.6983 26.6769 97.8342 26.5028 97.9174 26.2733V25.751H96.9887C96.3619 25.751 96.0487 25.9547 96.0487 26.3622C96.0487 26.5473 96.1204 26.6955 96.2639 26.8066C96.4072 26.9177 96.6036 26.9733 96.8528 26.9733Z" fill="#59BDEF"/>
<defs>
<linearGradient id="paint0_linear_732_2471" x1="37.2431" y1="12.5858" x2="-6.35285" y2="0.88388" gradientUnits="userSpaceOnUse">
<stop stop-color="#20DCEA"/>
<stop offset="1" stop-color="#2060EC"/>
</linearGradient>
<linearGradient id="paint1_linear_732_2471" x1="37.2431" y1="12.5858" x2="-6.35286" y2="0.883884" gradientUnits="userSpaceOnUse">
<stop stop-color="#20DCEA"/>
<stop offset="1" stop-color="#2060EC"/>
</linearGradient>
<linearGradient id="paint2_linear_732_2471" x1="37.2431" y1="12.5858" x2="-6.35288" y2="0.883909" gradientUnits="userSpaceOnUse">
<stop stop-color="#20DCEA"/>
<stop offset="1" stop-color="#2060EC"/>
</linearGradient>
<linearGradient id="paint3_linear_732_2471" x1="37.2431" y1="12.5858" x2="-6.35284" y2="0.88388" gradientUnits="userSpaceOnUse">
<stop stop-color="#20DCEA"/>
<stop offset="1" stop-color="#2060EC"/>
</linearGradient>
</defs>
</svg>
