<svg width="42" height="42" viewBox="0 0 42 42" fill="none" xmlns="http://www.w3.org/2000/svg">
<circle cx="21" cy="21" r="21" fill="url(#paint0_linear_802_1205)"/>
<path d="M32.1308 15.6454C31.3958 15.9604 30.5558 16.1704 29.7158 16.2754C30.5558 15.7504 31.2908 14.9104 31.6058 13.9654C30.7658 14.4904 29.9258 14.8054 28.8758 15.0154C28.1408 14.1754 26.9858 13.6504 25.8308 13.6504C23.5208 13.6504 21.6308 15.5404 21.6308 17.8504C21.6308 18.1654 21.6308 18.4804 21.7358 18.7954C18.2708 18.5854 15.1208 16.9054 13.0208 14.3854C12.7058 15.0154 12.4958 15.7504 12.4958 16.4854C12.4958 17.9554 13.2308 19.2154 14.3858 19.9504C13.6508 19.9504 13.0208 19.7404 12.4958 19.4254C12.4958 21.4204 13.9658 23.2054 15.8558 23.5204C15.5408 23.6254 15.1208 23.6254 14.7008 23.6254C14.3858 23.6254 14.1758 23.6254 13.8608 23.5204C14.3858 25.2004 15.9608 26.4604 17.8508 26.4604C16.3808 27.6154 14.5958 28.2454 12.6008 28.2454C12.2858 28.2454 11.9708 28.2454 11.5508 28.1404C13.4408 29.2954 15.6458 30.0304 18.0608 30.0304C25.8308 30.0304 30.0308 23.6254 30.0308 18.0604V17.5354C30.8708 17.2204 31.6058 16.4854 32.1308 15.6454Z" fill="white"/>
<defs>
<linearGradient id="paint0_linear_802_1205" x1="36.77" y1="36.16" x2="-9.45508" y2="19.2733" gradientUnits="userSpaceOnUse">
<stop stop-color="#36D1DC"/>
<stop offset="0.963542" stop-color="#5B86E5"/>
</linearGradient>
</defs>
</svg>
