<svg width="42" height="42" viewBox="0 0 42 42" fill="none" xmlns="http://www.w3.org/2000/svg">
<circle cx="21" cy="21" r="21" fill="url(#paint0_linear_802_1208)"/>
<path d="M30.4496 14.5096C30.4496 12.9374 29.0623 11.55 27.49 11.55H15.5592C13.9869 11.55 12.5996 12.9374 12.5996 14.5096V26.4405C12.5996 28.0127 13.9869 29.4 15.5592 29.4H21.5708V22.6485H19.3512V19.6889H21.5708V18.4866C21.5708 16.4519 23.0506 14.6946 24.9004 14.6946H27.3051V17.6542H24.9004C24.6229 17.6542 24.3455 17.9317 24.3455 18.4866V19.6889H27.3051V22.6485H24.3455V29.4H27.49C29.0623 29.4 30.4496 28.0127 30.4496 26.4405V14.5096Z" fill="white"/>
<defs>
<linearGradient id="paint0_linear_802_1208" x1="36.77" y1="36.16" x2="-9.45508" y2="19.2733" gradientUnits="userSpaceOnUse">
<stop stop-color="#36D1DC"/>
<stop offset="0.963542" stop-color="#5B86E5"/>
</linearGradient>
</defs>
</svg>
